<svg width="103" height="103" viewBox="0 0 103 103" fill="none" xmlns="http://www.w3.org/2000/svg">
<path d="M48.0488 0.085556C38.8582 0.660713 29.3581 3.99125 21.8764 9.27462C17.1937 12.565 12.5917 17.1395 9.28142 21.7942C4.45064 28.5623 1.38263 36.5476 0.252304 45.2685C-0.0841013 47.9168 -0.0841013 54.3773 0.252304 57.1059C2.04198 71.458 9.28142 83.8572 20.8538 92.4176C27.5953 97.3933 35.992 100.858 43.9446 101.914C44.5771 101.995 45.2364 102.088 45.4248 102.115C48.2775 102.543 54.4001 102.516 57.9526 102.061C66.874 100.898 75.0419 97.6475 82.093 92.431C93.5308 83.9776 100.784 71.672 102.627 57.6543C102.977 54.9391 103.112 50.2175 102.896 47.4755C102.129 37.6176 98.7518 28.5623 92.9253 20.7777C84.5689 9.62239 72.2027 2.30592 58.6119 0.47345C55.3824 0.045433 51.1841 -0.115074 48.0488 0.085556ZM54.9384 7.7498C68.4215 8.8466 80.5052 15.9223 88.0406 27.1445C93.8672 35.8386 96.3566 46.5392 94.9571 56.9722C93.3559 68.9567 86.87 79.6305 76.872 86.7731C70.6956 91.1737 62.7564 94.0762 55.3151 94.6647C53.6869 94.7851 49.3271 94.7851 47.5778 94.6513C45.7747 94.5176 42.8009 94.0093 40.6882 93.4877C25.3481 89.689 12.9684 77.4503 9.05267 62.2555C8.40677 59.7409 8.05691 57.7346 7.8147 55.1664C6.84585 44.8137 9.6582 34.461 15.7135 25.9942C23.0875 15.6682 34.5387 9.07399 47.2414 7.81668C49.4482 7.60267 52.7046 7.57592 54.9384 7.7498Z" fill="white"/>
<path d="M43.8639 39.4234C38.5083 43.6234 34.3907 46.8068 34.3369 46.8068C34.31 46.8068 34.2158 46.6195 34.1351 46.3922C33.866 45.6297 32.7895 44.1718 31.7937 43.2489C30.7172 42.2457 29.7349 41.6171 28.47 41.0954C26.8687 40.4667 26.0344 40.3865 20.3155 40.3865H15.0138V50.8329V61.2659L20.7058 61.2257C26.1017 61.1722 26.4381 61.1589 27.3666 60.878C30.3001 59.9952 32.7087 58.0423 33.9871 55.501C34.1485 55.1666 34.31 54.8857 34.3235 54.8589C34.3638 54.8188 36.6918 56.6245 42.5856 61.2525C44.0927 62.4429 45.3845 63.3792 45.4787 63.3525C45.5594 63.3123 48.291 61.2124 51.5474 58.671L57.4682 54.0564L57.5085 57.6544L57.5354 61.2525L61.8818 61.2659C64.2635 61.2659 67.5469 61.2926 69.1751 61.2926L72.1354 61.3194L72.1758 58.2697L72.2027 55.2335H68.5023H64.7883L64.8018 48.5724C64.8153 44.9208 64.8153 41.5769 64.8153 41.1489L64.8018 40.3865H61.1686H57.5354V44.0247V47.6762L52.5432 51.5552C49.7847 53.6819 47.4567 55.4341 47.3625 55.4341C47.1741 55.4341 45.4383 54.1634 45.4383 54.0296C45.4383 53.9895 47.7124 52.1972 50.4844 50.0437L55.5305 46.1246L53.6735 44.6533C52.6508 43.8508 51.7224 43.1419 51.6147 43.075C51.4667 42.9947 50.1076 43.9845 46.5686 46.7667C43.9043 48.8533 41.6302 50.6189 41.5091 50.6857C41.3342 50.7794 41.065 50.6322 40.3249 50.0571C39.8001 49.6424 39.4099 49.2545 39.4637 49.201C39.531 49.1475 41.7244 47.4355 44.3483 45.4024C46.9723 43.3559 49.206 41.6171 49.3002 41.5234C49.4348 41.403 49.0715 41.0553 47.5106 39.8381C46.4341 38.9954 45.519 38.2999 45.4518 38.2865C45.3979 38.2731 44.6847 38.7814 43.8639 39.4234ZM25.6442 46.6597C26.6938 47.0476 27.3128 47.6093 27.8241 48.6526C28.2278 49.4686 28.2682 49.6424 28.2682 50.8195C28.2682 51.9029 28.2143 52.1972 27.9183 52.8258C27.4742 53.7621 26.8553 54.3774 25.9133 54.8188C25.2809 55.1131 24.9445 55.1666 23.5989 55.2067L22.011 55.2602V50.8596C22.011 48.4386 22.0514 46.4055 22.1187 46.3387C22.3071 46.1514 24.8772 46.3788 25.6442 46.6597Z" fill="white"/>
<path d="M74.2211 50.8728V61.3459L81.4875 61.3727L88.7538 61.3994V58.323V55.2332H85.1207H81.4875V47.8098V40.3863H77.8543H74.2211V50.8728Z" fill="white"/>
</svg>
