<svg width="345" height="61" viewBox="0 0 345 61" fill="none" xmlns="http://www.w3.org/2000/svg">
<path d="M88.3405 1.3223C79.6292 4.1454 73.1764 9.87224 69.3854 17.9382C67.3689 22.2132 67.127 23.7457 67.127 30.4405C67.127 37.4579 67.3689 38.5871 69.7081 43.4267C72.8538 49.7989 77.9354 54.7191 84.3075 57.7035C88.3405 59.6394 89.9537 59.8813 96.9711 59.8813C104.472 59.8813 105.44 59.72 110.441 57.2196C116.007 54.4771 122.379 48.347 122.379 45.7659C122.379 43.9914 119.878 41.7329 117.862 41.7329C117.055 41.7329 114.958 43.1848 113.264 45.0399C102.617 56.3323 84.2268 53.8319 77.2094 40.039C74.1444 34.1509 72.7731 34.4735 100.036 34.4735C123.428 34.4735 124.637 34.3928 126.009 32.8603C128.106 30.6018 127.219 23.5038 123.992 17.051C117.539 3.98408 101.649 -3.11399 88.3405 1.3223ZM108.263 11.4854C111.893 13.5826 114.716 16.7283 117.055 21.3259C119.717 26.6495 120.604 26.4075 96.9711 26.4075C72.9345 26.4075 73.9024 26.7302 77.2901 20.358C79.5486 16.0831 81.7264 13.7439 85.84 11.3241C92.2928 7.53311 101.649 7.61377 108.263 11.4854Z" fill="white"/>
<path d="M154.401 0.596357C145.931 2.77417 137.865 9.38828 133.913 17.3736C131.897 21.4873 131.655 22.8585 131.655 30.0372C131.655 37.5386 131.816 38.5065 134.316 43.5074C137.301 49.5569 142.705 54.9611 148.754 57.9455C152.061 59.6394 153.836 59.8813 161.095 59.8813C168.597 59.8813 170.129 59.6394 174.162 57.7035C180.292 54.8804 186.1 49.0729 186.1 45.8465C186.1 43.5074 184.325 41.7329 182.067 41.7329C181.583 41.7329 179.486 43.3461 177.389 45.2819C171.501 50.6861 168.919 51.7347 161.499 51.8154C156.094 51.8154 154.401 51.4927 151.013 49.7182C146.577 47.3791 141.656 41.6522 140.285 37.2159L139.479 34.4735H164.241C187.955 34.4735 189.165 34.3928 190.536 32.8603C192.311 30.8438 191.907 25.7622 189.246 18.7448C186.745 12.0501 179.486 4.79067 172.791 2.29021C167.306 0.273717 158.918 -0.532881 154.401 0.596357ZM169.726 9.9529C175.372 11.9694 182.793 20.6807 182.874 25.3589C182.874 26.1655 178.034 26.4075 161.499 26.4075H140.124V24.5523C140.124 23.5844 140.93 21.4873 141.818 19.9547C147.948 9.71092 158.434 6.00057 169.726 9.9529Z" fill="white"/>
<path d="M267.002 1.56419C265.631 1.88682 263.695 3.17738 262.808 4.30662C261.194 6.40378 261.114 7.45235 261.114 31.9729C261.114 50.7667 261.356 57.7841 262.082 58.51C263.372 59.8006 267.163 59.7199 268.292 58.4294C268.857 57.7034 269.26 49.3955 269.341 33.4248L269.583 9.46885L280.472 30.1178C286.441 41.4908 292.006 51.8153 292.732 53.1058C295.798 58.2681 302.654 60.0426 308.461 57.3808C311.607 55.8483 311.607 55.8483 325.642 29.3112L335.724 10.2754L336.127 33.5055C336.45 51.6539 336.773 57.1388 337.66 58.1067C339.193 60.0426 343.145 59.8813 344.193 57.9454C344.677 56.9775 345 47.379 345 32.4569C345 12.5339 344.758 8.09763 343.79 5.83916C341.532 1.24155 335.643 -0.371651 331.61 2.69342C330.401 3.58068 324.835 13.0985 317.818 26.4074C311.365 38.5871 305.638 49.0728 305.073 49.7181C304.428 50.3634 303.218 50.6054 302.089 50.3634C300.637 49.9601 297.733 45.1205 288.135 26.8107C274.584 0.999564 273.616 -0.210331 267.002 1.56419Z" fill="white"/>
<path d="M0.421111 3.33877C-0.304827 4.95196 -0.143508 6.00054 1.30837 8.82364C18.1663 41.5715 27.0389 57.4615 29.2167 58.8327C32.6044 61.0106 38.7345 60.4459 41.3157 57.7842C43.4935 55.5257 69.1433 7.12978 69.1433 5.2746C69.1433 4.62932 68.4174 3.41943 67.5301 2.61283C63.9004 -0.694226 62.7712 0.757649 48.7364 27.4561C39.7025 44.6366 35.2662 52.2186 34.4596 52.0573C33.8143 51.896 28.0068 41.8135 21.554 29.6339C6.0673 0.19303 6.79324 1.40293 3.80883 1.40293C1.95365 1.40293 1.14705 1.88689 0.421111 3.33877Z" fill="white"/>
<path d="M217.557 3.17724C215.46 4.62912 212.153 10.1947 201.587 30.279C188.6 54.9609 188.358 55.5255 189.649 57.4613C191.182 59.8005 194.166 60.1231 195.941 58.0259C196.666 57.3 198.522 53.9929 200.135 50.7666L203.039 44.959H218.041C226.833 44.959 233.609 44.6364 234.577 44.1524C236.351 43.1845 236.674 39.3935 235.141 37.861C234.496 37.2157 230.14 36.8931 221.026 36.8931C213.766 36.8931 207.878 36.7317 207.878 36.4898C207.878 35.6025 220.945 11.4852 221.994 10.356C223.365 8.90409 224.091 10.114 237.722 36.0865C243.61 47.3788 249.015 57.3 249.66 58.0259C251.435 60.1231 254.419 59.8005 255.951 57.4613C257.242 55.5255 257 55.0415 243.933 30.279C229.818 3.33856 228.366 1.40273 222.8 1.40273C221.348 1.40273 219.009 2.20933 217.557 3.17724Z" fill="white"/>
</svg>
