<svg width="252" height="133" viewBox="0 0 252 133" fill="none" xmlns="http://www.w3.org/2000/svg">
<path d="M63.366 0.696171C62.6701 1.06245 61.7178 1.90489 61.2782 2.56419L60.4358 3.77291V34.6136V65.4543L61.2782 66.6996C63.4393 69.9595 68.0544 69.9595 70.2154 66.6996L71.0579 65.4543V34.6136V3.77291L70.2521 2.56419C69.2631 1.13571 67.2852 0.000241428 65.7468 0.000241428C65.1242 0.000241428 64.062 0.293265 63.366 0.696171Z" fill="white"/>
<path d="M183.872 0.695843C183.176 1.06212 182.224 1.90456 181.748 2.56387L180.942 3.77259L181.015 35.0162L181.125 66.2598L182.224 67.3952C184.165 69.4098 187.425 69.7394 189.513 68.0912C191.674 66.4063 191.564 67.9446 191.564 34.5034V3.77259L190.758 2.56387C189.769 1.13538 187.791 -8.68141e-05 186.253 -8.68141e-05C185.63 -8.68141e-05 184.568 0.292936 183.872 0.695843Z" fill="white"/>
<path d="M32.782 21.5372C32.1593 21.9401 31.3169 22.7093 30.9506 23.2953C30.2546 24.3209 30.218 25.0901 30.218 39.4482C30.218 54.0994 30.2546 54.5389 30.9872 55.5279C32.3791 57.3959 33.5878 58.0552 35.7122 58.0552C37.9831 58.0552 39.375 57.2494 40.3639 55.2715C40.95 54.136 41.0232 52.5976 41.0232 39.4482C41.0232 23.7348 41.0232 23.8814 39.0453 22.0133C37.7267 20.768 34.3936 20.5116 32.782 21.5372Z" fill="white"/>
<path d="M93.5843 21.244C93.1814 21.3905 92.3756 22.0498 91.7529 22.7091L90.6541 23.8446L90.5442 39.155L90.4343 54.4288L91.2768 55.6742C93.5843 59.044 97.943 59.0073 100.507 55.5277C101.24 54.5387 101.276 54.0992 101.276 39.448V24.3573L100.434 23.1486C99.9576 22.4893 99.1151 21.7201 98.5291 21.4271C97.3936 20.8411 94.7564 20.7312 93.5843 21.244Z" fill="white"/>
<path d="M153.288 21.5372C152.665 21.9401 151.823 22.7093 151.456 23.2953C150.761 24.3209 150.724 25.0901 150.724 39.4482C150.724 54.0994 150.761 54.5389 151.493 55.5279C152.885 57.3959 154.094 58.0552 156.181 58.0552C158.599 58.0552 160.577 56.7366 161.163 54.6488C161.456 53.7331 161.529 48.422 161.456 38.5691L161.346 23.8081L159.991 22.4529C158.782 21.2808 158.379 21.0976 156.511 20.9878C154.863 20.8779 154.13 20.9878 153.288 21.5372Z" fill="white"/>
<path d="M214.273 21.1343C213.98 21.2441 213.321 21.6837 212.881 22.1232C210.977 23.8081 210.977 23.8447 210.977 39.4482C210.977 52.5976 211.05 54.136 211.636 55.2715C212.625 57.2494 214.017 58.0552 216.288 58.0552C218.412 58.0552 219.621 57.3959 221.013 55.5279C221.745 54.5389 221.782 54.0994 221.782 39.4482V24.3575L220.939 23.1488C220.463 22.4895 219.621 21.7203 219.035 21.4273C218.009 20.8779 215.372 20.7314 214.273 21.1343Z" fill="white"/>
<path d="M2.56395 36.7014C0.256395 38.313 0 39.2654 0 46.9939C0 52.6345 0.109884 54.1363 0.586046 55.1619C1.39186 56.8834 3.04011 57.9456 5.09128 58.1287C7.39883 58.3485 9.08372 57.3962 10.1826 55.3084C10.9151 53.8066 10.9884 53.2206 10.9884 46.884C10.9884 39.2654 10.732 38.2398 8.46104 36.738C6.77616 35.6026 4.21221 35.6026 2.56395 36.7014Z" fill="white"/>
<path d="M123.033 36.7379C120.762 38.2396 120.506 39.2652 120.506 46.9937C120.506 54.6855 120.762 55.7477 122.85 57.2495C124.425 58.3849 127.575 58.3849 129.15 57.2495C131.238 55.7477 131.494 54.6855 131.494 46.9937C131.494 41.1698 131.384 39.9245 130.835 38.8256C129.919 36.9943 128.088 35.8954 126 35.8954C124.828 35.8954 123.875 36.1518 123.033 36.7379Z" fill="white"/>
<path d="M243.539 36.738C241.268 38.2398 241.012 39.2654 241.012 46.884C241.012 53.2206 241.085 53.8066 241.854 55.3084C242.916 57.3962 244.601 58.3485 246.909 58.1287C248.96 57.9456 250.608 56.8834 251.414 55.1619C251.89 54.1363 252 52.6345 252 46.9939C252 40.9869 251.927 39.9247 251.304 38.8258C249.802 35.9689 246.14 34.9799 243.539 36.738Z" fill="white"/>
<path d="M40.4736 88.1269C24.2475 91.5699 17.3248 110.616 27.3608 124.242C29.8149 127.612 34.7963 130.798 39.4847 132.007C44.0265 133.216 48.019 133.143 54.2091 131.824L56.0405 131.421V125.597C56.0405 122.411 55.9672 119.773 55.8573 119.773C55.7108 119.773 55.198 119.993 54.612 120.286C52.8905 121.202 47.6893 122.081 45.6382 121.825C41.2062 121.312 37.6899 119.041 35.8951 115.525C35.126 113.986 34.9794 113.217 34.9794 110.25C34.9794 107.393 35.126 106.477 35.7853 105.122C36.9207 102.815 39.0085 100.764 41.3893 99.6647C43.1475 98.8222 43.88 98.7124 47.0666 98.7124C50.5463 98.749 54.0992 99.4815 55.1248 100.397C55.3079 100.58 55.6009 100.727 55.7475 100.727C55.894 100.727 56.0405 98.1263 56.0405 94.9397V89.1159L54.6852 88.7129C50.473 87.4676 44.7225 87.2478 40.4736 88.1269Z" fill="white"/>
<path d="M108.602 87.9436C103.803 88.9326 99.4445 92.3756 97.9794 96.368C96.9538 99.1884 96.9905 103.584 98.0893 106.038C99.7742 109.774 103.071 112.228 109.224 114.242C113.729 115.744 115.085 116.623 115.524 118.418C115.817 119.553 115.744 119.956 115.121 120.799C113.949 122.374 112.594 122.85 108.602 122.997C105.305 123.143 100.69 122.594 97.8695 121.751L97.0271 121.531L97.137 126.586L97.2469 131.677L99.994 132.117C114.425 134.351 123.253 131.348 126.476 123.143C127.575 120.433 127.465 116.074 126.293 113.547C124.388 109.298 121.824 107.393 115.085 105.085C111.642 103.913 110.396 103.327 109.7 102.485C106.331 98.4924 112.814 95.782 121.421 97.6134C122.813 97.9064 124.022 98.1628 124.095 98.1628C124.132 98.1628 124.132 96.075 124.095 93.4744L123.985 88.8227L121.788 88.3465C118.857 87.7239 110.872 87.4675 108.602 87.9436Z" fill="white"/>
<path d="M155.925 88.0903C154.533 88.3834 151.969 89.2991 150.248 90.1415C146.438 91.9729 142.629 95.5991 140.724 99.152C138.124 104.06 137.391 110.69 138.82 116.257C140.798 124.059 146.695 129.81 154.936 132.08C158.196 132.96 164.423 132.96 168.415 132.08L171.419 131.385V125.524C171.419 120.103 171.382 119.7 170.796 119.957C166.181 121.898 161.053 122.301 157.5 121.092C154.753 120.14 151.639 117.026 150.76 114.353C149.771 111.386 150.064 107.393 151.456 104.646C152.702 102.155 153.947 100.983 156.767 99.6648C158.562 98.8223 159.221 98.7124 162.628 98.7491C166.401 98.7857 166.767 98.8589 170.796 100.544C171.382 100.8 171.419 100.397 171.419 94.9764V89.1159L170.063 88.713C165.924 87.5043 160.21 87.2479 155.925 88.0903Z" fill="white"/>
<path d="M200.831 88.1269C190.282 90.4345 183.139 99.3717 183.139 110.25C183.139 125.561 197.241 135.963 212.625 132.007C218.375 130.505 224.273 125.744 226.873 120.506C232.55 108.858 227.752 94.9031 216.288 89.7019C211.709 87.6141 205.812 87.0281 200.831 88.1269ZM210.317 99.4816C212.552 100.214 215.445 102.925 216.507 105.269C218.961 110.836 216.874 117.393 211.709 120.286C209.841 121.348 209.438 121.422 206.215 121.422C203.578 121.422 202.406 121.275 201.417 120.762C199.256 119.7 197.314 117.795 196.142 115.708C195.153 113.913 195.043 113.437 195.043 110.25C195.043 107.173 195.153 106.551 196.032 104.902C198.816 99.5914 204.2 97.5403 210.317 99.4816Z" fill="white"/>
<path d="M71.4246 110.25V132.263L76.8455 132.153L82.2298 132.043L82.3397 110.14L82.4129 88.2731H76.9187H71.4246V110.25Z" fill="white"/>
</svg>
