<svg width="271" height="45" viewBox="0 0 271 45" fill="none" xmlns="http://www.w3.org/2000/svg">
<path d="M63.7165 0.0738106C52.8865 1.66881 48.0671 6.16381 46.1719 16.4588C45.7206 18.9238 45.7206 26.1557 46.1719 28.5844C47.0383 33.1157 48.6086 36.3963 51.2259 39.0788C53.8612 41.7613 57.6156 43.5919 62.2725 44.4619C64.4204 44.8607 69.9076 45.0238 72.0195 44.7519C75.7197 44.2807 79.3839 43.0482 81.586 41.5257C85.3945 38.9338 87.9757 34.3482 88.9684 28.4213C90.1778 21.0988 88.7157 12.0001 85.575 7.39631C83.2105 3.91631 78.8785 1.41506 73.4635 0.400063C71.8931 0.110062 65.0702 -0.125565 63.7165 0.0738106ZM71.2614 7.84944C75.0158 8.82819 77.4164 11.5832 78.4633 16.1144C78.8243 17.6369 78.8604 18.3076 78.8604 22.4401C78.8604 27.8051 78.6077 29.4001 77.3623 31.9738C76.0988 34.5476 74.2396 36.1788 71.6585 36.9944C69.9437 37.5382 65.3951 37.5744 63.7165 37.0669C60.1065 35.9613 57.76 33.2607 56.7672 29.1282C55.8286 25.1044 55.8286 18.9782 56.7853 15.2263C57.9224 10.7494 60.9368 8.15756 65.7922 7.52319C66.9113 7.36006 70.1784 7.55944 71.2614 7.84944Z" fill="white"/>
<path d="M198.369 0.164589C191.781 1.05271 186.836 3.89833 184.29 8.26646C182.106 12.0002 181.078 16.604 181.078 22.6215C181.078 27.8958 181.763 31.2308 183.568 34.8558C185.518 38.7527 187.991 41.0546 192.124 42.849C195.608 44.3715 199.705 45.024 204.687 44.8608C216.492 44.4802 222.665 39.1152 224.361 27.7327C224.704 25.4852 224.704 20.4102 224.361 17.8908C222.99 7.54146 218.64 2.55709 209.199 0.508961C207.737 0.182713 206.654 0.0920868 203.514 0.0558357C201.384 0.0195885 199.073 0.0739632 198.369 0.164589ZM206.582 7.84959C212.087 9.26334 214.614 14.4833 214.29 23.709C213.965 33.1883 210.409 37.484 202.882 37.484C196.149 37.484 192.539 33.9677 191.601 26.5546C191.366 24.6515 191.366 19.8665 191.601 17.909C192.142 13.559 193.64 10.7315 196.276 9.13646C197.449 8.42958 199.146 7.81334 200.608 7.57771C202.034 7.34209 205.21 7.48709 206.582 7.84959Z" fill="white"/>
<path d="M12.0935 0.345757C11.1007 0.418259 9.72895 0.617634 9.025 0.780758C5.0901 1.68701 2.0577 4.58701 0.63175 8.75576C0.0361 10.4776 0.01805 10.6951 0 13.1964C0 16.1689 0.2888 17.4558 1.49815 19.812C2.43675 21.6426 4.45835 23.6364 6.22725 24.4883C9.025 25.8295 9.6387 25.902 19.0427 26.0651C24.2231 26.1558 27.7609 26.2826 28.3024 26.4095C30.2337 26.8626 31.8582 28.1133 32.508 29.6358C32.869 30.5058 32.8871 32.4814 32.5442 33.3151C32.1651 34.2214 31.407 35.0551 30.4865 35.5989C28.9342 36.5051 27.9956 36.5595 13.8624 36.5776H0.81225V40.6558V44.7339H14.0429C27.7789 44.7339 31.2626 44.607 33.591 44.0089C38.8436 42.6495 42.1468 37.8464 42.1468 31.5389C42.1468 25.2133 39.3671 20.7183 34.4755 19.1051C32.0929 18.3258 31.1182 18.2533 22.382 18.0901C13.2306 17.927 12.4906 17.8545 11.1007 16.9301C9.1333 15.6251 8.5918 12.6345 9.90945 10.4414C10.6314 9.20889 11.5881 8.71951 13.6278 8.48388C14.4942 8.37513 20.8477 8.30264 28.0317 8.30264H40.8833V4.22451V0.146385L27.3999 0.164509C19.9633 0.182632 13.0863 0.255135 12.0935 0.345757Z" fill="white"/>
<path d="M94.6722 22.4401V44.7339H99.3652H104.058V36.9583V29.1645L113.769 29.092C122.379 29.0376 123.588 29.0014 124.635 28.7114C129.166 27.4608 132.415 23.872 133.696 18.7064C134.256 16.4589 134.256 12.8339 133.678 10.7495C132.649 6.94326 129.924 3.22763 127.126 1.81388C124.238 0.345757 121.729 0.146385 105.917 0.146385H94.6722V22.4401ZM120.339 8.46576C121.458 8.82826 122.505 9.77076 123.101 10.9308C123.588 11.8914 123.642 12.1814 123.715 14.0301C123.823 17.5101 122.939 19.5583 120.899 20.5551L119.852 21.0808L111.964 21.1351L104.058 21.1895V14.6464V8.10326L111.874 8.17576C117.343 8.21201 119.87 8.30264 120.339 8.46576Z" fill="white"/>
<path d="M139.743 0.273258C139.671 0.327633 139.617 10.3689 139.617 22.567V44.7339H144.4H149.183V35.5808V26.4276H157.667H166.15V35.5808V44.7339H170.843H175.536V22.4401V0.146385H170.843H166.15V9.29951V18.4526H157.667H149.183L149.147 9.33576L149.093 0.237007L144.472 0.182632C141.945 0.164509 139.815 0.20076 139.743 0.273258Z" fill="white"/>
<path d="M241.328 0.273258C234.83 0.59951 230.986 3.19138 229.109 8.52013C226.672 15.4439 229.795 23.002 235.95 25.0501C238.404 25.8658 238.91 25.9201 247.465 26.0651C255.787 26.2101 257.068 26.3008 258.295 26.9351C259.324 27.4426 260.118 28.222 260.642 29.1826C261.093 29.9983 261.165 30.3426 261.165 31.5026C261.183 33.0795 260.804 33.9858 259.739 34.9101C257.898 36.5414 257.7 36.5595 242.195 36.5776H229.145V40.6558V44.7339H242.466C259.288 44.7158 261.346 44.5889 264.108 43.2658C266.021 42.3595 268.024 40.2389 269.089 38.0276C270.226 35.6714 270.533 34.2758 270.551 31.5026C270.551 25.902 268.313 21.6608 264.342 19.7758C263.007 19.1233 262.248 18.8876 259.739 18.362C259.451 18.2895 255.389 18.1808 250.714 18.0901C241.419 17.9451 240.877 17.8726 239.343 16.8214C237.863 15.7883 237.231 13.5045 237.827 11.2933C238.097 10.3326 239.469 8.99138 240.534 8.66513C241.166 8.46576 244.289 8.41138 255.371 8.35701L269.396 8.28451V4.20638V0.146385L255.913 0.182632C248.476 0.20076 241.924 0.237007 241.328 0.273258Z" fill="white"/>
</svg>
