<svg width="163" height="60" viewBox="0 0 163 60" fill="none" xmlns="http://www.w3.org/2000/svg">
<path d="M0.126304 0.163998C0.0541304 0.218704 0 1.16694 0 2.26106V4.23047H14.3085H28.5989V2.16988V0.127528L14.4167 0.0728216C6.62196 0.0545864 0.180435 0.0910568 0.126304 0.163998Z" fill="white"/>
<path d="M32.6587 2.11517V4.23047H53.0478C64.2709 4.23047 73.437 4.194 73.437 4.15753C73.437 3.97517 71.1274 2.42517 70.0989 1.89635C68.7096 1.20341 67.5548 0.802233 65.8587 0.455763C64.722 0.218704 61.9613 0.163998 48.5911 0.0910568L32.6587 -0.000119686V2.11517Z" fill="white"/>
<path d="M81.6828 0.163998C81.6106 0.218704 81.5565 1.16694 81.5565 2.26106V4.23047H93.8261H106.078L105.374 2.20635C104.977 1.094 104.652 0.145762 104.652 0.109292C104.652 -0.0183554 81.8091 0.0363507 81.6828 0.163998Z" fill="white"/>
<path d="M123.868 0.218704C123.796 0.328116 123.435 1.27635 123.057 2.31576L122.371 4.23047H134.622H146.874V2.13341V0.0363512H135.434C127.64 0.0363512 123.941 0.0910568 123.868 0.218704Z" fill="white"/>
<path d="M0.0721739 8.04178C0.036087 8.07825 0 9.00825 0 10.1024V12.0718H14.3626H28.7252L28.653 10.0659L28.5989 8.06001L14.3807 8.02354C6.54978 7.98707 0.108261 8.00531 0.0721739 8.04178Z" fill="white"/>
<path d="M32.7309 8.04178C32.6948 8.07825 32.6587 9.00825 32.6587 10.1024V12.0718H55.3213H77.9839L77.8576 11.3788C77.7854 11.0141 77.5148 10.1206 77.2441 9.42766L76.757 8.15119L54.78 8.06001C42.6909 8.00531 32.767 8.00531 32.7309 8.04178Z" fill="white"/>
<path d="M81.6287 8.04178C81.5926 8.07825 81.5565 9.00825 81.5565 10.1024V12.0718H95.1974H108.82L108.694 11.6524C108.622 11.4335 108.315 10.54 108.008 9.64648L107.431 8.06001L94.5659 8.00531C87.4928 7.98707 81.6648 8.00531 81.6287 8.04178Z" fill="white"/>
<path d="M133.81 8.06001L121.036 8.15119L120.332 10.0659C119.953 11.1235 119.628 11.9988 119.628 12.0171C119.628 12.0535 125.763 12.0718 133.251 12.0718H146.874V10.0841C146.874 8.97178 146.82 8.06001 146.748 8.02354C146.657 7.98707 140.847 8.00531 133.81 8.06001Z" fill="white"/>
<path d="M8.11951 17.9072V19.9131H14.2543H20.3891V17.9072V15.9013H14.2543H8.11951V17.9072Z" fill="white"/>
<path d="M40.7783 17.9072V19.9131H46.9131H53.0479V17.9072V15.9013H46.9131H40.7783V17.9072Z" fill="white"/>
<path d="M65.3174 17.9072V19.9131H71.5243H77.7313L77.9478 18.9466C78.0561 18.436 78.2004 17.5243 78.2546 16.9407L78.3628 15.9013H71.8311H65.3174V17.9072Z" fill="white"/>
<path d="M89.7122 17.9072L89.7664 19.9131H100.647C106.619 19.9131 111.509 19.8584 111.509 19.7672C111.509 19.6943 111.22 18.8007 110.859 17.7613L110.192 15.9013H99.9429H89.6761L89.7122 17.9072Z" fill="white"/>
<path d="M117.662 17.6884C117.319 18.6549 117.012 19.5666 116.958 19.676C116.904 19.8584 119.141 19.9131 127.82 19.9131H138.754V17.9072V15.9013H128.524H118.275L117.662 17.6884Z" fill="white"/>
<path d="M8.11951 25.7485V27.7544H14.2543H20.3891V25.7485V23.7426H14.2543H8.11951V25.7485Z" fill="white"/>
<path d="M40.7783 25.7485V27.7544H56.6205H72.4807L73.4551 26.6967C74.5738 25.5115 75.7827 24.0344 75.7827 23.852C75.7827 23.7973 67.9157 23.7426 58.2805 23.7426H40.7783V25.7485Z" fill="white"/>
<path d="M89.6761 25.7485V27.7544H95.8109H101.928L101.982 26.2409L102.036 24.7456L102.577 26.2409L103.119 27.7544H114.233H125.348L125.871 26.2409L126.395 24.7456L126.449 26.2409L126.503 27.7544H132.62H138.754V25.7485V23.7426H127.134H115.514L114.919 25.475C114.576 26.4232 114.269 27.2073 114.215 27.2073C114.161 27.2073 113.872 26.4415 113.566 25.5115L113.006 23.8338L101.35 23.7791L89.6761 23.7426V25.7485Z" fill="white"/>
<path d="M8.15569 33.6261L8.20982 35.6867L14.3085 35.7414L20.3892 35.7778V33.6808V31.5837H14.2544H8.10156L8.15569 33.6261Z" fill="white"/>
<path d="M40.8144 33.6259L40.8685 35.6865L58.3346 35.7412C69.4855 35.7594 75.7826 35.723 75.7826 35.5953C75.7826 35.3583 73.1844 32.2218 72.6792 31.8753C72.3183 31.62 70.6583 31.5836 56.5122 31.5836H40.7603L40.8144 33.6259Z" fill="white"/>
<path d="M89.7122 33.6261L89.7663 35.6867L95.865 35.7414L101.946 35.7778V33.6808V31.5837H95.8109H89.6581L89.7122 33.6261Z" fill="white"/>
<path d="M104.58 31.9848C104.652 32.2218 104.959 33.1336 105.284 34.0453L105.879 35.6865H114.233H122.605L123.273 33.7718C123.634 32.7142 123.941 31.8024 123.941 31.7112C123.959 31.6383 119.574 31.5836 114.197 31.5836H104.454L104.58 31.9848Z" fill="white"/>
<path d="M126.485 33.6808V35.7778L132.583 35.7414L138.664 35.6867L138.718 33.6261L138.772 31.5837H132.62H126.485V33.6808Z" fill="white"/>
<path d="M8.11951 41.5221V43.6191H14.2543H20.3891V41.5221V39.425H14.2543H8.11951V41.5221Z" fill="white"/>
<path d="M40.7783 41.5221V43.6191H46.9131H53.0479V41.5221V39.425H46.9131H40.7783V41.5221Z" fill="white"/>
<path d="M65.3174 41.5221V43.6191L71.8672 43.5827L78.3989 43.528L78.3448 42.7986C78.3267 42.3974 78.1643 41.4674 78.02 40.738L77.7493 39.425H71.5243H65.3174V41.5221Z" fill="white"/>
<path d="M89.7122 41.4674L89.7663 43.528L95.865 43.5827L101.946 43.6191V41.5221V39.425H95.8109H89.6581L89.7122 41.4674Z" fill="white"/>
<path d="M107.287 39.8261C107.359 40.0631 107.665 40.9749 107.99 41.8867L108.586 43.5278H114.233H119.899L120.567 41.6131C120.945 40.5555 121.252 39.6437 121.252 39.5525C121.252 39.4796 118.077 39.4249 114.197 39.4249H107.16L107.287 39.8261Z" fill="white"/>
<path d="M126.485 41.5221V43.6191H132.62H138.754V41.5221V39.425H132.62H126.485V41.5221Z" fill="white"/>
<path d="M0 49.3629V51.46L14.2904 51.4235L28.5809 51.3688L28.653 49.9464C28.6891 49.1623 28.6711 48.2323 28.617 47.8858L28.4907 47.2658H14.2543H0V49.3629Z" fill="white"/>
<path d="M32.6587 49.3629V51.46H54.6537H76.6487L77.19 49.9464C77.4787 49.1258 77.7674 48.1776 77.8215 47.8494L77.9478 47.2658H55.3033H32.6587V49.3629Z" fill="white"/>
<path d="M81.5565 49.3629V51.46H91.7511H101.946V49.3629V47.2658H91.7511H81.5565V49.3629Z" fill="white"/>
<path d="M109.885 47.3027C109.885 47.3391 110.21 48.2509 110.588 49.3633L111.292 51.3691H114.233H117.192L117.86 49.4544C118.239 48.3968 118.546 47.485 118.546 47.3938C118.546 47.3209 116.597 47.2662 114.215 47.2662C111.833 47.2662 109.885 47.2844 109.885 47.3027Z" fill="white"/>
<path d="M126.485 49.3629V51.46H136.679H146.874V49.3629V47.2658H136.679H126.485V49.3629Z" fill="white"/>
<path d="M155.138 48.2689C153.983 48.6519 152.449 50.0924 151.926 51.3142C151.439 52.4448 151.349 54.0495 151.71 55.3077C152.467 57.8789 155.3 59.593 158.007 59.1007C159.27 58.8636 159.847 58.5719 160.785 57.7148C163.546 55.1801 162.969 50.4572 159.685 48.6519C158.494 47.9954 156.509 47.8313 155.138 48.2689ZM158.837 48.6519C159.919 49.0166 161.11 50.0924 161.67 51.2048C162.049 51.9524 162.121 52.3536 162.121 53.6483C162.121 54.9977 162.067 55.3077 161.634 56.0189C159.342 59.9395 154.073 59.7572 152.215 55.6724C151.692 54.4872 151.71 52.5907 152.251 51.4419C153.46 48.9254 156.22 47.7583 158.837 48.6519Z" fill="white"/>
<path d="M155.571 53.5936C155.625 56.0189 155.661 56.4747 155.896 56.4747C156.094 56.4747 156.184 56.1647 156.257 55.1983L156.347 53.94L157.231 55.253C157.79 56.0736 158.241 56.5659 158.458 56.5659C158.638 56.5659 158.783 56.5112 158.783 56.4565C158.783 56.4018 158.422 55.8365 157.971 55.2165C157.087 53.9583 157.032 53.8306 157.393 53.8306C158.151 53.8306 158.692 52.3171 158.241 51.46C158.025 51.0589 157.141 50.7306 156.22 50.7306H155.517L155.571 53.5936ZM157.664 51.77C158.151 52.4447 157.772 53.2106 156.852 53.393L156.257 53.5024V52.3718V51.223L156.852 51.3506C157.159 51.4053 157.538 51.6059 157.664 51.77Z" fill="white"/>
<path d="M0 57.2042V59.3013L14.2724 59.2648L28.5448 59.2101L28.5628 57.2042L28.5809 55.1983L14.2904 55.1436L0 55.1072V57.2042Z" fill="white"/>
<path d="M32.6587 57.2042V59.3013H47.8693C59.9946 59.3013 63.4409 59.2466 64.9565 59.0277C67.9517 58.6266 70.0989 57.7695 72.3183 56.1283C72.9317 55.6724 73.437 55.253 73.437 55.1983C73.437 55.1436 64.2709 55.1072 53.0478 55.1072H32.6587V57.2042Z" fill="white"/>
<path d="M81.5565 57.2042V59.3013H91.7511H101.946V57.2042V55.1072H91.7511H81.5565V57.2042Z" fill="white"/>
<path d="M112.591 55.1435C112.609 55.18 112.916 56.0917 113.295 57.2041C113.728 58.4441 114.089 59.21 114.233 59.21C114.396 59.21 114.738 58.4623 115.153 57.2953C115.532 56.2376 115.839 55.3258 115.839 55.2347C115.839 55.1617 115.117 55.107 114.215 55.107C113.331 55.107 112.591 55.1253 112.591 55.1435Z" fill="white"/>
<path d="M126.485 57.2042V59.3013H136.679H146.874V57.2042V55.1072H136.679H126.485V57.2042Z" fill="white"/>
</svg>
