<svg width="296" height="34" viewBox="0 0 296 34" fill="none" xmlns="http://www.w3.org/2000/svg">
<path d="M45.2582 0.192704C42.8337 1.07949 40.6785 4.45955 40.3322 7.90388L40.2424 8.73926H47.0029H53.7506V4.36959V-7.53403e-05L49.7481 0.0127764C46.7207 0.0127764 45.6174 0.0641842 45.2582 0.192704Z" fill="white"/>
<path d="M57.4708 4.36959V8.73926H64.0773H70.6839V4.36959V-7.53403e-05H64.0773H57.4708V4.36959Z" fill="white"/>
<path d="M74.4041 4.36959V8.73926H81.139H87.8738V8.28944C87.8738 8.0324 87.784 7.37695 87.6686 6.83717C87.0656 3.88122 85.4108 1.42649 83.3326 0.385483L82.5757 -7.53403e-05H78.4835H74.4041V4.36959Z" fill="white"/>
<path d="M0 17.0291V33.6724H4.04091H8.08182V27.1179V20.5634H20.397H32.7121V16.9648V13.3663H20.397H8.08182L8.10748 10.5645L8.14596 7.77566L22.4239 7.73711L36.6889 7.7114V4.0486V0.385788H18.3445H0V17.0291Z" fill="white"/>
<path d="M93.9031 17.0291V33.6724H97.944H101.985V27.1179V20.5505L111.773 20.5891C122.664 20.6276 121.946 20.5762 122.51 21.5016C122.754 21.8871 122.767 22.1956 122.767 27.7862V33.6724H126.679H130.592V28.146C130.592 24.5603 130.541 22.4012 130.451 21.9514C130.182 20.6919 129.502 19.6509 128.681 19.2268L128.283 19.0083L128.822 18.3785C129.591 17.4789 130.297 16.2708 130.618 15.2941C131.169 13.6233 131.067 8.22548 130.451 6.20772C129.54 3.22607 127.565 1.56816 123.934 0.74564C122.715 0.462894 122.587 0.462894 108.309 0.424339L93.9031 0.372932V17.0291ZM121.984 8.0327C122.754 8.48252 122.908 8.97089 122.869 10.6931C122.831 12.3767 122.69 12.7237 121.856 13.1349C121.458 13.3534 120.701 13.3663 111.709 13.3663H101.985V10.5388V7.69855L111.773 7.73711C121.279 7.77566 121.561 7.78851 121.984 8.0327Z" fill="white"/>
<path d="M135.21 4.0486V7.7114L139.033 7.73711L142.843 7.77566L142.882 20.7176L142.907 33.6724H146.948H150.989V20.6919V7.7114H158.301H165.613V4.0486V0.385788H150.412H135.21V4.0486Z" fill="white"/>
<path d="M169.718 17.0291V33.6724H173.759H177.8V17.0291V0.385788H173.759H169.718V17.0291Z" fill="white"/>
<path d="M183.829 17.0291V33.6724H187.934H192.039V20.6919V7.7114H201.314C207.446 7.7114 210.743 7.76281 211.064 7.85278C211.705 8.0327 212.475 8.72671 212.693 9.3436C212.847 9.74201 212.885 11.914 212.924 21.7457L212.962 33.6724H216.99H221.031V22.3883C221.031 15.3969 220.98 10.6931 220.903 10.0248C220.339 5.44946 218.119 2.40355 214.386 1.09264C212.359 0.385788 212.398 0.385788 197.543 0.385788H183.829V17.0291Z" fill="white"/>
<path d="M226.676 17.0291V33.6724H243.096H259.516V29.9453V26.2182H247.137H234.758V23.3908V20.5634H243.353H251.948L251.922 16.9905L251.883 13.4305L243.314 13.392L234.758 13.3663L234.783 10.5645L234.822 7.77566L247.111 7.73711L259.388 7.7114V4.0486V0.385788H243.032H226.676V17.0291Z" fill="white"/>
<path d="M263.493 4.0486V7.7114H267.278H271.062V20.6919V33.6724H275.103H279.144L279.169 20.7176L279.208 7.77566L286.558 7.73711L293.896 7.7114V4.0486V0.385788H278.695H263.493V4.0486Z" fill="white"/>
<path d="M40.2808 16.9648V21.3345H47.0157H53.7505V16.9648V12.5951H47.0157H40.2808V16.9648Z" fill="white"/>
<path d="M74.4041 16.9648V21.3345H81.139H87.8738V16.9648V12.5951H81.139H74.4041V16.9648Z" fill="white"/>
<path d="M40.3322 26.0124C40.5118 27.7731 41.243 29.8808 42.1281 31.1917C42.7054 32.0271 43.8599 33.1195 44.6425 33.5308L45.3865 33.9292H49.5685H53.7506V29.5595V25.1899H47.0029H40.2424L40.3322 26.0124Z" fill="white"/>
<path d="M57.4708 29.5595V33.9292H64.0773H70.6839V29.5595V25.1899H64.0773H57.4708V29.5595Z" fill="white"/>
<path d="M74.4041 29.5595V33.9292H78.5861H82.7682L83.4096 33.6079C85.4749 32.5669 87.04 30.1893 87.6942 27.0791C87.784 26.6036 87.8738 25.9738 87.8738 25.6911V25.1899H81.139H74.4041V29.5595Z" fill="white"/>
<path d="M290.856 25.7557C289.111 26.3211 288.085 27.722 288.072 29.5598C288.072 30.8322 288.431 31.6547 289.355 32.5029C290.163 33.2484 290.933 33.5439 292.036 33.5439C293.139 33.5439 293.909 33.2484 294.717 32.5029C295.641 31.6547 296 30.8322 296 29.5598C296 28.4674 295.731 27.7606 294.974 26.8866C294.076 25.8328 292.19 25.3187 290.856 25.7557ZM293.601 26.4368C294.833 27.0151 295.564 28.2232 295.564 29.6755C295.551 31.5133 293.883 33.1584 292.036 33.1584C290.189 33.1584 288.521 31.5133 288.508 29.6755C288.508 28.326 289.124 27.1822 290.24 26.5396C291.279 25.9227 292.447 25.8842 293.601 26.4368Z" fill="white"/>
<path d="M290.561 29.4309C290.561 31.5258 290.574 31.6157 290.817 31.6157C291.048 31.6157 291.074 31.5258 291.074 30.7161V29.8164H292.023C292.626 29.8164 293.011 29.8807 293.101 29.9707C293.165 30.0606 293.268 30.4719 293.306 30.8703C293.396 31.5258 293.434 31.6157 293.691 31.6157C293.973 31.6157 293.973 31.59 293.87 30.7675C293.819 30.292 293.691 29.8164 293.588 29.7008C293.422 29.5209 293.434 29.4566 293.652 29.1867C293.781 29.0196 293.896 28.7369 293.896 28.5441C293.883 27.4902 293.498 27.2461 291.779 27.2461H290.561V29.4309ZM293.152 27.9786C293.46 28.2485 293.447 28.724 293.126 29.0453C292.921 29.251 292.703 29.3024 291.972 29.3024H291.074V28.5313V27.7601H291.998C292.665 27.7601 292.973 27.8115 293.152 27.9786Z" fill="white"/>
</svg>
