<svg width="246" height="41" viewBox="0 0 246 41" fill="none" xmlns="http://www.w3.org/2000/svg">
<path d="M11.2473 0.386047C11.159 0.592064 8.59745 9.48018 5.56479 20.1341L0 39.4702L7.94969 39.4114L15.8994 39.3231L17.5777 33.4369C24.644 8.95043 26.9995 0.680359 26.9995 0.386047C26.9995 -0.143707 11.424 -0.114277 11.2473 0.386047Z" fill="white"/>
<path d="M43.0462 12.4233C39.513 12.8942 36.392 13.836 33.2121 15.3664C30.5916 16.6614 29.7967 17.2206 27.7651 19.2807C25.0857 21.9589 23.5547 24.5489 22.7597 27.7274C22.1709 30.0819 22.1709 31.3179 22.7008 33.0544C24.0847 37.675 30.0322 40.3532 39.0713 40.3826C44.5478 40.4121 52.5858 39.4409 55.6185 38.4108L56.9729 37.9693L58.445 34.3788C59.2694 32.4069 59.8877 30.7588 59.8289 30.6999C59.77 30.641 59.0928 30.9353 58.2978 31.3179C53.4102 33.7901 48.3754 35.144 43.7822 35.1734C38.983 35.2028 37.3047 34.4965 37.2164 32.3775L37.1575 31.4062L41.7212 30.3173C44.2239 29.7287 50.3187 28.2866 55.2651 27.1388C60.2116 25.9615 64.4515 24.9609 64.7459 24.8726C65.747 24.5783 66.2181 21.1937 65.5703 18.8393C65.1581 17.3972 63.3032 15.337 61.5071 14.3658C58.7689 12.8648 55.9718 12.335 50.2598 12.2468C47.4332 12.1879 44.1945 12.2762 43.0462 12.4233ZM50.2009 16.9263C51.3492 17.5149 52.0558 18.3978 52.3208 19.5456C52.8213 21.8706 52.9097 21.8118 44.9011 25.8144C39.6307 28.4337 37.5992 29.3461 37.7169 28.9635C37.8053 28.6692 38.2764 26.7856 38.7474 24.7843C39.778 20.6345 40.6613 18.8981 42.3395 17.7798C44.6361 16.2788 48.1693 15.8962 50.2009 16.9263Z" fill="white"/>
<path d="M87.2111 12.4233C82.9418 12.747 75.9048 13.5416 73.5494 13.9537L71.665 14.3068L68.9562 23.4304C67.4546 28.4631 65.7763 34.1138 65.2169 35.9974L64.1864 39.4702H72.3422H80.498L81.1752 37.1746C81.5285 35.9385 81.9996 34.3787 82.2057 33.7312C82.4118 33.0837 83.619 29.1106 84.8556 24.9019C86.1217 20.6933 87.1816 17.1911 87.2405 17.1322C87.2994 17.0733 88.3594 17.0145 89.6254 17.0145C93.6003 17.0145 95.6024 17.9563 95.6024 19.8398C95.6024 20.6933 90.5971 38.4401 90.1554 39.1759C90.0376 39.3819 92.5698 39.4702 98.0757 39.4702H106.173L106.82 37.3218C107.144 36.174 108.44 31.8771 109.647 27.845C112.621 18.0446 112.621 16.779 109.765 14.8366C107.115 13.0413 95.6024 11.8052 87.2111 12.4233Z" fill="white"/>
<path d="M134.762 12.3645C122.72 13.4828 114.623 18.8393 112.532 27.1093C110.883 33.7313 113.563 37.6456 121.159 39.5291C123.397 40.1178 124.516 40.2061 130.051 40.2061C136.764 40.2061 138.855 39.9706 143.301 38.6757C151.78 36.2329 157.581 30.4939 158.493 23.5776C159.023 19.6045 156.226 15.8962 151.25 13.9243C147.717 12.5116 140.533 11.8347 134.762 12.3645ZM139.885 17.5149C141.563 18.2212 142.123 19.2513 142.123 21.5763C142.123 22.6947 141.917 24.6077 141.652 25.8438C140.798 30.023 139.061 32.9366 136.587 34.4082C135.41 35.0851 134.85 35.2028 133.084 35.2028C131.14 35.2028 130.905 35.1439 130.08 34.3199C128.167 32.5246 128.167 29.9641 130.051 24.3428C131.405 20.2814 132.554 18.5744 134.585 17.662C136.028 17.0145 138.531 16.9557 139.885 17.5149Z" fill="white"/>
<path d="M222.503 12.3059C220.471 12.4825 216.379 13.2477 214.2 13.8952C206.692 16.1025 201.628 20.8114 200.008 27.0213C197.83 35.468 202.894 39.7943 215.466 40.2652C227.302 40.7067 236.076 38.0873 241.494 32.4955C243.555 30.3764 245.645 26.2855 245.94 23.8428C246.558 18.4569 242.377 14.3072 234.722 12.8062C232.484 12.3648 225.359 12.0704 222.503 12.3059ZM227.332 17.5152C227.862 17.7212 228.598 18.2804 228.951 18.7512C229.599 19.5459 229.628 19.8108 229.481 22.5478C229.187 27.9631 227.185 32.4366 224.152 34.3202C222.886 35.0854 222.415 35.2031 220.56 35.2031C218.587 35.2031 218.352 35.1442 217.527 34.3496C215.613 32.4955 215.584 30.0233 217.468 24.3725C218.852 20.2817 220 18.6041 222.032 17.6623C223.475 17.0148 225.977 16.956 227.332 17.5152Z" fill="white"/>
<path d="M160.083 13.1885C160.054 13.3356 160.76 19.2806 161.614 26.4323L163.175 39.4702H175.099H187.053L190.439 34.5553C192.265 31.8182 195.504 27.1093 197.594 24.019C199.655 20.9582 202.158 17.2794 203.1 15.8961C204.072 14.5129 204.837 13.2768 204.837 13.159C204.837 13.0707 201.451 13.0119 197.27 13.0413L189.733 13.1296L183.608 21.9589C180.223 26.8149 177.396 30.9058 177.337 31.0824C177.072 31.8182 176.866 30.6115 175.983 23.5776C175.482 19.4572 174.982 15.3958 174.864 14.6011L174.658 13.1296L167.356 13.0413C163.351 13.0119 160.083 13.0707 160.083 13.1885Z" fill="white"/>
</svg>
