<svg width="241" height="57" viewBox="0 0 241 57" fill="none" xmlns="http://www.w3.org/2000/svg">
<path d="M13.2177 2.69162C12.9924 3.89323 12.6544 5.69564 12.4291 6.74704C12.2414 7.7609 11.9785 9.00005 11.8659 9.45066L11.6406 10.3143L25.6468 10.3894L39.6905 10.5021L38.6016 11.4408C38.0383 11.9665 36.649 13.2057 35.56 14.2571C34.4711 15.2709 32.6687 16.9607 31.5797 18.0121C22.9432 25.9727 20.8404 27.9253 19.6387 29.0894C18.8877 29.8404 16.109 32.4314 13.4054 34.9097C8.89939 39.0402 7.28474 40.5047 3.49217 44.147C1.99016 45.5739 1.38936 47.1886 0.826104 51.4318C0.638353 52.6709 0.375502 54.248 0.262851 54.8864L0 56.1255H32.7062C63.61 56.1255 65.4124 56.088 65.4124 55.4496C65.4124 54.8113 66.1634 51.3191 67.1022 47.6767C67.365 46.6253 67.8907 44.4099 68.2662 42.7201L68.9421 39.641L71.5706 37.6508C72.9976 36.5619 74.462 35.3603 74.8751 34.9848C75.2506 34.6468 75.7012 34.3464 75.8889 34.3464C76.0767 34.3464 76.302 34.1962 76.3771 33.9709C76.4522 33.7832 77.3909 32.9571 78.5174 32.0934L80.5827 30.5914L81.1084 31.793C81.3712 32.4689 81.972 34.046 82.3851 35.2852C82.7981 36.5243 83.2863 37.6884 83.4741 37.9137C83.6618 38.1014 83.812 38.552 83.812 38.89C83.812 39.2655 84.0373 40.0165 84.3377 40.6173C85.1263 42.1193 86.065 44.3723 86.065 44.6727C86.065 44.8229 86.2903 45.4613 86.5907 46.0996C86.8536 46.7755 87.3793 48.0522 87.7548 48.991C88.1303 49.9298 88.656 51.2065 88.9188 51.8824C89.2192 52.5207 89.4445 53.1591 89.4445 53.3093C89.4445 53.4595 89.7074 54.1354 90.0453 54.8488L90.6461 56.1255H98.3064C106.68 56.1255 106.605 56.1631 105.441 53.9476C104.953 53.0464 103.976 50.9061 102.887 48.24C102.662 47.7143 102.249 46.7755 101.986 46.1747C101.723 45.5364 101.198 44.2972 100.785 43.3585C99.5831 40.5422 98.9447 39.1529 97.9684 36.9749C97.4803 35.8484 96.504 33.5579 95.8281 31.9057C95.1522 30.2535 94.2134 27.9629 93.6877 26.8364C91.4347 21.7671 91.5473 22.1802 92.2983 21.7671C92.6363 21.5794 93.2746 21.0912 93.6502 20.7157C94.0257 20.3778 94.4012 20.0774 94.5138 20.0774C94.7016 20.0774 95.9032 19.1386 96.7668 18.2749C97.0672 18.0496 97.4427 17.8243 97.668 17.8243C97.8933 17.8243 98.0811 17.6741 98.0811 17.5239C98.0811 17.3737 98.6068 16.9231 99.2076 16.5476C99.8459 16.2097 102.024 14.6326 104.089 13.093L107.844 10.3143H121.775H135.669L135.406 11.7037C135.256 12.4922 134.955 13.7314 134.692 14.4448C134.242 15.7966 133.416 18.5378 132.627 21.5794C132.364 22.5181 131.951 24.0201 131.688 24.9589C131.388 25.8976 130.9 27.6625 130.524 28.9017C130.186 30.1408 129.698 31.8306 129.435 32.6567C129.173 33.4828 128.684 35.2476 128.309 36.5994C127.933 37.9512 127.445 39.7161 127.182 40.5422C126.732 41.9316 126.431 42.9454 124.854 48.5028C124.516 49.7045 124.066 51.2816 123.803 51.995C123.54 52.7085 123.24 53.9476 123.089 54.7362L122.827 56.1631L128.947 56.0504C134.73 55.9378 135.068 55.9002 135.181 55.1868C135.293 54.4733 136.983 48.7281 138.072 45.4237C138.335 44.5976 138.823 42.9079 139.199 41.6687C140.137 38.4394 140.926 35.886 141.489 34.1587C141.752 33.3326 142.465 30.8918 143.104 28.7139C143.742 26.536 144.456 24.2454 144.681 23.6446C144.906 23.0063 145.244 21.9173 145.394 21.2039C145.77 19.7394 146.108 18.4627 147.272 14.6326C147.722 13.1681 148.173 11.6286 148.286 11.1404L148.473 10.3143H157.636H166.798L167.023 9.26291C167.173 8.69965 167.737 6.78459 168.337 4.98218C168.938 3.17978 169.426 1.45247 169.426 1.15207C169.426 0.626363 166.047 0.551262 136.157 0.551262H102.887L101.16 1.94062C100.184 2.72917 99.3202 3.48018 99.2076 3.59283C99.0949 3.70548 98.0811 4.49403 96.9546 5.32014C95.8281 6.14624 94.4763 7.2352 93.9506 7.6858C93.4249 8.1364 91.9604 9.30046 90.6837 10.2392C89.3694 11.178 88.318 12.0792 88.318 12.2669C88.318 12.4171 88.0552 12.5673 87.7548 12.5673C87.4544 12.5673 87.1915 12.7175 87.1915 12.8677C87.1915 13.0555 86.065 13.9942 84.6381 15.0081C83.2488 16.0219 81.972 17.0733 81.7467 17.2986C81.559 17.5239 80.2823 18.5378 78.9305 19.5141C77.5787 20.528 76.4146 21.4667 76.302 21.5794C76.1893 21.692 75.4008 22.3304 74.5371 23.0438C72.6972 24.4707 72.5469 24.2079 73.4482 21.0537C73.7486 20.0023 74.2743 17.937 74.6122 16.5101C74.9502 15.0456 75.4383 12.9428 75.7387 11.8163C77.2407 5.80829 78.2921 1.79042 78.4423 1.18962C78.6301 0.588812 78.1419 0.551262 72.0963 0.551262H65.5626L64.9243 3.25488C64.5488 4.75688 63.9855 7.04744 63.6851 8.32415C63.4223 9.63841 62.8966 11.7412 62.6337 13.0179C62.3333 14.3322 61.8076 16.6603 61.4321 18.1998C60.7937 21.2039 60.1178 24.0201 59.4044 27.0241C59.1415 28.038 58.8036 29.5776 58.6534 30.4037C58.4656 31.2298 58.0901 33.0697 57.7522 34.5342C57.4142 35.9611 57.0012 37.9137 56.8134 38.8525C56.513 40.5047 55.8371 43.3585 55.3114 45.236L55.0861 46.1747L36.1984 46.2874C25.7594 46.3625 17.3482 46.2874 17.3482 46.0996C17.3482 45.9119 17.6486 45.5364 18.0241 45.1984C20.4648 43.0956 27.1863 36.9749 28.3128 35.7733C29.1014 34.9848 29.8148 34.3464 29.9275 34.3464C30.0777 34.3464 30.6785 33.7832 31.3544 33.0697C32.0303 32.3938 34.2458 30.3286 36.311 28.4886C38.3763 26.6486 40.7044 24.5083 41.4554 23.7573C42.244 22.9687 42.9574 22.3304 43.0701 22.3304C43.1827 22.3304 43.8962 21.692 44.6847 20.8659C45.4357 20.0774 47.9516 17.7492 50.2046 15.7215C56.5881 10.0515 57.0763 9.52576 57.3391 7.42295C57.4893 6.44664 57.8273 4.79443 58.1277 3.78058C59.1415 0.17576 61.6198 0.551262 36.1608 0.551262H13.6307L13.2177 2.69162Z" fill="white"/>
<path d="M158.537 27.85C158.537 28.4508 158.274 29.7275 157.974 30.7414C156.885 34.2711 155.683 33.9707 170.365 33.9707H183.32L183.508 32.9193C183.62 32.356 183.883 31.192 184.071 30.2908C184.296 29.4271 184.447 28.3006 184.447 27.7749V26.8362H171.492H158.537V27.85Z" fill="white"/>
<path d="M191.206 27.4373C190.079 27.7377 189.103 28.1508 189.028 28.3385C188.953 28.5638 188.652 28.714 188.352 28.714C188.051 28.714 187.826 28.9769 187.826 29.2773C187.826 29.5777 187.676 29.8405 187.488 29.8405C187.225 29.8405 185.948 33.0699 185.948 33.7458C185.948 33.8584 190.079 33.9711 195.148 33.9711C204.01 33.9711 204.348 34.0086 204.348 34.6845C204.348 35.0976 204.198 35.8486 203.973 36.3743L203.597 37.3506H207.315H211.032L211.408 36.2241C212.046 34.4968 212.346 30.141 211.933 29.052C211.633 28.3385 211.032 27.9255 209.605 27.4749C206.977 26.6112 194.322 26.6112 191.206 27.4373Z" fill="white"/>
<path d="M220.194 27.3999C217.265 28.226 215.651 29.6153 215.125 31.7932C214.975 32.3189 214.75 33.0324 214.637 33.3703C214.412 33.896 215.35 33.9711 223.649 33.9711H232.886V34.985C232.886 35.5107 232.661 36.825 232.361 37.8764C232.06 38.9278 231.534 41.1432 231.159 42.7954C230.821 44.4476 230.408 46.2125 230.258 46.7382L229.995 47.677L224.362 47.7896L218.692 47.9023L219.18 46.0999C219.969 43.2836 220.87 39.1155 220.87 38.3645C220.87 37.8013 220.457 37.7262 217.34 37.7262H213.811L213.435 38.9278C213.247 39.6037 212.797 41.5187 212.421 43.1709C212.083 44.8231 211.558 47.0386 211.257 48.09C210.581 50.6059 210.619 52.0328 211.408 52.934C212.985 54.6988 213.51 54.8115 221.922 54.9241C234.426 55.1119 235.928 54.3609 237.542 46.926C237.918 45.2737 238.444 42.9832 238.707 41.8567C241.035 32.3189 241.297 30.7418 240.772 29.4651C239.908 27.3999 238.556 27.0995 229.882 26.9493C223.987 26.8742 221.734 26.9868 220.194 27.3999Z" fill="white"/>
<path d="M155.796 40.2418C155.458 41.6687 154.932 44.0719 154.594 45.6115C154.219 47.151 153.73 49.2538 153.468 50.3053C153.205 51.3191 152.867 52.8211 152.717 53.5721L152.491 54.999H165.446H178.401L178.739 53.5721C178.927 52.8211 179.264 51.3942 179.49 50.3804C179.753 49.404 179.94 48.4277 179.94 48.24C179.94 48.0147 176.523 47.8645 170.741 47.8645C163.644 47.8645 161.541 47.7518 161.541 47.3763C161.541 47.151 161.729 46.2874 161.954 45.4988L162.329 44.1095H167.849H173.369L173.895 42.1193C174.158 41.0679 174.496 39.6034 174.571 38.9275L174.758 37.7259H165.596H156.434L155.796 40.2418Z" fill="white"/>
<path d="M184.634 38.9275C184.146 41.481 183.62 43.9968 183.132 45.987C181.743 51.5444 182.043 53.1215 184.522 54.248C185.948 54.8864 187.037 54.999 193.872 54.999C201.757 54.999 203.822 54.6986 206.113 53.2342C207.164 52.5207 208.366 49.9673 208.967 46.9257L209.492 44.485H205.85H202.208L201.72 46.1747L201.231 47.8645H195.674C192.595 47.8645 190.079 47.7518 190.079 47.6016C190.079 47.3763 190.342 46.2874 191.731 40.8802C192.069 39.641 192.332 38.4018 192.332 38.1765C192.332 37.8761 191.243 37.7259 188.615 37.7259H184.897L184.634 38.9275Z" fill="white"/>
</svg>
