<svg width="281" height="93" viewBox="0 0 281 93" fill="none" xmlns="http://www.w3.org/2000/svg">
<path d="M189.262 0.260154C188.184 0.373611 183.703 0.770709 179.335 1.05435C139.058 4.17441 91.3492 14.6691 55.4969 28.3407C45.6829 32.0847 46.0233 31.8578 50.1644 32.2549C54.8729 32.7655 56.5747 34.2971 56.9718 38.4383L57.2555 41.3314H53.171H49.1433V39.6863C49.1433 38.495 48.803 37.871 47.952 37.6441C46.4204 37.1335 45.5695 37.9845 45.8531 39.6863C45.9666 40.7642 47.0444 41.5583 50.5048 43.3169C56.4046 46.3235 57.3689 47.7417 57.3689 53.1309C57.3689 57.1019 57.3122 57.3855 55.5536 58.9172C53.398 60.846 50.5048 61.7536 46.5906 61.6969C40.5206 61.6402 37.2304 58.9172 37.2304 53.9818V51.4858L41.3716 51.656L45.456 51.8262L45.6262 53.6415C45.8531 55.9106 47.7819 56.8183 48.9731 55.1731C50.5048 53.0742 49.8808 52.3367 44.0945 49.2734C38.9322 46.4937 37.6275 44.5082 37.9111 39.5161L38.138 35.7153L31.5008 39.119C27.8702 40.9343 22.2541 44.2246 19.0206 46.3803C-14.7327 68.7879 -2.70632 87.7919 48.2924 92.3869C58.39 93.2945 85.6196 93.1811 98.7806 92.1033C137.356 89.0399 177.122 81.098 211.103 69.6956C221.37 66.2352 233.51 61.6402 233.51 61.1296C233.51 60.9027 232.489 60.6191 231.298 60.3921C226.76 59.7114 225.341 55.8539 225.682 45.0188C225.909 36.623 226.816 33.9568 230.22 31.9713C232.83 30.4396 238.729 30.3829 241.339 31.9713C243.381 33.1626 245.423 36.8499 245.423 39.2325C245.423 40.7642 245.366 40.7642 241.509 40.7642H237.538L237.368 38.9488C237.254 37.6441 236.857 37.0201 236.12 36.8499C234.021 36.5095 233.51 38.2681 233.51 45.5293C233.51 54.0953 233.737 55.0597 235.723 54.8328C237.084 54.6626 237.198 54.4357 237.368 51.7127C237.481 49.2734 237.368 48.7061 236.687 48.7061C236.006 48.7061 235.779 48.1388 235.779 46.7206V44.7351H240.658H245.537L245.31 50.408C245.253 53.528 245.196 56.0808 245.31 56.0808C245.423 56.0808 248.373 54.4924 251.834 52.6204C273.163 40.8776 283.204 29.4752 280.595 19.9449C279.517 16.0873 274.808 11.4924 269.249 8.82613C260.626 4.74169 248.146 1.90527 232.546 0.543796C226.419 -0.023487 194.424 -0.193672 189.262 0.260154ZM150.12 32.5386C152.559 33.7866 153.523 35.5451 153.523 38.6085V41.3314H149.836C146.603 41.3314 146.149 41.218 146.149 40.2536C146.149 38.1547 145.468 37.3605 143.823 37.3605C142.461 37.3605 142.178 37.5874 142.178 38.6652C142.178 40.2536 143.426 41.4449 146.149 42.466C151.822 44.6217 154.147 47.4581 154.204 52.28C154.261 56.3077 152.956 58.747 149.95 60.1085C147.056 61.4132 140.76 61.5267 137.923 60.3921C135.314 59.2576 133.612 56.4212 133.782 53.528L133.952 51.2589H137.923C141.837 51.2589 141.894 51.2589 142.178 52.904C142.518 55.003 143.993 56.0241 145.241 55.003C147.397 53.2444 145.979 51.2589 141.043 49.0465C139.341 48.309 137.356 47.1177 136.675 46.3803C132.874 42.2391 133.668 34.9211 138.207 32.7087C140.76 31.404 147.794 31.3473 150.12 32.5386ZM107.8 33.5029C108.084 34.8644 109.786 45.3591 109.899 46.2101C109.899 46.4937 110.523 43.714 111.261 40.0834C111.998 36.3961 112.792 33.1626 112.963 32.8222C113.133 32.4818 115.856 32.2549 119.146 32.2549H124.989L125.386 36.623C125.556 39.0056 125.727 45.3591 125.727 50.8051V60.6191H122.039H118.352L118.238 51.0887L118.068 41.6151L116.083 50.9752L114.097 60.3354L110.296 60.5056C107.063 60.6191 106.496 60.5056 106.269 59.6547C106.099 59.0874 105.304 55.2866 104.453 51.2589C103.602 47.1744 102.695 43.3737 102.468 42.7496C102.184 42.0689 101.957 45.4159 101.957 51.0887L101.901 60.6191H98.1566H94.3558L94.7529 46.8908C94.9798 39.2892 95.3202 32.9356 95.4336 32.7087C95.6038 32.4251 98.3835 32.2549 101.617 32.2549C107.29 32.2549 107.573 32.3116 107.8 33.5029ZM170.542 42.9766C170.542 48.8763 170.712 54.0953 170.882 54.6059C171.279 55.6837 173.435 55.7971 174.399 54.8328C174.91 54.3222 175.08 50.9752 175.08 43.2035V32.2549H179.108H183.079L182.909 44.1111C182.738 57.499 182.512 58.123 178.2 60.2787C175.25 61.7536 169.691 61.7536 166.798 60.222C162.94 58.2365 162.6 56.8183 162.6 43.7708V32.2549H166.571H170.542V42.9766ZM205.487 40.3103L208.833 48.4225L209.004 40.3103L209.174 32.2549H212.804H216.492L216.378 46.2668L216.208 60.3354L211.897 60.5056L207.585 60.6758L203.955 52.6204L200.324 44.5082L200.154 52.5636L199.984 60.6191H196.353H192.666V46.437V32.2549H197.374H202.083L205.487 40.3103ZM82.2727 34.3539C82.8967 37.1335 86.584 59.2008 86.584 59.8816C86.584 60.3921 85.4494 60.6191 82.7265 60.6191H78.869L77.5642 51.9396C76.8267 47.2312 76.0893 42.6929 75.9191 41.8987C75.6922 41.0478 75.0114 44.2813 74.1605 50.408L72.6856 60.3354L68.8848 60.5056C65.3109 60.6758 65.0273 60.5623 65.0273 59.4845C65.0273 58.4634 68.6011 37.1903 69.2819 34.0702C69.5655 32.8789 69.8492 32.8222 75.7489 32.8222H81.9323L82.2727 34.3539Z" fill="white"/>
</svg>
