<svg width="139" height="138" viewBox="0 0 139 138" fill="none" xmlns="http://www.w3.org/2000/svg">
<path d="M66.6977 0.025561L65.9118 0.0632836L58.864 19.4275C54.9848 30.0779 51.8224 38.8106 51.835 38.8358C51.8476 38.8672 54.8591 38.8861 58.5182 38.8861C64.1954 38.8861 65.2831 38.8986 65.8803 38.9867C69.8978 39.5462 72.6641 41.9542 73.4249 45.5693C73.538 46.0848 73.5632 46.4306 73.5632 47.3108C73.5695 48.4865 73.494 49.1026 73.1985 50.2217C73.1105 50.5612 69.1056 61.6516 64.296 74.8671C59.4864 88.0826 55.5192 98.9718 55.4878 99.0661L55.4249 99.2422H48.1382C43.1714 99.2422 40.8514 99.2233 40.8514 99.1793C40.8514 99.1416 45.0261 87.6488 50.1312 73.6348C55.2363 59.6209 59.4298 48.1092 59.4486 48.0464C59.4738 47.9458 59.1846 47.9395 53.9852 47.9395H48.4902L39.2168 73.4085C34.118 87.4161 29.9119 98.9593 29.8679 99.0598L29.7924 99.2422H22.4931C18.482 99.2422 15.2001 99.2296 15.2001 99.217C15.2001 99.2044 20.8333 83.7193 27.7177 64.814C47.1574 11.4052 50.3575 2.60327 50.3324 2.57812C50.2758 2.51525 47.4592 3.39544 45.8497 3.97386C39.7072 6.18691 34.2437 9.04125 28.9688 12.7946C24.5364 15.9445 20.1983 19.9116 16.6273 24.0737C13.6723 27.519 10.818 31.6119 8.63637 35.5539C1.16101 49.0146 -1.57387 64.6757 0.871807 79.9722C2.81452 92.1629 8.03281 103.612 15.986 113.168C18.5323 116.224 21.8015 119.493 24.8445 122.027C26.8375 123.686 28.5162 124.938 30.7606 126.434C37.2112 130.747 44.2527 133.897 51.8538 135.858C52.4574 136.015 52.9667 136.122 52.9918 136.097C53.017 136.072 55.909 128.157 59.4172 118.512C62.9254 108.861 70.8409 87.1207 77.0022 70.1958C83.1636 53.2709 88.2498 39.301 88.3001 39.1501L88.3944 38.8861H102.421C117.277 38.8861 116.913 38.8798 118.164 39.169C120.257 39.6468 122.074 40.7848 123.25 42.344C124.885 44.513 125.281 47.512 124.338 50.6115C124.042 51.5671 108.777 93.4832 108.526 94.0239C107.853 95.4511 106.388 96.9977 104.81 97.947C103.98 98.4437 102.999 98.8272 101.899 99.0913C101.459 99.1982 100.78 99.2044 91.2425 99.2233L81.0574 99.2485L74.0284 118.581C70.1619 129.219 67.012 137.939 67.0372 137.958C67.1189 138.046 71.8657 137.983 73.4186 137.883C81.2523 137.355 88.495 135.67 95.5806 132.721C109.136 127.081 120.71 117.054 128.267 104.404C133.467 95.6962 136.591 86.3033 137.666 76.1308C137.93 73.6788 138.006 71.9876 138.006 69.0013C138.006 65.3359 137.855 62.9656 137.39 59.5266C136.157 50.4418 132.989 41.4386 128.223 33.5169C120.207 20.1757 107.941 9.92145 93.4115 4.42024C86.9358 1.96827 80.1835 0.534816 73.0413 0.094719C71.7525 0.0129868 67.7476 -0.0310228 66.6977 0.025561Z" fill="white"/>
<path d="M99.73 48.0779C99.6168 48.3545 84.4209 90.0568 84.4209 90.0945C84.4209 90.1134 86.8917 90.126 89.9095 90.126H95.3919L103.056 69.0768C107.274 57.5023 110.732 47.9962 110.751 47.9522C110.77 47.8956 109.651 47.8767 105.3 47.8767H99.818L99.73 48.0779Z" fill="white"/>
</svg>
