<svg width="271" height="50" viewBox="0 0 271 50" fill="none" xmlns="http://www.w3.org/2000/svg">
<path d="M1.14467 0.946061C0.604135 1.35147 0.19873 10.5406 0.19873 21.2163V40.5405H9.65816H19.1176V28.3784V16.2163H24.523H29.9284V28.3784V40.5405H38.7121H47.4959V20.2703V0.000118256H24.7932C12.2257 0.000118256 1.55008 0.405522 1.14467 0.946061Z" fill="white"/>
<path d="M66.4146 20.2703V40.5405H70.4686H74.3875L74.7929 28.1081L75.1983 15.8109L84.6577 28.1081C92.4955 38.5135 94.6577 40.5405 97.7658 40.5405H101.55V20.2703V0.000118256H97.4955H93.5766L93.1712 12.4325L92.7658 25L83.3064 12.4325C75.4686 2.02714 73.3064 0.000118256 70.1983 0.000118256H66.4146V20.2703Z" fill="white"/>
<path d="M168.441 18.5136C164.252 28.7838 160.468 37.973 160.063 38.7838C159.658 40 160.739 40.5405 163.576 40.5405C167.225 40.5405 168.171 39.8649 169.928 35.8108C171.82 31.2162 171.955 31.0811 179.657 31.0811C187.36 31.0811 187.63 31.2162 189.793 35.8108C191.684 39.7297 192.766 40.5405 196.144 40.5405C198.306 40.5405 200.198 40.2703 200.198 40.1351C200.198 39.8649 196.549 30.8108 192.225 20.1352C184.657 1.75687 183.982 0.675792 180.198 0.270388C176.279 -0.135016 176.144 0.135253 168.441 18.5136ZM182.36 15.8109C183.036 17.973 184.117 20.6757 184.657 21.8919C185.468 24.0541 184.793 24.3244 179.928 24.3244C175.063 24.3244 174.387 24.0541 175.198 21.8919C175.739 20.6757 176.82 17.973 177.495 15.8109C178.171 13.7839 179.387 12.1622 179.928 12.1622C180.468 12.1622 181.685 13.7839 182.36 15.8109Z" fill="white"/>
<path d="M141.009 6.0808C141.55 8.37808 141.144 9.45916 139.928 9.45916C138.712 9.45916 138.036 10.9456 138.036 13.5132C138.036 15.6754 138.577 17.5672 139.252 17.5672C139.793 17.5672 140.739 21.7564 141.009 27.0267C141.82 38.6483 143.442 40.8104 150.739 40.2699C155.604 39.8645 156.279 39.4591 156.685 36.351C156.955 33.5131 156.55 32.8375 153.982 32.9726C151.144 33.1077 150.874 32.4321 150.469 25.2699C150.063 17.8375 150.198 17.5672 153.577 17.5672C156.414 17.5672 156.955 16.8916 156.955 13.5132C156.955 10.1348 156.414 9.45916 153.577 9.45916C150.874 9.45916 150.198 8.78349 150.198 6.0808C150.198 3.10783 149.658 2.70243 145.333 2.70243C140.874 2.70243 140.469 2.9727 141.009 6.0808Z" fill="white"/>
<path d="M114.117 10.8106C110.198 12.4322 105.604 19.8646 105.604 24.7294C105.604 29.5943 108.712 35.6754 112.631 38.378C116.55 41.2159 127.09 41.0807 131.009 38.378C133.982 36.351 133.982 36.0808 131.82 33.6483C130.198 31.8916 128.982 31.4862 128.036 32.4321C125.739 34.7294 118.306 33.9186 115.739 31.0808C113.306 28.3781 113.442 28.3781 124.252 28.3781H135.333V24.324C135.333 13.1079 124.928 6.48626 114.117 10.8106ZM125.874 19.0538C127.901 22.8376 127.225 23.243 119.928 22.7024C113.712 22.297 113.712 22.297 115.739 19.1889C118.442 15.4052 123.982 15.27 125.874 19.0538Z" fill="white"/>
<path d="M202.901 29.7298V50H206.955C210.874 50 211.009 49.8649 211.009 43.1081C211.009 36.3514 211.009 36.3514 213.982 38.3784C218.847 41.7568 225.198 41.0811 230.198 36.6217C234.252 32.973 234.658 31.892 234.658 25.0001C234.658 18.1082 234.252 17.0271 230.198 13.3785C225.198 8.91905 218.847 8.24338 213.982 11.6217C211.279 13.5136 211.009 13.5136 211.009 11.6217C211.009 10.1353 209.658 9.45959 206.955 9.45959H202.901V29.7298ZM224.928 20.5406C227.225 23.6487 227.36 24.5947 225.874 28.2433C221.82 38.2433 209.117 32.8379 211.82 22.1623C213.577 15.4055 220.468 14.5947 224.928 20.5406Z" fill="white"/>
<path d="M239.387 29.7298V50H243.441C247.36 50 247.495 49.8649 247.495 42.973C247.495 36.3514 247.63 36.2163 249.928 38.2433C253.982 42.0271 261.955 41.2162 266.549 36.6217C269.793 33.3784 270.468 31.4865 270.468 26.3514C270.468 19.3244 267.63 12.9731 263.847 10.8109C260.063 8.78392 253.982 9.18932 250.468 11.6217C247.766 13.5136 247.495 13.5136 247.495 11.6217C247.495 10.1353 246.144 9.45959 243.441 9.45959H239.387V29.7298ZM259.657 18.919C264.657 23.919 261.684 33.7838 255.198 33.7838C247.901 33.7838 244.522 22.5677 250.468 18.3785C254.522 15.5407 256.414 15.6758 259.657 18.919Z" fill="white"/>
</svg>
