<svg width="182" height="116" viewBox="0 0 182 116" fill="none" xmlns="http://www.w3.org/2000/svg">
<g clip-path="url(#clip0_68_130)">
<path d="M170.123 102.494H124.133C122.46 102.492 120.856 101.831 119.672 100.655C118.489 99.4794 117.824 97.8855 117.822 96.223V24.1425C117.824 22.48 118.489 20.8861 119.672 19.7105C120.856 18.5349 122.46 17.8737 124.133 17.8718H170.123C171.796 17.8737 173.4 18.5349 174.583 19.7105C175.767 20.8861 176.432 22.48 176.434 24.1425V96.223C176.432 97.8855 175.767 99.4794 174.583 100.655C173.4 101.831 171.796 102.492 170.123 102.494Z" fill="#E6E6E6"/>
<path d="M170.886 21.6138H124.046C123.522 21.6144 123.02 21.8214 122.65 22.1894C122.28 22.5574 122.071 23.0563 122.071 23.5768V96.5971C122.071 97.1175 122.28 97.6163 122.65 97.9843C123.02 98.3522 123.523 98.5593 124.046 98.5601H170.886C171.409 98.5595 171.911 98.3524 172.282 97.9845C172.652 97.6165 172.861 97.1175 172.861 96.5971V23.5768C172.861 23.0563 172.652 22.5574 172.282 22.1894C171.911 21.8214 171.409 21.6144 170.886 21.6138Z" fill="white"/>
<path d="M125.257 17.8718C125.257 17.7446 125.308 17.6227 125.399 17.5328C125.489 17.4428 125.612 17.3922 125.74 17.3921H129.023C129.151 17.3921 129.274 17.4426 129.364 17.5326C129.455 17.6226 129.506 17.7446 129.506 17.8718C129.506 17.999 129.455 18.1211 129.364 18.211C129.274 18.301 129.151 18.3515 129.023 18.3515H125.74C125.612 18.3514 125.489 18.3008 125.399 18.2108C125.308 18.1209 125.257 17.999 125.257 17.8718Z" fill="#E6E6E6"/>
<path d="M130.664 17.8718C130.665 17.7446 130.716 17.6227 130.806 17.5328C130.897 17.4428 131.019 17.3922 131.147 17.3921H134.43C134.558 17.3921 134.681 17.4426 134.772 17.5326C134.862 17.6226 134.913 17.7446 134.913 17.8718C134.913 17.999 134.862 18.1211 134.772 18.211C134.681 18.301 134.558 18.3515 134.43 18.3515H131.147C131.019 18.3514 130.897 18.3008 130.806 18.2109C130.716 18.1209 130.665 17.999 130.664 17.8718Z" fill="#E6E6E6"/>
<path d="M163.109 17.8718C163.109 17.7446 163.16 17.6227 163.25 17.5328C163.341 17.4428 163.463 17.3922 163.591 17.3921H166.874C167.003 17.3921 167.125 17.4426 167.216 17.5326C167.306 17.6226 167.357 17.7446 167.357 17.8718C167.357 17.999 167.306 18.1211 167.216 18.211C167.125 18.301 167.003 18.3515 166.874 18.3515H163.591C163.463 18.3514 163.341 18.3008 163.25 18.2109C163.16 18.1209 163.109 17.999 163.109 17.8718Z" fill="#E6E6E6"/>
<path d="M153.957 97.0557C153.957 97.5604 153.947 98.0632 153.924 98.5601H124.046C123.523 98.5593 123.02 98.3523 122.65 97.9843C122.28 97.6163 122.071 97.1175 122.071 96.5971V59.8433C130.968 61.2716 139.063 65.8006 144.906 72.6193C150.748 79.4379 153.957 88.1006 153.957 97.0557Z" fill="#F2F2F2"/>
<path d="M152.942 40.3784H141.799C141.292 40.3784 140.881 40.7868 140.881 41.2907V42.429C140.881 42.9328 141.292 43.3413 141.799 43.3413H152.942C153.449 43.3413 153.86 42.9328 153.86 42.429V41.2907C153.86 40.7868 153.449 40.3784 152.942 40.3784Z" fill="#339900"/>
<path d="M160.024 46.3042H134.717C134.21 46.3042 133.799 46.7126 133.799 47.2164V48.3548C133.799 48.8586 134.21 49.267 134.717 49.267H160.024C160.531 49.267 160.942 48.8586 160.942 48.3548V47.2164C160.942 46.7126 160.531 46.3042 160.024 46.3042Z" fill="#E6E6E6"/>
<path d="M160.024 52.2297H134.717C134.21 52.2297 133.799 52.6382 133.799 53.142V54.2803C133.799 54.7841 134.21 55.1926 134.717 55.1926H160.024C160.531 55.1926 160.942 54.7841 160.942 54.2803V53.142C160.942 52.6382 160.531 52.2297 160.024 52.2297Z" fill="#E6E6E6"/>
<path d="M155.691 93.5696C155.546 93.5762 155.402 93.5384 155.279 93.4612C155.156 93.384 155.061 93.2712 155.005 93.138C154.949 93.0049 154.935 92.8578 154.966 92.7168C154.997 92.5758 155.071 92.4476 155.177 92.3496L155.226 92.1579C155.219 92.1425 155.213 92.1272 155.206 92.1119C155.06 91.7688 154.815 91.4763 154.502 91.2711C154.19 91.0659 153.823 90.9572 153.448 90.9586C153.073 90.96 152.707 91.0714 152.395 91.2789C152.084 91.4864 151.841 91.7807 151.697 92.1248C151.123 93.4983 150.393 94.8741 150.213 96.3263C150.134 96.9682 150.167 97.6189 150.312 98.2495C148.964 95.3278 148.264 92.1522 148.259 88.9381C148.259 88.1315 148.304 87.3256 148.394 86.5241C148.469 85.867 148.572 85.2145 148.705 84.5668C149.427 81.0522 150.978 77.7581 153.231 74.9549C154.321 74.3638 155.203 73.4549 155.757 72.3505C155.958 71.9536 156.1 71.5298 156.179 71.0924C156.056 71.1085 155.931 71.1185 155.808 71.1265C155.769 71.1285 155.729 71.1305 155.691 71.1325L155.676 71.1332C155.541 71.1392 155.407 71.1063 155.29 71.0384C155.174 70.9704 155.079 70.8704 155.018 70.7504C154.957 70.6303 154.933 70.4954 154.947 70.3617C154.962 70.228 155.015 70.1014 155.1 69.997C155.153 69.9321 155.206 69.8672 155.259 69.8023C155.34 69.7021 155.423 69.604 155.503 69.5038C155.513 69.4943 155.521 69.4842 155.53 69.4737C155.622 69.3595 155.715 69.2474 155.808 69.1332C155.638 68.8721 155.411 68.6534 155.142 68.4941C154.213 67.9532 152.931 68.3278 152.259 69.1632C151.586 69.9986 151.459 71.1706 151.693 72.2143C151.923 73.1024 152.303 73.9451 152.818 74.7064C152.767 74.7705 152.715 74.8326 152.665 74.8967C151.743 76.074 150.94 77.3381 150.267 78.671C150.431 77.1778 150.235 75.6673 149.697 74.2637C149.151 72.9556 148.128 71.854 147.227 70.7231C146.145 69.3648 143.927 69.9576 143.736 71.6795C143.734 71.6962 143.732 71.7128 143.731 71.7295C143.864 71.8045 143.995 71.8841 144.124 71.9683C144.285 72.0752 144.409 72.2279 144.481 72.4064C144.554 72.5849 144.57 72.7809 144.528 72.9687C144.486 73.1565 144.388 73.3273 144.247 73.4589C144.105 73.5904 143.928 73.6765 143.736 73.7058L143.717 73.7088C143.764 74.1879 143.848 74.6627 143.969 75.1291C144.317 76.4312 144.932 77.6479 145.775 78.7027C146.619 79.7576 147.672 80.628 148.87 81.2593C148.949 81.2994 149.025 81.3394 149.104 81.3775C148.428 83.2821 148.003 85.266 147.842 87.2793C147.75 88.4671 147.756 89.6603 147.858 90.8472L147.852 90.8051C147.594 89.4853 146.885 88.2944 145.846 87.4335C144.302 86.1734 142.121 85.7094 140.455 84.6966C140.278 84.5836 140.072 84.5234 139.862 84.5229C139.652 84.5224 139.446 84.5816 139.268 84.6937C139.09 84.8058 138.949 84.9659 138.86 85.1553C138.771 85.3447 138.738 85.5554 138.766 85.7626C138.768 85.7774 138.771 85.7921 138.773 85.8069C139.021 85.9073 139.263 86.0231 139.497 86.1534C139.63 86.2284 139.761 86.308 139.89 86.3922C140.051 86.4991 140.175 86.6518 140.247 86.8303C140.32 87.0088 140.336 87.2048 140.294 87.3926C140.252 87.5804 140.154 87.7513 140.013 87.8828C139.871 88.0143 139.693 88.1004 139.502 88.1297L139.483 88.1327C139.468 88.1347 139.456 88.1367 139.442 88.1387C139.866 89.1452 140.462 90.0715 141.202 90.8773C142.117 91.8526 143.223 92.632 144.451 93.1676C145.68 93.7033 147.006 93.984 148.348 93.9924H148.35C148.714 95.5651 149.242 97.0958 149.924 98.56H155.55C155.57 98.4979 155.588 98.4338 155.606 98.3717C155.085 98.4042 154.563 98.3733 154.05 98.2796C154.467 97.7707 154.884 97.2579 155.302 96.749C155.311 96.7395 155.32 96.7295 155.328 96.719C155.54 96.4585 155.753 96.2001 155.965 95.9397L155.965 95.9394C155.976 95.1411 155.884 94.3445 155.691 93.5696ZM149.249 80.9788L149.252 80.9749L149.249 80.9828V80.9788ZM148.003 92.1393L147.955 92.0312C147.957 91.9531 147.957 91.8749 147.955 91.7948C147.955 91.7727 147.951 91.7507 147.951 91.7287C147.969 91.8669 147.985 92.0051 148.005 92.1434L148.003 92.1393Z" fill="#CCCCCC"/>
<path d="M168.544 28.0603H126.388C126.296 28.0583 126.21 28.0209 126.146 27.9561C126.082 27.8913 126.046 27.8042 126.046 27.7136C126.046 27.623 126.082 27.5359 126.146 27.4711C126.21 27.4063 126.296 27.3689 126.388 27.3669H168.544C168.636 27.3689 168.722 27.4063 168.786 27.4711C168.85 27.5359 168.886 27.623 168.886 27.7136C168.886 27.8042 168.85 27.8913 168.786 27.9561C168.722 28.0209 168.636 28.0583 168.544 28.0603Z" fill="#CACACA"/>
<path d="M128.637 26.3647C129.203 26.3647 129.662 25.8983 129.662 25.3231C129.662 24.7478 129.203 24.2815 128.637 24.2815C128.07 24.2815 127.611 24.7478 127.611 25.3231C127.611 25.8983 128.07 26.3647 128.637 26.3647Z" fill="#3F3D56"/>
<path d="M132.179 26.3647C132.745 26.3647 133.205 25.8983 133.205 25.3231C133.205 24.7478 132.745 24.2815 132.179 24.2815C131.613 24.2815 131.154 24.7478 131.154 25.3231C131.154 25.8983 131.613 26.3647 132.179 26.3647Z" fill="#3F3D56"/>
<path d="M135.722 26.3647C136.288 26.3647 136.747 25.8983 136.747 25.3231C136.747 24.7478 136.288 24.2815 135.722 24.2815C135.155 24.2815 134.696 24.7478 134.696 25.3231C134.696 25.8983 135.155 26.3647 135.722 26.3647Z" fill="#3F3D56"/>
<path d="M166.897 24.6838H164.602C164.556 24.6847 164.513 24.7033 164.481 24.7356C164.449 24.7679 164.431 24.8113 164.431 24.8565C164.431 24.9017 164.449 24.9451 164.481 24.9774C164.513 25.0097 164.556 25.0282 164.602 25.0291H166.897C166.942 25.0282 166.985 25.0097 167.017 24.9774C167.049 24.9451 167.067 24.9017 167.067 24.8565C167.067 24.8113 167.049 24.7679 167.017 24.7356C166.985 24.7033 166.942 24.6847 166.897 24.6838Z" fill="#3F3D56"/>
<path d="M166.897 25.332H164.602C164.556 25.3329 164.513 25.3515 164.481 25.3838C164.449 25.4161 164.431 25.4595 164.431 25.5047C164.431 25.5499 164.449 25.5933 164.481 25.6256C164.513 25.6578 164.556 25.6764 164.602 25.6773H166.897C166.942 25.6764 166.985 25.6578 167.017 25.6256C167.049 25.5933 167.067 25.5499 167.067 25.5047C167.067 25.4595 167.049 25.4161 167.017 25.3838C166.985 25.3515 166.942 25.3329 166.897 25.332Z" fill="#3F3D56"/>
<path d="M166.897 25.9792H164.602C164.556 25.9801 164.513 25.9987 164.481 26.031C164.449 26.0633 164.431 26.1067 164.431 26.1519C164.431 26.1971 164.449 26.2405 164.481 26.2728C164.513 26.3051 164.556 26.3236 164.602 26.3245H166.897C166.942 26.3236 166.985 26.3051 167.017 26.2728C167.049 26.2405 167.067 26.1971 167.067 26.1519C167.067 26.1067 167.049 26.0633 167.017 26.031C166.985 25.9987 166.942 25.9801 166.897 25.9792Z" fill="#3F3D56"/>
<path d="M98.4974 59.8706H74.056C73.7102 59.8711 73.3788 60.0081 73.1347 60.2513C72.8905 60.4945 72.7535 60.8242 72.7539 61.1677V99.5312H99.8029V61.1677C99.803 60.9974 99.7693 60.8287 99.7037 60.6712C99.6381 60.5138 99.542 60.3708 99.4207 60.2503C99.2995 60.1299 99.1555 60.0343 98.9971 59.9692C98.8387 59.904 98.6689 59.8705 98.4974 59.8706ZM86.3589 81.6683C85.5946 81.6647 84.8626 81.3615 84.3221 80.8244C83.7816 80.2874 83.4764 79.5601 83.4728 78.8006V74.3757C83.4735 73.6156 83.7778 72.8868 84.319 72.3495C84.8602 71.8123 85.5939 71.5105 86.3589 71.5105C87.124 71.5105 87.8577 71.8123 88.3989 72.3495C88.94 72.8868 89.2444 73.6156 89.2451 74.3757V78.8006C89.2415 79.5601 88.9363 80.2874 88.3958 80.8245C87.8553 81.3615 87.1233 81.6648 86.3589 81.6683Z" fill="#E6E6E6"/>
<path d="M72.67 98.3042V102.006C72.6704 102.197 72.7472 102.381 72.8837 102.517C73.0202 102.652 73.2052 102.729 73.3982 102.729H99.1585C99.3514 102.728 99.536 102.652 99.6724 102.516C99.8088 102.381 99.8858 102.197 99.8868 102.006V98.3042L72.67 98.3042Z" fill="#CCCCCC"/>
<path d="M138.97 0H34.4927C33.595 0.0014189 32.7346 0.356348 32.0999 0.987008C31.4652 1.61767 31.1079 2.47262 31.1065 3.36451V73.4159C31.1074 74.3079 31.4644 75.1632 32.0992 75.794C32.7341 76.4248 33.5949 76.7795 34.4927 76.7804H138.97C139.868 76.7795 140.729 76.4248 141.364 75.794C141.998 75.1632 142.355 74.3079 142.356 73.4159V3.36451C142.355 2.47262 141.998 1.61767 141.363 0.987008C140.728 0.356348 139.868 0.00141834 138.97 0Z" fill="#E6E6E6"/>
<path d="M138.098 2.43018H35.3656C34.885 2.43121 34.4244 2.62163 34.0849 2.95966C33.7454 3.29769 33.5547 3.75572 33.5547 4.23326V72.5483C33.5555 73.0253 33.7466 73.4825 34.086 73.8197C34.4254 74.157 34.8856 74.3468 35.3656 74.3476H138.098C138.578 74.3468 139.038 74.157 139.378 73.8197C139.717 73.4825 139.908 73.0253 139.909 72.5483V4.23326C139.909 3.75572 139.718 3.29769 139.379 2.95966C139.039 2.62163 138.579 2.43121 138.098 2.43018Z" fill="white"/>
<path d="M139.909 4.23326V72.5483C139.908 73.0253 139.717 73.4825 139.378 73.8197C139.038 74.157 138.578 74.3468 138.098 74.3476H101.872C97.8649 70.6549 94.5771 66.2595 92.174 61.3819C92.0159 61.0677 91.8653 60.7497 91.7222 60.428C89.5327 55.7071 88.2068 50.6364 87.8067 45.4535C87.7804 45.1355 87.7578 44.8175 87.7427 44.4958C87.6938 43.6728 87.6712 42.8386 87.6712 42.0007C87.664 36.4277 88.7232 30.9042 90.7923 25.7243C90.9165 25.4026 91.0483 25.0846 91.1838 24.7667C95.348 15.0453 102.872 7.12319 112.399 2.43018H138.098C138.579 2.43121 139.039 2.62163 139.379 2.95966C139.718 3.29769 139.909 3.75571 139.909 4.23326Z" fill="#339900"/>
<path d="M132.934 11.8424H36.8075C36.7075 11.8403 36.6124 11.7993 36.5424 11.7283C36.4725 11.6573 36.4333 11.5619 36.4333 11.4626C36.4333 11.3632 36.4725 11.2678 36.5424 11.1968C36.6124 11.1258 36.7075 11.0849 36.8075 11.0828H132.934C133.034 11.0849 133.129 11.1258 133.199 11.1968C133.269 11.2678 133.308 11.3632 133.308 11.4626C133.308 11.5619 133.269 11.6573 133.199 11.7283C133.129 11.7993 133.034 11.8403 132.934 11.8424Z" fill="#CACACA"/>
<path d="M43.351 9.1434C44.5883 9.1434 45.5913 8.1246 45.5913 6.86784C45.5913 5.61109 44.5883 4.59229 43.351 4.59229C42.1137 4.59229 41.1107 5.61109 41.1107 6.86784C41.1107 8.1246 42.1137 9.1434 43.351 9.1434Z" fill="#3F3D56"/>
<path d="M51.0901 9.1434C52.3273 9.1434 53.3303 8.1246 53.3303 6.86784C53.3303 5.61109 52.3273 4.59229 51.0901 4.59229C49.8528 4.59229 48.8498 5.61109 48.8498 6.86784C48.8498 8.1246 49.8528 9.1434 51.0901 9.1434Z" fill="#3F3D56"/>
<path d="M58.8292 9.1434C60.0665 9.1434 61.0695 8.1246 61.0695 6.86784C61.0695 5.61109 60.0665 4.59229 58.8292 4.59229C57.5919 4.59229 56.5889 5.61109 56.5889 6.86784C56.5889 8.1246 57.5919 9.1434 58.8292 9.1434Z" fill="#3F3D56"/>
<path d="M128.274 5.15625H122.777C122.668 5.15839 122.564 5.20291 122.488 5.28024C122.411 5.35757 122.369 5.46155 122.369 5.56985C122.369 5.67814 122.411 5.78212 122.488 5.85945C122.564 5.93678 122.668 5.9813 122.777 5.98344H128.274C128.383 5.9813 128.487 5.93678 128.563 5.85945C128.64 5.78212 128.682 5.67814 128.682 5.56985C128.682 5.46155 128.64 5.35757 128.563 5.28024C128.487 5.20291 128.383 5.15839 128.274 5.15625Z" fill="#3F3D56"/>
<path d="M128.274 6.70898H122.777C122.668 6.71113 122.564 6.75564 122.488 6.83298C122.411 6.91031 122.369 7.01428 122.369 7.12258C122.369 7.23088 122.411 7.33486 122.488 7.41219C122.564 7.48952 122.668 7.53403 122.777 7.53618H128.274C128.383 7.53403 128.487 7.48952 128.563 7.41219C128.64 7.33486 128.682 7.23088 128.682 7.12258C128.682 7.01428 128.64 6.91031 128.563 6.83298C128.487 6.75564 128.383 6.71113 128.274 6.70898Z" fill="#3F3D56"/>
<path d="M128.274 8.25928H122.777C122.668 8.26142 122.564 8.30594 122.488 8.38327C122.411 8.4606 122.369 8.56458 122.369 8.67287C122.369 8.78117 122.411 8.88515 122.488 8.96248C122.564 9.03981 122.668 9.08433 122.777 9.08647H128.274C128.383 9.08433 128.487 9.03981 128.563 8.96248C128.64 8.88515 128.682 8.78117 128.682 8.67287C128.682 8.56458 128.64 8.4606 128.563 8.38327C128.487 8.30594 128.383 8.26142 128.274 8.25928Z" fill="#3F3D56"/>
<path d="M66.2402 34.0322H52.7978C52.2908 34.0322 51.8797 34.4407 51.8797 34.9445V36.3663C51.8797 36.8701 52.2908 37.2785 52.7978 37.2785H66.2402C66.7473 37.2785 67.1583 36.8701 67.1583 36.3663V34.9445C67.1583 34.4407 66.7473 34.0322 66.2402 34.0322Z" fill="#339900"/>
<path d="M73.9997 40.5249H45.0383C44.5312 40.5249 44.1202 40.9333 44.1202 41.4371V42.8589C44.1202 43.3628 44.5312 43.7712 45.0383 43.7712H73.9997C74.5068 43.7712 74.9178 43.3628 74.9178 42.8589V41.4371C74.9178 40.9333 74.5068 40.5249 73.9997 40.5249Z" fill="#E6E6E6"/>
<path d="M73.9997 47.0173H45.0383C44.5312 47.0173 44.1202 47.4258 44.1202 47.9296V49.3514C44.1202 49.8552 44.5312 50.2636 45.0383 50.2636H73.9997C74.5068 50.2636 74.9178 49.8552 74.9178 49.3514V47.9296C74.9178 47.4258 74.5068 47.0173 73.9997 47.0173Z" fill="#E6E6E6"/>
<path d="M46.6339 70.431C46.6362 71.7681 46.3964 73.0948 45.9261 74.3476H35.3656C34.8856 74.3468 34.4254 74.157 34.086 73.8197C33.7466 73.4824 33.5555 73.0253 33.5547 72.5483V59.3507C34.1447 59.2558 34.7415 59.2083 35.3392 59.2085C36.8225 59.2084 38.2913 59.4986 39.6616 60.0626C41.032 60.6265 42.2772 61.4532 43.326 62.4953C44.3748 63.5374 45.2068 64.7746 45.7743 66.1362C46.3419 67.4978 46.634 68.9572 46.6339 70.431Z" fill="#339900"/>
<path opacity="0.2" d="M140.003 25.7244V24.7668H123.848V13.6677H122.888V24.7668H104.372V13.6677H103.412V24.7668H91.1839C91.0483 25.0847 90.9165 25.4027 90.7923 25.7244H103.412V44.4959H87.7427C87.7578 44.8176 87.7804 45.1356 87.8067 45.4536H103.412V60.4281H91.7222C91.8653 60.7498 92.0159 61.0678 92.174 61.382H103.412V73.9699H104.372V61.382H122.888V73.9699H123.848V61.382H140.003V60.4281H123.848C123.848 58.4616 124.238 56.5144 124.995 54.6976C125.753 52.8808 126.863 51.23 128.262 49.8395C129.662 48.449 131.323 47.346 133.152 46.5934C134.98 45.8409 136.94 45.4535 138.919 45.4535H140.003V44.4959H123.848V25.7244H140.003ZM122.888 60.4281H104.372V45.4535H122.888V60.4281ZM122.888 44.4959H104.372V44.1218C104.372 39.2425 106.323 34.5631 109.795 31.1129C113.268 27.6627 117.977 25.7244 122.888 25.7244L122.888 44.4959Z" fill="black"/>
<path d="M126.996 67.2602C126.79 67.2696 126.586 67.2158 126.411 67.1062C126.237 66.9966 126.101 66.8363 126.021 66.6472C125.942 66.4581 125.923 66.2493 125.966 66.049C126.01 65.8487 126.115 65.6667 126.267 65.5275C126.292 65.4274 126.31 65.3554 126.336 65.2552C126.326 65.2334 126.317 65.2116 126.308 65.1899C125.382 62.9954 122.243 63.0105 121.324 65.2083C120.509 67.1589 119.472 69.1128 119.216 71.1753C119.103 72.087 119.151 73.0111 119.356 73.9066C117.442 69.7571 116.448 65.2471 116.441 60.6824C116.441 59.5369 116.505 58.3923 116.633 57.2539C116.739 56.3207 116.886 55.3941 117.074 54.4742C118.1 49.4827 120.303 44.8043 123.503 40.8232C125.051 39.9837 126.303 38.6928 127.091 37.1245C127.376 36.5607 127.577 35.9589 127.689 35.3377C127.514 35.3605 127.337 35.3747 127.162 35.3861C127.108 35.3889 127.05 35.3917 126.996 35.3946L126.975 35.3955C126.784 35.4041 126.593 35.3573 126.427 35.2609C126.261 35.1644 126.127 35.0224 126.041 34.8519C125.954 34.6814 125.919 34.4897 125.94 34.2999C125.96 34.1101 126.036 33.9302 126.157 33.7819C126.232 33.6897 126.308 33.5975 126.383 33.5054C126.498 33.3631 126.615 33.2237 126.73 33.0815C126.743 33.068 126.755 33.0537 126.767 33.0388C126.899 32.8766 127.03 32.7173 127.162 32.5551C126.922 32.1843 126.598 31.8737 126.217 31.6475C124.897 30.8793 123.076 31.4114 122.122 32.5978C121.166 33.7842 120.986 35.4487 121.318 36.931C121.601 38.1999 122.22 39.3636 122.916 40.4703C122.844 40.5614 122.77 40.6496 122.698 40.7406C121.389 42.4126 120.249 44.2079 119.293 46.101C119.525 43.9802 119.248 41.835 118.483 39.8416C117.708 37.9838 116.255 36.4192 114.976 34.8132C113.439 32.8841 110.288 33.726 110.018 36.1714C110.015 36.1951 110.012 36.2188 110.01 36.2424C110.2 36.349 110.386 36.462 110.568 36.5816C110.797 36.7334 110.974 36.9502 111.076 37.2037C111.179 37.4573 111.202 37.7356 111.142 38.0024C111.083 38.2691 110.944 38.5118 110.743 38.6986C110.542 38.8853 110.29 39.0076 110.018 39.0492L109.99 39.0535C110.058 39.7339 110.177 40.4083 110.348 41.0707C110.842 42.92 111.716 44.6478 112.913 46.146C114.111 47.6441 115.608 48.8803 117.309 49.7769C117.421 49.8338 117.529 49.8907 117.641 49.9447C116.68 52.6497 116.078 55.4672 115.849 58.3266C115.719 60.0135 115.726 61.7081 115.871 63.3938L115.863 63.334C115.496 61.4596 114.49 59.7682 113.014 58.5456C110.821 56.756 107.723 56.097 105.358 54.6585C104.219 53.9661 102.76 54.8609 102.959 56.1726C102.962 56.1935 102.966 56.2144 102.969 56.2354C103.321 56.3781 103.665 56.5425 103.997 56.7276C104.187 56.8341 104.373 56.9472 104.555 57.0667C104.783 57.2185 104.961 57.4353 105.063 57.6889C105.165 57.9424 105.188 58.2208 105.129 58.4875C105.07 58.7542 104.93 58.9969 104.73 59.1837C104.529 59.3705 104.276 59.4927 104.005 59.5343L103.977 59.5386C103.957 59.5414 103.939 59.5443 103.919 59.5471C104.522 60.9765 105.368 62.2921 106.419 63.4365C107.718 64.8216 109.289 65.9285 111.034 66.6893C112.779 67.4501 114.662 67.8487 116.567 67.8607H116.57C117.087 70.0941 117.837 72.2681 118.807 74.3476H126.796C126.824 74.2594 126.85 74.1684 126.876 74.0802C126.136 74.1264 125.394 74.0824 124.665 73.9493C125.258 73.2266 125.851 72.4983 126.443 71.7756C126.457 71.7621 126.469 71.7478 126.481 71.7329C126.781 71.3631 127.085 70.996 127.385 70.6262L127.386 70.6257C127.402 69.492 127.271 68.3609 126.996 67.2603L126.996 67.2602ZM117.847 49.3785L117.851 49.3729L117.847 49.3842V49.3785ZM116.078 65.2289L116.009 65.0753C116.012 64.9643 116.012 64.8534 116.009 64.7396C116.009 64.7082 116.003 64.6769 116.003 64.6456C116.029 64.842 116.052 65.0383 116.081 65.2346L116.078 65.2289Z" fill="#2F2E41"/>
<path d="M55.8563 48.6949V38.0264C55.8563 36.3888 55.2016 34.8183 54.0361 33.6603C52.8707 32.5023 51.2901 31.8518 49.642 31.8518H26.894C25.2459 31.8518 23.6652 32.5023 22.4998 33.6603C21.3344 34.8183 20.6797 36.3888 20.6797 38.0264V96.5544C20.6797 98.192 21.3344 99.7626 22.4998 100.921C23.6652 102.078 25.2459 102.729 26.894 102.729H49.642C50.458 102.729 51.2661 102.569 52.0201 102.259C52.774 101.949 53.4591 101.494 54.0361 100.921C54.6132 100.347 55.0709 99.6665 55.3832 98.9173C55.6955 98.1682 55.8563 97.3653 55.8563 96.5544V56.2889C55.9602 56.2889 56.0599 56.2478 56.1334 56.1748C56.2069 56.1018 56.2482 56.0027 56.2482 55.8994V49.0843C56.2482 48.981 56.2069 48.882 56.1334 48.8089C56.0599 48.7359 55.9602 48.6949 55.8563 48.6949Z" fill="#E6E6E6"/>
<path d="M54.5337 38.0689V96.5124C54.5339 97.7263 54.0519 98.8913 53.1926 99.7542C52.3332 100.617 51.1659 101.108 49.9442 101.121C49.9274 101.123 49.9104 101.123 49.8934 101.123H27.0348C25.8041 101.123 24.6239 100.637 23.7537 99.7725C22.8835 98.9078 22.3946 97.7352 22.3945 96.5124V38.0689C22.3946 36.8461 22.8835 35.6734 23.7537 34.8088C24.6239 33.9442 25.8041 33.4584 27.0348 33.4583H29.8088C29.6724 33.791 29.6204 34.152 29.6574 34.5094C29.6944 34.8667 29.8193 35.2096 30.0209 35.5078C30.2226 35.806 30.495 36.0504 30.814 36.2195C31.1331 36.3885 31.4891 36.4771 31.8507 36.4774H44.8828C45.2441 36.4764 45.5996 36.3873 45.9182 36.218C46.2368 36.0487 46.5086 35.8043 46.71 35.5063C46.9114 35.2082 47.036 34.8656 47.0731 34.5086C47.1102 34.1515 47.0585 33.7909 46.9226 33.4583H49.8934C51.1241 33.4584 52.3043 33.9442 53.1745 34.8088C54.0447 35.6734 54.5336 36.8461 54.5337 38.0689Z" fill="white"/>
<path d="M50.0013 99.319C50.0013 99.9245 49.9823 100.525 49.9442 101.121C49.9274 101.123 49.9104 101.123 49.8934 101.123H27.0348C25.8041 101.123 24.6239 100.637 23.7537 99.7723C22.8835 98.9077 22.3946 97.735 22.3945 96.5123V70.4673C29.8422 70.8404 36.8608 74.043 41.9991 79.413C47.1373 84.7829 50.0022 91.9094 50.0013 99.319Z" fill="#F2F2F2"/>
<path d="M20.8054 54.6632C20.6652 54.663 20.5307 54.6076 20.4315 54.5091C20.3324 54.4105 20.2766 54.2769 20.2764 54.1376V50.5635C20.2764 50.4241 20.3322 50.2904 20.4314 50.1918C20.5306 50.0932 20.6651 50.0378 20.8054 50.0378C20.9457 50.0378 21.0803 50.0932 21.1795 50.1918C21.2787 50.2904 21.3344 50.4241 21.3344 50.5635V54.1376C21.3342 54.2769 21.2785 54.4105 21.1793 54.5091C21.0801 54.6076 20.9457 54.663 20.8054 54.6632Z" fill="#E6E6E6"/>
<path d="M41.2708 51.8093H35.6574C35.1504 51.8093 34.7393 52.2178 34.7393 52.7216V54.1434C34.7393 54.6472 35.1504 55.0556 35.6574 55.0556H41.2708C41.7779 55.0556 42.1889 54.6472 42.1889 54.1434V52.7216C42.1889 52.2178 41.7779 51.8093 41.2708 51.8093Z" fill="#339900"/>
<path d="M49.0303 58.302H27.8979C27.3908 58.302 26.9798 58.7104 26.9798 59.2142V60.636C26.9798 61.1399 27.3908 61.5483 27.8979 61.5483H49.0303C49.5373 61.5483 49.9484 61.1399 49.9484 60.636V59.2142C49.9484 58.7104 49.5373 58.302 49.0303 58.302Z" fill="#E6E6E6"/>
<path d="M49.0303 64.7944H27.8979C27.3908 64.7944 26.9798 65.2029 26.9798 65.7067V67.1285C26.9798 67.6323 27.3908 68.0407 27.8979 68.0407H49.0303C49.5373 68.0407 49.9484 67.6323 49.9484 67.1285V65.7067C49.9484 65.2029 49.5373 64.7944 49.0303 64.7944Z" fill="#E6E6E6"/>
<path d="M43.9456 97.7969C43.8489 97.8013 43.7531 97.7761 43.6713 97.7246C43.5896 97.6732 43.5257 97.598 43.4883 97.5093C43.451 97.4205 43.442 97.3225 43.4626 97.2285C43.4832 97.1345 43.5323 97.0491 43.6034 96.9838L43.6357 96.856C43.6315 96.8458 43.6272 96.8356 43.6229 96.8254C43.5255 96.5967 43.3622 96.4018 43.1537 96.265C42.9451 96.1283 42.7005 96.0558 42.4507 96.0568C42.2008 96.0577 41.9567 96.1319 41.7492 96.2702C41.5417 96.4085 41.3799 96.6046 41.2842 96.834C40.9017 97.7494 40.4147 98.6663 40.2948 99.6341C40.242 100.062 40.2643 100.496 40.3606 100.916C39.4622 98.9686 38.9957 96.8522 38.9927 94.7101C38.9925 94.1726 39.0226 93.6355 39.0828 93.1013C39.1325 92.6634 39.2015 92.2286 39.2897 91.7969C39.7712 89.4545 40.8051 87.2591 42.3063 85.3909C43.033 84.997 43.6206 84.3912 43.99 83.6552C44.1239 83.3906 44.2185 83.1082 44.2709 82.8167C44.1889 82.8274 44.1056 82.8341 44.0236 82.8394C43.9981 82.8408 43.9712 82.8421 43.9457 82.8434L43.936 82.8439C43.846 82.8479 43.7566 82.8259 43.6788 82.7807C43.601 82.7354 43.538 82.6688 43.4974 82.5888C43.4568 82.5088 43.4403 82.4188 43.45 82.3297C43.4597 82.2406 43.4951 82.1562 43.5519 82.0867C43.5873 82.0434 43.6227 82.0001 43.6581 81.9569C43.7119 81.8901 43.767 81.8247 43.8207 81.758C43.8269 81.7516 43.8327 81.7449 43.8382 81.7379C43.9 81.6618 43.9618 81.5871 44.0236 81.511C43.9108 81.337 43.759 81.1912 43.5802 81.0851C42.9607 80.7246 42.1061 80.9742 41.6587 81.531C41.2099 82.0877 41.1252 82.8688 41.2811 83.5644C41.4344 84.1563 41.6879 84.7179 42.0309 85.2253C41.9973 85.268 41.9623 85.3094 41.9288 85.3521C41.3147 86.1367 40.7794 86.9792 40.3308 87.8676C40.4399 86.8724 40.3096 85.8657 39.9508 84.9303C39.5871 84.0585 38.9054 83.3243 38.3051 82.5706C38.1463 82.3682 37.9307 82.217 37.6855 82.1363C37.4403 82.0556 37.1765 82.0489 36.9275 82.1171C36.6784 82.1854 36.4553 82.3254 36.2864 82.5196C36.1175 82.7137 36.0103 82.9533 35.9783 83.208C35.9771 83.2191 35.9759 83.2302 35.9747 83.2413C36.0639 83.2913 36.1512 83.3443 36.2366 83.4005C36.3439 83.4717 36.427 83.5734 36.4751 83.6924C36.5232 83.8114 36.534 83.942 36.506 84.0672C36.4781 84.1923 36.4128 84.3062 36.3187 84.3939C36.2245 84.4815 36.1059 84.5389 35.9784 84.5584L35.9653 84.5604C35.9971 84.8797 36.0532 85.1962 36.1333 85.507C36.3652 86.3748 36.7751 87.1857 37.3372 87.8887C37.8993 88.5917 38.6016 89.1718 39.3999 89.5926C39.4523 89.6193 39.5033 89.646 39.5557 89.6713C39.105 90.9407 38.8222 92.2629 38.7146 93.6046C38.6536 94.3963 38.6572 95.1915 38.7253 95.9825L38.7213 95.9545C38.5493 95.0749 38.077 94.2812 37.3843 93.7074C36.3554 92.8676 34.9017 92.5584 33.7917 91.8833C33.6738 91.8081 33.5366 91.7679 33.3964 91.7676C33.2562 91.7672 33.1189 91.8068 33.0005 91.8814C32.8822 91.9561 32.7878 92.0629 32.7285 92.1891C32.6693 92.3153 32.6476 92.4558 32.666 92.5938L32.6705 92.6233C32.836 92.6903 32.9971 92.7674 33.1529 92.8543C33.2421 92.9043 33.3294 92.9573 33.4148 93.0134C33.522 93.0847 33.6052 93.1864 33.6533 93.3054C33.7013 93.4244 33.7121 93.555 33.6842 93.6802C33.6563 93.8053 33.591 93.9192 33.4968 94.0069C33.4027 94.0945 33.2841 94.1519 33.1566 94.1714L33.1435 94.1734C33.1341 94.1747 33.126 94.1761 33.1166 94.1774C33.3993 94.8482 33.7962 95.4656 34.2897 96.0025C34.8993 96.6526 35.6362 97.172 36.4551 97.529C37.274 97.886 38.1576 98.073 39.0518 98.0787H39.0532C39.2959 99.1268 39.6476 100.147 40.1026 101.123H43.8516C43.8651 101.081 43.8771 101.039 43.8892 100.997C43.5422 101.019 43.1939 100.998 42.8519 100.936C43.13 100.597 43.4082 100.255 43.6863 99.9158C43.6925 99.9095 43.6984 99.9028 43.7038 99.8958C43.8449 99.7222 43.9873 99.55 44.1284 99.3764L44.1285 99.3762C44.136 98.8442 44.0745 98.3133 43.9456 97.7969ZM39.6525 89.4056L39.6545 89.403L39.6525 89.4083V89.4056ZM38.8221 96.8437L38.7898 96.7716C38.7912 96.7195 38.7912 96.6674 38.7898 96.614C38.7898 96.5993 38.7871 96.5847 38.7871 96.57C38.7992 96.6621 38.81 96.7542 38.8234 96.8464L38.8221 96.8437Z" fill="#CCCCCC"/>
<path d="M20.6996 47.7252C20.5593 47.725 20.4249 47.6696 20.3257 47.5711C20.2265 47.4725 20.1708 47.339 20.1706 47.1996V43.6255C20.1706 43.4861 20.2263 43.3524 20.3255 43.2538C20.4247 43.1552 20.5593 43.0999 20.6996 43.0999C20.8399 43.0999 20.9744 43.1552 21.0736 43.2538C21.1728 43.3524 21.2286 43.4861 21.2286 43.6255V47.1996C21.2284 47.339 21.1726 47.4725 21.0735 47.5711C20.9743 47.6696 20.8398 47.725 20.6996 47.7252Z" fill="#E6E6E6"/>
<path d="M34.7707 34.0593C34.7709 33.92 34.8266 33.7864 34.9258 33.6878C35.025 33.5893 35.1594 33.5339 35.2997 33.5337H38.8968C39.0371 33.5337 39.1717 33.5891 39.2709 33.6876C39.3701 33.7862 39.4258 33.9199 39.4258 34.0593C39.4258 34.1987 39.3701 34.3324 39.2709 34.431C39.1717 34.5295 39.0371 34.5849 38.8968 34.5849H35.2997C35.1594 34.5847 35.025 34.5293 34.9258 34.4308C34.8266 34.3322 34.7709 34.1986 34.7707 34.0593Z" fill="white"/>
<path d="M20.8054 60.7604C20.6652 60.7602 20.5307 60.7048 20.4315 60.6062C20.3324 60.5077 20.2766 60.3741 20.2764 60.2348V56.6606C20.2764 56.5212 20.3322 56.3875 20.4314 56.289C20.5306 56.1904 20.6651 56.135 20.8054 56.135C20.9457 56.135 21.0803 56.1904 21.1795 56.289C21.2787 56.3875 21.3344 56.5212 21.3344 56.6606V60.2348C21.3342 60.3741 21.2785 60.5077 21.1793 60.6062C21.0801 60.7048 20.9457 60.7602 20.8054 60.7604Z" fill="#E6E6E6"/>
<path d="M40.907 34.5849C41.1991 34.5849 41.436 34.3496 41.436 34.0593C41.436 33.769 41.1991 33.5337 40.907 33.5337C40.6148 33.5337 40.378 33.769 40.378 34.0593C40.378 34.3496 40.6148 34.5849 40.907 34.5849Z" fill="white"/>
<path d="M181.748 102.728L0.251947 102.792C0.185254 102.792 0.12136 102.766 0.0742691 102.719C0.0271781 102.672 0.000732422 102.608 0.000732422 102.542C0.000732422 102.476 0.0271781 102.412 0.0742691 102.365C0.12136 102.318 0.185254 102.292 0.251947 102.292L181.748 102.227C181.815 102.227 181.879 102.253 181.926 102.3C181.973 102.347 182 102.411 182 102.477C182 102.544 181.973 102.607 181.926 102.654C181.879 102.701 181.815 102.728 181.748 102.728Z" fill="#CACACA"/>
<path opacity="0.2" d="M68.5244 56.3396L67.9461 59.9259L71.8608 61.5303L68.5244 56.3396Z" fill="black"/>
<path opacity="0.2" d="M66.0458 63.2356C67.0659 64.4092 68.4496 65.2127 69.9793 65.52C71.509 65.8272 73.0981 65.6207 74.4969 64.9329L75.3311 64.5227L66.0458 63.2356Z" fill="black"/>
<path d="M93.531 110.448L93.6329 108.171C94.6955 107.607 95.8807 107.309 97.0856 107.303C95.4273 108.65 95.6346 111.247 94.5103 113.058C94.1553 113.62 93.6775 114.096 93.1123 114.45C92.5471 114.804 91.9089 115.027 91.2452 115.103L89.8575 115.947C89.6671 114.892 89.7091 113.809 89.9806 112.772C90.252 111.735 90.7466 110.768 91.4301 109.939C91.8182 109.478 92.2632 109.067 92.7546 108.717C93.087 109.587 93.531 110.448 93.531 110.448Z" fill="#F2F2F2"/>
<path d="M96.8952 116H48.5706C48.5039 116 48.44 115.973 48.3929 115.926C48.3458 115.879 48.3194 115.816 48.3194 115.75C48.3194 115.683 48.3458 115.62 48.3929 115.573C48.44 115.526 48.5039 115.499 48.5706 115.499H96.8952C96.9284 115.499 96.9612 115.506 96.9919 115.518C97.0225 115.531 97.0504 115.549 97.0739 115.572C97.0973 115.596 97.116 115.623 97.1287 115.654C97.1414 115.684 97.1479 115.717 97.1479 115.75C97.1479 115.783 97.1414 115.815 97.1287 115.846C97.116 115.876 97.0973 115.904 97.0739 115.927C97.0504 115.95 97.0225 115.969 96.9919 115.981C96.9612 115.994 96.9284 116 96.8952 116Z" fill="#CACACA"/>
</g>
<defs>
<clipPath id="clip0_68_130">
<rect width="182" height="116" fill="white"/>
</clipPath>
</defs>
</svg>
