<svg width="176" height="114" viewBox="0 0 176 114" fill="none" xmlns="http://www.w3.org/2000/svg">
<g clip-path="url(#clip0_68_311)">
<path d="M132.937 90.7829C132.455 87.5341 132.328 84.2424 132.557 80.9661L132.937 75.5437C130.845 79.7101 131.318 85.1938 132.937 90.7829Z" fill="#CACACA"/>
<path d="M134.568 91.6898C134.336 89.7512 134.275 87.7959 134.385 85.8465L134.568 82.6189C133.562 85.0989 133.789 88.363 134.568 91.6898Z" fill="#CACACA"/>
<path d="M141.819 95.6815V97.4956C141.818 97.6398 141.76 97.7778 141.659 97.8797C141.557 97.9816 141.419 98.0392 141.275 98.0399H140.369C140.345 98.0398 140.321 98.0444 140.299 98.0535C140.277 98.0626 140.257 98.076 140.24 98.0928C140.224 98.1097 140.21 98.1297 140.201 98.1518C140.192 98.1738 140.187 98.1975 140.187 98.2213V113.098C140.187 113.242 140.129 113.38 140.027 113.482C139.926 113.584 139.788 113.641 139.644 113.642H128.588C128.443 113.642 128.305 113.584 128.203 113.482C128.101 113.38 128.044 113.242 128.044 113.098V98.2213C128.044 98.1733 128.025 98.1272 127.991 98.0932C127.957 98.0592 127.911 98.04 127.863 98.0399H126.775C126.631 98.0398 126.493 97.9824 126.391 97.8804C126.289 97.7783 126.232 97.64 126.231 97.4956V95.6815C126.231 95.61 126.245 95.5391 126.273 95.4731C126.3 95.407 126.34 95.347 126.39 95.2964C126.441 95.2458 126.501 95.2057 126.567 95.1784C126.633 95.1511 126.704 95.1371 126.775 95.1372H141.275C141.419 95.1376 141.557 95.1951 141.659 95.2971C141.761 95.3991 141.818 95.5372 141.819 95.6815Z" fill="#F2F2F2"/>
<path d="M140.204 98.4209H128.06V98.9652H140.204V98.4209Z" fill="#E6E6E6"/>
<path d="M140.187 106.43C136.124 108.113 132.016 108.131 127.863 106.43V102.595C131.861 101.251 136.189 101.251 140.187 102.595V106.43Z" fill="#E6E6E6"/>
<path d="M81.8295 45.4237C85.4727 45.4237 88.4261 42.4675 88.4261 38.8209C88.4261 35.1742 85.4727 32.218 81.8295 32.218C78.1863 32.218 75.2329 35.1742 75.2329 38.8209C75.2329 42.4675 78.1863 45.4237 81.8295 45.4237Z" fill="#2F2E41"/>
<path d="M83.6673 32.3998C84.809 32.3999 85.931 32.6966 86.9238 33.2608C87.9166 33.825 88.7461 34.6373 89.3313 35.6185C89.9165 36.5997 90.2373 37.7161 90.2624 38.8585C90.2875 40.0009 90.016 41.1303 89.4744 42.1363C90.0463 41.4201 90.4629 40.5924 90.6975 39.7061C90.9322 38.8199 90.9799 37.8943 90.8375 36.9886C90.6951 36.0829 90.3657 35.2168 89.8704 34.4455C89.3751 33.6742 88.7247 33.0146 87.9607 32.5088C87.1966 32.003 86.3357 31.6621 85.4328 31.5078C84.5298 31.3534 83.6047 31.3891 82.7162 31.6124C81.8278 31.8357 80.9956 32.2419 80.2726 32.8049C79.5497 33.368 78.9518 34.0756 78.5172 34.8827C79.1338 34.1078 79.9172 33.4821 80.8088 33.0522C81.7005 32.6223 82.6776 32.3993 83.6673 32.3998Z" fill="#2F2E41"/>
<path d="M69.5028 38.8069C80.2047 38.8069 88.8803 30.1231 88.8803 19.411C88.8803 8.69898 80.2047 0.0151367 69.5028 0.0151367C58.8009 0.0151367 50.1252 8.69898 50.1252 19.411C50.1252 30.1231 58.8009 38.8069 69.5028 38.8069Z" fill="#2F2E41"/>
<path d="M54.2945 7.37687C57.6334 3.61825 62.3007 1.30513 67.3112 0.925689C72.3217 0.54625 77.2835 2.13018 81.1493 5.34318C80.9909 5.19241 80.8341 5.04042 80.6694 4.89391C76.8281 1.47876 71.789 -0.269622 66.6601 0.0331968C61.5313 0.336015 56.7325 2.66524 53.3189 6.50874C49.9053 10.3522 48.1564 15.3953 48.4567 20.5292C48.7571 25.6631 51.082 30.4674 54.9204 33.8859C55.0851 34.0324 55.2542 34.1704 55.4224 34.3103C51.7817 30.8438 49.629 26.097 49.4185 21.0718C49.2081 16.0467 50.9564 11.1362 54.2945 7.37687Z" fill="#2F2E41"/>
<path d="M69.3386 38.6425C76.2314 38.6425 81.8191 33.0495 81.8191 26.1502C81.8191 19.2509 76.2314 13.658 69.3386 13.658C62.4458 13.658 56.8582 19.2509 56.8582 26.1502C56.8582 33.0495 62.4458 38.6425 69.3386 38.6425Z" fill="#FFB8B8"/>
<path d="M75.7141 42.0339L62.3583 42.6349C62.3583 42.6349 63.473 49.5484 56.2475 50.2059C49.022 50.8634 42.4533 48.891 39.8258 53.8221C37.1984 58.7533 38.3309 76.3118 38.3309 76.3118C38.3309 76.3118 43.2574 94.064 47.1985 96.694C51.1397 99.3239 85.6252 95.7078 85.6252 95.7078L100.058 77.4673L99.5688 63.4002C99.3135 56.0543 92.6131 50.5391 85.3964 51.8985C85.2547 51.9252 85.112 51.954 84.9683 51.9848C84.9683 51.9848 83.3829 50.7987 79.033 48.6217C76.3729 47.2904 75.7141 42.0339 75.7141 42.0339Z" fill="#CACACA"/>
<path d="M46.7229 49.8771C46.7229 49.8771 49.8972 55.6422 48.5835 63.8608C47.2698 72.0794 52.7819 89.4616 52.7819 89.4616L56.7231 88.4753C56.7231 88.4753 54.0956 71.3806 54.7525 67.4357C55.4094 63.4908 55.5906 51.8496 52.3063 49.8771C49.022 47.9047 46.7229 49.8771 46.7229 49.8771Z" fill="#2F2E41"/>
<path d="M84.7374 52.9L86.1179 89.2972L88.7453 90.9409C88.7453 90.9409 92.5223 50.9985 90.5517 50.9985H86.5421C86.3048 50.9985 86.0698 51.0453 85.8505 51.1362C85.6313 51.2271 85.4321 51.3604 85.2643 51.5283C85.0965 51.6963 84.9634 51.8957 84.8725 52.1151C84.7817 52.3346 84.735 52.5698 84.735 52.8074C84.735 52.8383 84.7358 52.8691 84.7374 52.9Z" fill="#2F2E41"/>
<path d="M54.5883 88.6397C55.4953 88.6397 56.2305 87.9038 56.2305 86.996C56.2305 86.0882 55.4953 85.3523 54.5883 85.3523C53.6814 85.3523 52.9462 86.0882 52.9462 86.996C52.9462 87.9038 53.6814 88.6397 54.5883 88.6397Z" fill="#339900"/>
<path d="M87.4316 90.2833C88.3385 90.2833 89.0738 89.5474 89.0738 88.6396C89.0738 87.7318 88.3385 86.9958 87.4316 86.9958C86.5247 86.9958 85.7894 87.7318 85.7894 88.6396C85.7894 89.5474 86.5247 90.2833 87.4316 90.2833Z" fill="#339900"/>
<path d="M58.6646 10.5347V23.027H61.5549L65.2333 19.082L64.7407 23.027H77.5166L76.7283 19.082L78.3048 23.027H80.3411V10.5347H58.6646Z" fill="#2F2E41"/>
<path d="M56.6939 25.3283C57.2381 25.3283 57.6792 24.5188 57.6792 23.5202C57.6792 22.5217 57.2381 21.7122 56.6939 21.7122C56.1498 21.7122 55.7086 22.5217 55.7086 23.5202C55.7086 24.5188 56.1498 25.3283 56.6939 25.3283Z" fill="#FFB8B8"/>
<path d="M81.9832 25.3283C82.5274 25.3283 82.9685 24.5188 82.9685 23.5202C82.9685 22.5217 82.5274 21.7122 81.9832 21.7122C81.4391 21.7122 80.9979 22.5217 80.9979 23.5202C80.9979 24.5188 81.4391 25.3283 81.9832 25.3283Z" fill="#FFB8B8"/>
<path d="M109.319 110.383V111.485C109.32 111.787 109.264 112.087 109.154 112.368C109.106 112.494 109.047 112.615 108.979 112.731C108.763 113.094 108.456 113.394 108.089 113.603C107.722 113.812 107.307 113.921 106.885 113.921H25.9494C25.5274 113.921 25.1125 113.812 24.7455 113.603C24.3785 113.394 24.072 113.094 23.856 112.731C23.7877 112.615 23.7289 112.494 23.6802 112.368C23.5706 112.087 23.5147 111.787 23.5153 111.485V110.383C23.5152 110.064 23.578 109.747 23.7003 109.451C23.8225 109.156 24.0016 108.887 24.2276 108.661C24.4535 108.435 24.7217 108.255 25.0169 108.133C25.3121 108.01 25.6285 107.947 25.9481 107.947H30.6147V107.434C30.6147 107.42 30.6173 107.407 30.6223 107.395C30.6274 107.382 30.6349 107.371 30.6443 107.362C30.6537 107.352 30.6648 107.345 30.6771 107.34C30.6894 107.335 30.7026 107.332 30.7159 107.332H33.1503C33.1772 107.332 33.203 107.343 33.222 107.362C33.2411 107.381 33.2518 107.406 33.2518 107.433V107.947H34.7725V107.434C34.7725 107.42 34.7751 107.407 34.7801 107.395C34.7852 107.382 34.7927 107.371 34.8021 107.362C34.8115 107.352 34.8226 107.345 34.8349 107.34C34.8472 107.335 34.8604 107.332 34.8737 107.332H37.3081C37.335 107.332 37.3608 107.343 37.3798 107.362C37.3989 107.381 37.4096 107.406 37.4096 107.433V107.947H38.9321V107.434C38.9321 107.42 38.9347 107.407 38.9398 107.395C38.9448 107.382 38.9523 107.371 38.9617 107.362C38.9711 107.352 38.9822 107.345 38.9945 107.34C39.0068 107.335 39.02 107.332 39.0333 107.332H41.4678C41.4946 107.332 41.5204 107.343 41.5395 107.362C41.5585 107.381 41.5692 107.406 41.5693 107.433V107.947H43.0899V107.434C43.0899 107.42 43.0925 107.407 43.0976 107.395C43.1026 107.382 43.1101 107.371 43.1195 107.362C43.1289 107.352 43.14 107.345 43.1523 107.34C43.1646 107.335 43.1778 107.332 43.1911 107.332H45.6255C45.6524 107.332 45.6782 107.343 45.6972 107.362C45.7163 107.381 45.727 107.406 45.727 107.433V107.947H47.2477V107.434C47.2477 107.42 47.2503 107.407 47.2554 107.395C47.2604 107.383 47.2679 107.371 47.2773 107.362C47.2867 107.352 47.2978 107.345 47.3101 107.34C47.3224 107.335 47.3356 107.332 47.3489 107.332H49.7833C49.8102 107.332 49.836 107.343 49.8551 107.362C49.8741 107.381 49.8848 107.406 49.8848 107.433V107.947H51.4073V107.434C51.4073 107.42 51.4099 107.407 51.415 107.395C51.42 107.383 51.4275 107.371 51.4369 107.362C51.4463 107.352 51.4574 107.345 51.4697 107.34C51.482 107.335 51.4952 107.332 51.5085 107.332H53.943C53.9698 107.332 53.9956 107.343 54.0147 107.362C54.0337 107.381 54.0444 107.406 54.0445 107.433V107.947H55.5651V107.434C55.5651 107.42 55.5677 107.407 55.5728 107.395C55.5778 107.383 55.5853 107.371 55.5947 107.362C55.6041 107.352 55.6152 107.345 55.6275 107.34C55.6398 107.335 55.653 107.332 55.6663 107.332H74.7338C74.7471 107.332 74.7603 107.335 74.7726 107.34C74.7849 107.345 74.7961 107.352 74.8055 107.362C74.8149 107.371 74.8224 107.382 74.8275 107.395C74.8326 107.407 74.8353 107.42 74.8353 107.433V107.947H76.3578V107.434C76.3577 107.42 76.3603 107.407 76.3654 107.395C76.3705 107.383 76.3779 107.371 76.3873 107.362C76.3967 107.352 76.4079 107.345 76.4202 107.34C76.4324 107.335 76.4456 107.332 76.4589 107.332H78.8934C78.9202 107.332 78.9459 107.343 78.9649 107.362C78.9839 107.381 78.9946 107.407 78.9949 107.434V107.947H80.5156V107.434C80.5155 107.42 80.5181 107.407 80.5232 107.395C80.5283 107.383 80.5357 107.371 80.5451 107.362C80.5545 107.352 80.5657 107.345 80.578 107.34C80.5902 107.335 80.6034 107.332 80.6167 107.332H83.0512C83.0645 107.332 83.0777 107.335 83.09 107.34C83.1023 107.345 83.1135 107.352 83.1229 107.362C83.1323 107.371 83.1398 107.382 83.1449 107.395C83.15 107.407 83.1527 107.42 83.1527 107.433V107.947H84.6734V107.434C84.6733 107.42 84.6759 107.407 84.681 107.395C84.6861 107.383 84.6935 107.371 84.7029 107.362C84.7123 107.352 84.7235 107.345 84.7358 107.34C84.748 107.335 84.7612 107.332 84.7745 107.332H87.209C87.2223 107.332 87.2355 107.335 87.2478 107.34C87.2601 107.345 87.2713 107.352 87.2807 107.362C87.2901 107.371 87.2976 107.382 87.3027 107.395C87.3078 107.407 87.3105 107.42 87.3105 107.433V107.947H88.833V107.434C88.8329 107.42 88.8355 107.407 88.8406 107.395C88.8457 107.383 88.8531 107.371 88.8625 107.362C88.8719 107.352 88.8831 107.345 88.8954 107.34C88.9077 107.335 88.9208 107.332 88.9341 107.332H91.3686C91.3953 107.332 91.4207 107.343 91.4394 107.362C91.458 107.381 91.4684 107.407 91.4683 107.434V107.947H92.9908V107.434C92.9907 107.42 92.9933 107.407 92.9984 107.395C93.0035 107.383 93.0109 107.371 93.0203 107.362C93.0297 107.352 93.0409 107.345 93.0532 107.34C93.0655 107.335 93.0786 107.332 93.0919 107.332H95.5264C95.5397 107.332 95.5529 107.335 95.5652 107.34C95.5775 107.345 95.5887 107.352 95.5981 107.362C95.6075 107.371 95.615 107.382 95.6201 107.395C95.6252 107.407 95.6279 107.42 95.6279 107.433V107.947H97.1486V107.434C97.1485 107.42 97.1511 107.407 97.1562 107.395C97.1613 107.383 97.1687 107.371 97.1781 107.362C97.1875 107.352 97.1987 107.345 97.211 107.34C97.2232 107.335 97.2364 107.332 97.2497 107.332H99.6842C99.6975 107.332 99.7107 107.335 99.723 107.34C99.7353 107.345 99.7465 107.352 99.7559 107.362C99.7653 107.371 99.7728 107.382 99.7779 107.395C99.783 107.407 99.7857 107.42 99.7857 107.433V107.947H106.885C107.531 107.947 108.15 108.203 108.606 108.66C109.063 109.117 109.319 109.736 109.319 110.382L109.319 110.383Z" fill="#3F3D56"/>
<path d="M176 113.637H0V114H176V113.637Z" fill="#3F3D56"/>
<path d="M102.802 64.0066H28.6642C28.3963 64.0066 28.1309 64.0594 27.8833 64.1621C27.6358 64.2647 27.4108 64.4152 27.2213 64.6048C27.0318 64.7945 26.8815 65.0197 26.779 65.2675C26.6764 65.5153 26.6237 65.7809 26.6237 66.0491V107.396C26.6237 107.938 26.8386 108.458 27.2213 108.841C27.604 109.224 28.123 109.439 28.6642 109.439H102.802C103.343 109.439 103.862 109.224 104.245 108.841C104.628 108.458 104.843 107.938 104.843 107.396V66.0491C104.843 65.5074 104.628 64.9879 104.245 64.6048C103.862 64.2218 103.343 64.0066 102.802 64.0066Z" fill="#339900"/>
<path d="M65.7925 82.9774C68.295 82.9774 70.3237 80.9468 70.3237 78.442C70.3237 75.9371 68.295 73.9065 65.7925 73.9065C63.29 73.9065 61.2614 75.9371 61.2614 78.442C61.2614 80.9468 63.29 82.9774 65.7925 82.9774Z" fill="#339900"/>
<path d="M93.8428 48.4784L116.717 25.4014H127.516V25.0386H116.566L116.513 25.0925L93.5851 48.2233L93.8428 48.4784Z" fill="#3F3D56"/>
<path d="M167.21 15.9272H140.707V18.2911H167.21V15.9272Z" fill="#339900"/>
<path d="M137.477 19.7856H131.866V14.1697H137.477V19.7856ZM132.229 19.4228H137.114V14.5325H132.229L132.229 19.4228Z" fill="#3F3D56"/>
<path d="M167.21 23.8066H140.707V26.1705H167.21V23.8066Z" fill="#339900"/>
<path d="M137.477 27.6651H131.866V22.0493H137.477V27.6651ZM132.229 27.3023H137.114V22.4122H132.229L132.229 27.3023Z" fill="#3F3D56"/>
<path d="M167.21 31.6863H140.707V34.0501H167.21V31.6863Z" fill="#339900"/>
<path d="M137.477 35.5445H131.866V29.9287H137.477V35.5445ZM132.229 35.1817H137.114V30.2915H132.229L132.229 35.1817Z" fill="#3F3D56"/>
</g>
<defs>
<clipPath id="clip0_68_311">
<rect width="176" height="114" fill="white"/>
</clipPath>
</defs>
</svg>
