<svg width="280" height="143" viewBox="0 0 280 143" fill="none" xmlns="http://www.w3.org/2000/svg">
<g clip-path="url(#clip0_68_341)">
<path d="M75.933 26.2313L86.8459 21.6426L91.5266 31.23L80.0588 35.9068L75.933 26.2313Z" fill="#FFB6B6"/>
<path opacity="0.1" d="M75.933 26.2313L86.8459 21.6426L91.5266 31.23L80.0588 35.9068L75.933 26.2313Z" fill="black"/>
<path d="M77.4844 22.5779L88.2501 34.9714C88.2501 34.9714 80.7609 58.5893 73.2717 60.6938C65.7824 62.7984 51.9742 73.0873 51.9742 73.0873L34.6554 61.863L43.0808 49.4695C43.0808 49.4695 63.4421 21.6426 68.8249 21.6426C74.2078 21.6426 77.4844 22.5779 77.4844 22.5779Z" fill="#339900"/>
<path d="M62.9389 103.37H37.8781L36.2936 101.253L29.8248 92.613L28.3364 90.6253C28.3364 90.6253 22.7194 80.3364 23.8896 70.9828C25.0598 61.6292 37.2298 59.5247 37.2298 59.5247H37.7306L52.6295 72.6056L51.7402 84.7794L56.4584 92.613L62.9389 103.37Z" fill="#2F2E41"/>
<path d="M43.0105 103.37H36.2936V93.4314L43.0105 103.37Z" fill="#2F2E41"/>
<path d="M187.885 88.2824L187.049 92.6131L184.976 103.37H143.319C143.645 100.959 144.089 97.4887 144.564 93.7425C144.611 93.3684 144.66 92.9919 144.707 92.6131C145.898 83.1964 147.202 72.5403 147.202 72.5403L152.678 73.2044L163.304 74.4905L167.633 75.0143L179.228 76.4197C185.008 77.1189 188.985 82.5674 187.885 88.2824Z" fill="#F2F2F2"/>
<path d="M150.999 30.9084L160.825 44.7925L143.685 45.3039L141.846 32.2562L150.999 30.9084Z" fill="#A0616A"/>
<path opacity="0.1" d="M150.999 30.9084L160.825 44.7925L143.685 45.3039L141.846 32.2562L150.999 30.9084Z" fill="black"/>
<path d="M102.543 59.6752C101.282 56.0413 98.3833 53.7457 96.0688 54.5477C93.7544 55.3498 92.9007 58.9453 94.1624 62.5803C94.6465 64.0393 95.4732 65.3612 96.5734 66.4355L102.11 81.765L109.254 79.0157L103.038 64.1954C103.236 62.6708 103.067 61.1208 102.543 59.6752Z" fill="#A0616A"/>
<path d="M169.054 52.6008L169.04 66.7504L167.722 71.9767L165.012 82.7263L163.039 92.6131L161.57 99.979L161.045 102.61C160.65 102.874 160.257 103.127 159.863 103.37H125.631C123.686 102.203 122.598 101.296 122.598 101.296C122.598 101.296 123.136 100.79 123.751 99.979C124.79 98.6087 126.047 96.3639 125.277 94.2196C125.116 93.7706 125.074 93.2234 125.123 92.6131C125.436 88.5864 129.663 81.7769 129.663 81.7769L128.788 71.6704L128.404 67.2415L131.11 45.6463L139.931 40.5228L141.454 40.3756L156.486 39.5642L162.699 39.922L162.983 39.9991L169.054 52.6008Z" fill="#CCCCCC"/>
<path d="M169.721 103.37H162.232L161.902 99.9789L161.895 99.9111L164.015 99.7661L169.531 99.3896L169.627 101.419L169.702 102.977L169.721 103.37Z" fill="#FFB6B6"/>
<path d="M171.565 56.0217L174.711 74.4646L172.143 92.6129L171.743 95.4377L171.036 100.426L170.819 101.96L170.826 102.126L170.88 103.37H161.986L161.658 99.9789L161.63 99.6749L160.961 92.7299L160.949 92.6129L159.529 77.8857L162.314 67.2413L162.52 66.4579V66.4556L163.731 48.2301L162.793 39.9475L162.784 39.8704C162.802 39.8821 162.819 39.8938 162.837 39.9054C162.887 39.9358 162.936 39.9662 162.983 39.999C168.45 43.4645 171.707 49.5443 171.565 56.0217Z" fill="#CCCCCC"/>
<path d="M134.296 49.1803L130.876 45.646C130.876 45.646 123.555 48.9437 123.19 50.7733C122.825 52.6028 109.899 79.474 109.899 79.474L104.275 64.4665L96.9548 69.3498C96.9548 69.3498 102.829 92.6497 108.322 93.7436C113.815 94.8374 132.226 66.1659 132.226 66.1659L134.296 49.1803Z" fill="#CCCCCC"/>
<path d="M218.048 96.8098H-48.2779C-52.0476 96.8098 -55.1132 99.8759 -55.1132 103.642C-55.1132 107.409 -52.0476 110.472 -48.2779 110.472H218.048C221.818 110.472 224.887 107.409 224.887 103.642C224.887 99.8758 221.818 96.8098 218.048 96.8098Z" fill="#E6E6E6"/>
<path d="M167.495 71.6311L166.977 95.7735C166.927 98.1106 165.016 99.979 162.677 99.979H118.228C115.944 99.979 114.058 98.195 113.933 95.9161L112.612 71.7736C112.478 69.3116 114.439 67.2415 116.907 67.2415H163.195C165.606 67.2415 167.547 69.2221 167.495 71.6311Z" fill="#3F3D56"/>
<path d="M95.7393 32.0591C101.613 32.0591 106.374 27.3019 106.374 21.4336C106.374 15.5653 101.613 10.8081 95.7393 10.8081C89.866 10.8081 85.1047 15.5653 85.1047 21.4336C85.1047 27.3019 89.866 32.0591 95.7393 32.0591Z" fill="#FFB6B6"/>
<path d="M77.9524 49.2357L79.1226 61.8631L87.0799 93.8991L80.2053 96.3066L68.5909 61.3954L66.9867 47.365L77.9524 49.2357Z" fill="#FFB6B6"/>
<path d="M74.7871 71.6311L74.2693 95.7735C74.2192 98.1106 72.3086 99.979 69.9691 99.979H25.5202C23.236 99.979 21.3501 98.195 21.2254 95.9161L19.9045 71.7736C19.7698 69.3116 21.7315 67.2415 24.1993 67.2415H70.4868C72.8984 67.2415 74.8387 69.2221 74.7871 71.6311Z" fill="#3F3D56"/>
<path d="M88.347 100.142C92.9854 100.142 96.7456 98.4805 96.7456 96.4306C96.7456 94.3807 92.9854 92.719 88.347 92.719C83.7085 92.719 79.9484 94.3807 79.9484 96.4306C79.9484 98.4805 83.7085 100.142 88.347 100.142Z" fill="#FFB6B6"/>
<path d="M61.4528 51.1664L66.2505 25.618C66.2505 25.618 79.5907 23.7473 80.0588 28.1902C80.5269 32.6332 79.7243 54.3465 79.7243 54.3465L61.4528 51.1664Z" fill="#339900"/>
<path d="M91.4465 23.1043C91.4465 23.1043 98.0249 20.7584 100.8 19.4962C103.575 18.234 109.088 27.0377 109.21 22.3882C109.333 17.7387 107.428 15.7889 107.428 15.7889C107.428 15.7889 106.952 5.6174 96.6962 6.88907C96.6962 6.88907 98.9521 1.80017 91.5469 1.01326C84.1418 0.226354 72.6212 18.0935 73.653 20.7636C74.6847 23.4338 75.9215 25.6413 72.9943 28.4963C70.0672 31.3513 64.5859 47.464 68.7563 51.7999C72.9266 56.1357 73.2003 58.0172 70.3429 60.7146C67.4856 63.412 60.7316 69.2773 68.0342 70.2955C75.3368 71.3137 67.3661 70.5532 72.8103 65.7685C78.2545 60.9838 86.1988 61.1792 83.2325 53.5025C80.2663 45.8259 85.4198 34.8252 84.7749 33.1564C84.1301 31.4876 86.2197 20.8903 86.2197 20.8903C86.2197 20.8903 91.0828 20.1764 91.4465 23.1043Z" fill="#2F2E41"/>
<path d="M145.745 35.9338C152.139 35.9338 157.322 30.7552 157.322 24.3672C157.322 17.9791 152.139 12.8005 145.745 12.8005C139.352 12.8005 134.169 17.9791 134.169 24.3672C134.169 30.7552 139.352 35.9338 145.745 35.9338Z" fill="#A0616A"/>
<path d="M146.669 8.8167C146.334 9.01207 145.885 8.71647 145.778 8.34409C145.671 7.9717 145.796 7.57632 145.92 7.20914L146.544 5.3607C146.987 4.04975 147.458 2.69298 148.417 1.69518C149.865 0.189148 152.166 -0.193978 154.238 0.0835837C156.898 0.440029 159.523 1.87938 160.76 4.25953C161.997 6.63969 161.471 9.96086 159.235 11.4458C162.421 15.094 163.532 19.1598 163.356 23.9981C163.181 28.8364 157.904 33.2892 154.462 36.6977C153.694 36.2322 152.995 34.0508 153.418 33.2584C153.841 32.4659 153.235 31.5478 153.758 30.8179C154.282 30.088 154.72 31.2502 154.191 30.5244C153.857 30.0665 155.16 29.0128 154.663 28.7387C152.263 27.4129 151.464 24.4232 149.957 22.1338C148.138 19.3723 145.026 17.5022 141.732 17.1919C139.917 17.021 138.001 17.3306 136.514 18.3831C135.026 19.4356 134.063 21.3164 134.408 23.1045C133.515 22.1983 133.071 20.8704 133.238 19.6097C133.406 18.3489 134.182 17.1831 135.281 16.5415C134.613 14.3334 135.186 11.7935 136.737 10.0848C138.288 8.37616 144.58 8.66718 146.844 9.11688L146.669 8.8167Z" fill="#2F2E41"/>
<path d="M147.021 17.259C150.02 17.5825 152.186 20.1783 154.014 22.5755C155.068 23.9572 156.172 25.4831 156.146 27.2202C156.119 28.9764 154.944 30.4827 154.382 32.1471C153.464 34.8675 154.359 38.1042 156.544 39.9682C154.385 40.3776 152.05 38.7599 151.678 36.5957C151.244 34.0763 153.155 31.6447 152.929 29.0983C152.729 26.8549 150.96 25.1283 149.456 23.4509C147.951 21.7735 146.539 19.5477 147.231 17.4042L147.021 17.259Z" fill="#2F2E41"/>
</g>
<defs>
<clipPath id="clip0_68_341">
<rect width="280" height="143" fill="white"/>
</clipPath>
</defs>
</svg>
