<svg width="193" height="154" viewBox="0 0 193 154" fill="none" xmlns="http://www.w3.org/2000/svg">
<g clip-path="url(#clip0_68_503)">
<path d="M96.7033 131.034C83.6265 131.034 70.9542 126.515 60.8457 118.245C50.7371 109.975 43.8178 98.4675 41.2667 85.6824C38.7155 72.8974 40.6904 59.6261 46.8548 48.1298C53.0192 36.6335 62.9918 27.6236 75.0732 22.6351C87.1546 17.6467 100.597 16.9884 113.111 20.7724C125.625 24.5564 136.435 32.5486 143.701 43.3873C150.966 54.2259 154.236 67.2403 152.954 80.2131C151.672 93.1858 145.918 105.314 136.671 114.532C131.435 119.78 125.206 123.941 118.345 126.774C111.485 129.607 104.129 131.055 96.7033 131.034ZM96.7033 18.7792C65.7762 18.7792 40.615 43.8608 40.615 74.6903C40.615 105.52 65.7762 130.601 96.7033 130.601C127.63 130.601 152.792 105.52 152.792 74.6903C152.792 43.8608 127.63 18.7792 96.7033 18.7792Z" fill="#CCCCCC"/>
<path d="M117.691 139.484V82.7205H75.3091V139.484H117.691Z" fill="#2F2E41"/>
<path d="M124.972 80.9873H68.0281V103.519H124.972V80.9873Z" fill="#3F3D56"/>
<path d="M124.972 106.119H68.0281V128.652H124.972V106.119Z" fill="#3F3D56"/>
<path d="M124.972 131.251H68.0281V153.783H124.972V131.251Z" fill="#3F3D56"/>
<path d="M124.972 90.541H68.0281V94.0075H124.972V90.541Z" fill="#339900"/>
<path d="M124.972 115.673H68.0281V119.14H124.972V115.673Z" fill="#339900"/>
<path d="M124.972 140.805H68.0281V144.271H124.972V140.805Z" fill="#339900"/>
<path d="M113.887 85.5371C114.608 85.5371 115.191 84.9551 115.191 84.2372C115.191 83.5193 114.608 82.9373 113.887 82.9373C113.167 82.9373 112.583 83.5193 112.583 84.2372C112.583 84.9551 113.167 85.5371 113.887 85.5371Z" fill="#339900"/>
<path d="M118.452 85.5371C119.172 85.5371 119.756 84.9551 119.756 84.2372C119.756 83.5193 119.172 82.9373 118.452 82.9373C117.731 82.9373 117.148 83.5193 117.148 84.2372C117.148 84.9551 117.731 85.5371 118.452 85.5371Z" fill="#339900"/>
<path d="M123.016 85.5371C123.736 85.5371 124.32 84.9551 124.32 84.2372C124.32 83.5193 123.736 82.9373 123.016 82.9373C122.296 82.9373 121.712 83.5193 121.712 84.2372C121.712 84.9551 122.296 85.5371 123.016 85.5371Z" fill="#339900"/>
<path d="M113.887 110.236C114.608 110.236 115.191 109.654 115.191 108.936C115.191 108.218 114.608 107.636 113.887 107.636C113.167 107.636 112.583 108.218 112.583 108.936C112.583 109.654 113.167 110.236 113.887 110.236Z" fill="#339900"/>
<path d="M118.452 110.236C119.172 110.236 119.756 109.654 119.756 108.936C119.756 108.218 119.172 107.636 118.452 107.636C117.731 107.636 117.148 108.218 117.148 108.936C117.148 109.654 117.731 110.236 118.452 110.236Z" fill="#339900"/>
<path d="M123.016 110.236C123.736 110.236 124.32 109.654 124.32 108.936C124.32 108.218 123.736 107.636 123.016 107.636C122.296 107.636 121.712 108.218 121.712 108.936C121.712 109.654 122.296 110.236 123.016 110.236Z" fill="#339900"/>
<path d="M113.887 134.934C114.608 134.934 115.191 134.352 115.191 133.634C115.191 132.916 114.608 132.334 113.887 132.334C113.167 132.334 112.583 132.916 112.583 133.634C112.583 134.352 113.167 134.934 113.887 134.934Z" fill="#339900"/>
<path d="M118.452 134.934C119.172 134.934 119.756 134.352 119.756 133.634C119.756 132.916 119.172 132.334 118.452 132.334C117.731 132.334 117.148 132.916 117.148 133.634C117.148 134.352 117.731 134.934 118.452 134.934Z" fill="#339900"/>
<path d="M123.016 134.934C123.736 134.934 124.32 134.352 124.32 133.634C124.32 132.916 123.736 132.334 123.016 132.334C122.296 132.334 121.712 132.916 121.712 133.634C121.712 134.352 122.296 134.934 123.016 134.934Z" fill="#339900"/>
<path d="M193 153.567H0V154H193V153.567Z" fill="#3F3D56"/>
<path d="M52.5705 58.7277V99.0237C52.5703 99.8667 52.2343 100.675 51.6363 101.271C51.0383 101.867 50.2273 102.202 49.3816 102.203H33.6724C32.8265 102.203 32.0152 101.868 31.4169 101.272C30.8187 100.676 30.4824 99.8669 30.4822 99.0237V58.7277C30.4824 57.8844 30.8187 57.0758 31.4169 56.4797C32.0152 55.8836 32.8265 55.5487 33.6724 55.5488H35.578C35.4845 55.7782 35.4489 56.027 35.4743 56.2733C35.4998 56.5196 35.5856 56.7559 35.7241 56.9615C35.8627 57.167 36.0498 57.3354 36.2689 57.452C36.4881 57.5686 36.7326 57.6297 36.981 57.63H45.9373C46.1858 57.6297 46.4303 57.5686 46.6494 57.452C46.8686 57.3354 47.0557 57.167 47.1942 56.9615C47.3328 56.7559 47.4185 56.5196 47.444 56.2733C47.4695 56.027 47.4339 55.7782 47.3403 55.5488H49.3816C50.2273 55.549 51.0383 55.884 51.6363 56.4801C52.2343 57.0762 52.5703 57.8846 52.5705 58.7277Z" fill="#E6E6E6"/>
<path d="M51.5241 63.2439H31.5286V90.9758H51.5241V63.2439Z" fill="white"/>
<path d="M45.1866 82.3132H37.2059V82.7678H45.1866V82.3132Z" fill="#E6E6E6"/>
<path d="M49.5467 83.9824H37.1979V84.437H49.5467V83.9824Z" fill="#339900"/>
<path d="M46.8888 85.5549H37.1979V86.0095H46.8888V85.5549Z" fill="#E6E6E6"/>
<path d="M42.8984 87.1277H37.1979V87.5823H42.8984V87.1277Z" fill="#E6E6E6"/>
<path d="M45.7487 88.7002H37.1979V89.1548H45.7487V88.7002Z" fill="#E6E6E6"/>
<path d="M34.4987 82.1824H33.5866V83.0916H34.4987V82.1824Z" fill="#E6E6E6"/>
<path d="M34.4987 83.7551H33.5866V84.6643H34.4987V83.7551Z" fill="#339900"/>
<path d="M34.4987 85.3276H33.5866V86.2368H34.4987V85.3276Z" fill="#E6E6E6"/>
<path d="M34.4987 86.9004H33.5866V87.8096H34.4987V86.9004Z" fill="#E6E6E6"/>
<path d="M34.4987 88.4729H33.5866V89.3821H34.4987V88.4729Z" fill="#E6E6E6"/>
<path d="M45.5872 66.7102H37.5461V74.7259H45.5872V66.7102Z" fill="#E6E6E6"/>
<path d="M123.232 0.0302734H69.7909V34.148H123.232V0.0302734Z" fill="#E6E6E6"/>
<path d="M118.127 9.5752H73.8196V26.2653H118.127V9.5752Z" fill="white"/>
<path d="M92.5261 12.4668H81.8923V13.0725H92.5261V12.4668Z" fill="#E6E6E6"/>
<path d="M98.3356 14.6909H81.8816V15.2966H98.3356V14.6909Z" fill="#339900"/>
<path d="M94.7942 16.7861H81.8816V17.3919H94.7942V16.7861Z" fill="#E6E6E6"/>
<path d="M89.4772 18.8816H81.8816V19.4873H89.4772V18.8816Z" fill="#E6E6E6"/>
<path d="M93.275 20.9771H81.8816V21.5828H93.275V20.9771Z" fill="#E6E6E6"/>
<path d="M78.2851 12.2925H77.0698V13.5039H78.2851V12.2925Z" fill="#E6E6E6"/>
<path d="M78.2851 14.3879H77.0698V15.5994H78.2851V14.3879Z" fill="#339900"/>
<path d="M78.2851 16.4834H77.0698V17.6949H78.2851V16.4834Z" fill="#E6E6E6"/>
<path d="M78.2851 18.5789H77.0698V19.7903H78.2851V18.5789Z" fill="#E6E6E6"/>
<path d="M78.2851 20.6741H77.0698V21.8855H78.2851V20.6741Z" fill="#E6E6E6"/>
<path d="M115.953 11.6663H105.073V22.5117H115.953V11.6663Z" fill="#E6E6E6"/>
<path d="M123.209 0H69.7681V2.26319H123.209V0Z" fill="#339900"/>
<path d="M71.4552 1.61147C71.7069 1.61147 71.911 1.40808 71.911 1.15718C71.911 0.906276 71.7069 0.702881 71.4552 0.702881C71.2036 0.702881 70.9995 0.906276 70.9995 1.15718C70.9995 1.40808 71.2036 1.61147 71.4552 1.61147Z" fill="white"/>
<path d="M73.0525 1.61147C73.3042 1.61147 73.5082 1.40808 73.5082 1.15718C73.5082 0.906276 73.3042 0.702881 73.0525 0.702881C72.8008 0.702881 72.5967 0.906276 72.5967 1.15718C72.5967 1.40808 72.8008 1.61147 73.0525 1.61147Z" fill="white"/>
<path d="M74.6497 1.61147C74.9014 1.61147 75.1054 1.40808 75.1054 1.15718C75.1054 0.906276 74.9014 0.702881 74.6497 0.702881C74.398 0.702881 74.194 0.906276 74.194 1.15718C74.194 1.40808 74.398 1.61147 74.6497 1.61147Z" fill="white"/>
<path d="M159.018 63.8716H145.977V70.5879H159.018V63.8716Z" fill="#E6E6E6"/>
<path d="M159.018 87.9202H145.977V94.6365H159.018V87.9202Z" fill="#E6E6E6"/>
<path d="M152.498 90.0869C158.499 90.0869 163.365 85.2369 163.365 79.2541C163.365 73.2714 158.499 68.4214 152.498 68.4214C146.496 68.4214 141.631 73.2714 141.631 79.2541C141.631 85.2369 146.496 90.0869 152.498 90.0869Z" fill="#E6E6E6"/>
<path d="M152.498 87.7035C157.179 87.7035 160.974 83.9206 160.974 79.254C160.974 74.5874 157.179 70.8044 152.498 70.8044C147.816 70.8044 144.021 74.5874 144.021 79.254C144.021 83.9206 147.816 87.7035 152.498 87.7035Z" fill="white"/>
<path d="M156.296 76.939H149.722V77.3134H156.296V76.939Z" fill="#E2E2E2"/>
<path d="M159.887 78.314H149.715V78.6884H159.887V78.314Z" fill="#339900"/>
<path d="M157.698 79.6094H149.715V79.9838H157.698V79.6094Z" fill="#E2E2E2"/>
<path d="M154.411 80.9048H149.715V81.2793H154.411V80.9048Z" fill="#E2E2E2"/>
<path d="M156.759 82.2H149.715V82.5744H156.759V82.2Z" fill="#E2E2E2"/>
<path d="M147.492 76.8313H146.741V77.5802H147.492V76.8313Z" fill="#E2E2E2"/>
<path d="M147.492 78.1267H146.741V78.8756H147.492V78.1267Z" fill="#339900"/>
<path d="M147.492 79.4221H146.741V80.171H147.492V79.4221Z" fill="#E2E2E2"/>
<path d="M147.492 80.7175H146.741V81.4665H147.492V80.7175Z" fill="#E2E2E2"/>
<path d="M147.492 82.0129H146.741V82.7619H147.492V82.0129Z" fill="#E2E2E2"/>
</g>
<defs>
<clipPath id="clip0_68_503">
<rect width="193" height="154" fill="white"/>
</clipPath>
</defs>
</svg>
