<svg width="195" height="147" viewBox="0 0 195 147" fill="none" xmlns="http://www.w3.org/2000/svg">
<g clip-path="url(#clip0_68_596)">
<path d="M183.51 133.362C183.392 137.793 182.653 142.185 181.314 146.409C181.285 146.507 181.252 146.604 181.22 146.702H173.027C173.036 146.614 173.045 146.516 173.054 146.409C173.6 140.102 170.479 102.171 166.714 95.6057C167.044 96.1382 184.145 113.32 183.51 133.362Z" fill="#F0F0F0"/>
<path d="M182.895 146.409C182.827 146.508 182.755 146.606 182.682 146.702H176.536C176.583 146.619 176.637 146.521 176.7 146.409C177.715 144.569 180.72 139.066 183.509 133.362C186.506 127.231 189.257 120.868 189.026 118.565C189.097 119.085 191.172 134.918 182.895 146.409Z" fill="#F0F0F0"/>
<path d="M154.659 119.584H0V0H154.659V119.584Z" fill="white"/>
<path d="M154.659 119.584H0V0H154.659V119.584ZM2.28508 117.289H152.374V2.29519H2.28508V117.289Z" fill="#E5E5E5"/>
<path d="M40.4766 90.1437H28.7671C28.45 90.1433 28.146 90.0167 27.9218 89.7915C27.6976 89.5663 27.5714 89.2609 27.571 88.9425V72.7293C27.5714 72.4108 27.6976 72.1055 27.9218 71.8803C28.146 71.6551 28.45 71.5284 28.7671 71.5281H40.4766C40.7937 71.5284 41.0977 71.6551 41.3219 71.8803C41.5461 72.1055 41.6723 72.4108 41.6726 72.7293V88.9425C41.6723 89.2609 41.5461 89.5663 41.3219 89.7915C41.0977 90.0167 40.7937 90.1433 40.4766 90.1437Z" fill="#E6E6E6"/>
<path d="M61.8305 90.1436H50.121C49.8039 90.1433 49.4999 90.0166 49.2757 89.7914C49.0514 89.5662 48.9253 89.2609 48.9249 88.9424V57.3511C48.9253 57.0326 49.0514 56.7273 49.2757 56.5021C49.4999 56.2769 49.8039 56.1503 50.121 56.1499H61.8305C62.1476 56.1503 62.4516 56.2769 62.6758 56.5021C62.9 56.7273 63.0261 57.0326 63.0265 57.3511V88.9424C63.0261 89.2609 62.9 89.5662 62.6758 89.7914C62.4516 90.0166 62.1476 90.1433 61.8305 90.1436Z" fill="#E6E6E6"/>
<path d="M83.1843 90.1437H71.4747C71.1576 90.1433 70.8536 90.0167 70.6294 89.7915C70.4052 89.5663 70.2791 89.2609 70.2787 88.9425V72.7293C70.2791 72.4108 70.4052 72.1055 70.6294 71.8803C70.8536 71.6551 71.1576 71.5284 71.4747 71.5281H83.1843C83.5013 71.5284 83.8053 71.6551 84.0295 71.8803C84.2538 72.1055 84.3799 72.4108 84.3803 72.7293V88.9425C84.3799 89.2609 84.2538 89.5663 84.0295 89.7915C83.8053 90.0167 83.5013 90.1433 83.1843 90.1437Z" fill="#E6E6E6"/>
<path d="M104.538 90.1436H92.8286C92.5187 90.1503 92.2189 90.0334 91.9947 89.8184C91.7705 89.6035 91.6403 89.308 91.6326 88.9968V51.2264C91.6403 50.9152 91.7705 50.6198 91.9947 50.4048C92.2189 50.1899 92.5187 50.0729 92.8286 50.0796H104.538C104.848 50.0729 105.148 50.1899 105.372 50.4048C105.596 50.6198 105.726 50.9152 105.734 51.2264V88.9968C105.726 89.308 105.596 89.6035 105.372 89.8184C105.148 90.0334 104.848 90.1503 104.538 90.1436Z" fill="#E6E6E6"/>
<path d="M125.892 90.1436H114.182C113.865 90.1433 113.561 90.0166 113.337 89.7914C113.113 89.5662 112.987 89.2609 112.986 88.9424V40.3543C112.987 40.0358 113.113 39.7305 113.337 39.5053C113.561 39.2801 113.865 39.1534 114.182 39.1531H125.892C126.209 39.1534 126.513 39.2801 126.737 39.5053C126.962 39.7305 127.088 40.0358 127.088 40.3543V88.9424C127.088 89.2609 126.962 89.5662 126.737 89.7914C126.513 90.0166 126.209 90.1433 125.892 90.1436Z" fill="#F2F2F2"/>
<path d="M34.6219 66.6717C35.957 66.6717 37.0393 65.5846 37.0393 64.2435C37.0393 62.9025 35.957 61.8154 34.6219 61.8154C33.2868 61.8154 32.2045 62.9025 32.2045 64.2435C32.2045 65.5846 33.2868 66.6717 34.6219 66.6717Z" fill="#3F3D56"/>
<path d="M55.9758 50.889C57.3109 50.889 58.3932 49.8018 58.3932 48.4608C58.3932 47.1198 57.3109 46.0327 55.9758 46.0327C54.6407 46.0327 53.5583 47.1198 53.5583 48.4608C53.5583 49.8018 54.6407 50.889 55.9758 50.889Z" fill="#3F3D56"/>
<path d="M77.3295 66.6717C78.6646 66.6717 79.7469 65.5846 79.7469 64.2435C79.7469 62.9025 78.6646 61.8154 77.3295 61.8154C75.9944 61.8154 74.9121 62.9025 74.9121 64.2435C74.9121 65.5846 75.9944 66.6717 77.3295 66.6717Z" fill="#3F3D56"/>
<path d="M98.6834 43.2C100.019 43.2 101.101 42.1129 101.101 40.7719C101.101 39.4309 100.019 38.3438 98.6834 38.3438C97.3483 38.3438 96.266 39.4309 96.266 40.7719C96.266 42.1129 97.3483 43.2 98.6834 43.2Z" fill="#3F3D56"/>
<path d="M120.037 34.2967C121.372 34.2967 122.455 33.2096 122.455 31.8685C122.455 30.5275 121.372 29.4404 120.037 29.4404C118.702 29.4404 117.62 30.5275 117.62 31.8685C117.62 33.2096 118.702 34.2967 120.037 34.2967Z" fill="#3F3D56"/>
<path d="M77.3806 64.7875L55.9756 48.6842L34.8635 64.5675L34.3804 63.9197L55.9756 47.6728L77.2785 63.6997L98.4479 40.4309L98.5328 40.3963L119.887 31.7544L120.188 32.5053L98.9189 41.1125L77.3806 64.7875Z" fill="#3F3D56"/>
<path d="M149.908 143.035L146.27 143.035L144.54 128.943L149.908 128.943L149.908 143.035Z" fill="#FFB6B6"/>
<path d="M150.835 146.576L139.107 146.576V146.427C139.107 145.211 139.588 144.045 140.444 143.185C141.3 142.325 142.461 141.842 143.672 141.842H143.672L150.835 141.842L150.835 146.576Z" fill="#2F2E41"/>
<path d="M136.909 83.3906L138.974 116.437L145.907 139.699L151.278 140.09L148.581 111.74L149.764 92.9132C149.764 92.9132 155.37 88.7154 152.27 83.6623L136.909 83.3906Z" fill="#2F2E41"/>
<path d="M152.281 143.035L148.644 143.035L146.913 128.943L152.282 128.943L152.281 143.035Z" fill="#FFB6B6"/>
<path d="M153.209 146.576L141.481 146.576V146.427C141.481 145.211 141.962 144.045 142.818 143.185C143.674 142.325 144.835 141.842 146.046 141.842H146.046L153.209 141.842L153.209 146.576Z" fill="#2F2E41"/>
<path d="M139.282 83.3906L141.347 116.437L148.28 139.699L153.652 140.09L150.955 111.74L152.137 92.9132C152.137 92.9132 157.744 88.7154 154.644 83.6623L139.282 83.3906Z" fill="#2F2E41"/>
<path d="M150.476 88.5083C144.282 88.5083 136.992 84.7062 136.57 84.4828L136.452 84.4207L150.668 47.9932L157.708 44.6523C158.251 44.3951 158.851 44.2879 159.448 44.3417C160.046 44.3955 160.618 44.6084 161.106 44.9584C161.593 45.3084 161.979 45.7829 162.224 46.3328C162.468 46.8828 162.562 47.4882 162.496 48.0867L159.702 73.2619L156.785 86.301L156.754 86.3315C155.145 87.9289 152.894 88.5083 150.476 88.5083Z" fill="#3F3D56"/>
<path d="M127.76 64.3939C128.128 64.1593 128.543 64.0086 128.976 63.9526C129.408 63.8966 129.848 63.9365 130.263 64.0695C130.679 64.2025 131.06 64.4255 131.381 64.7226C131.701 65.0198 131.953 65.3839 132.118 65.7893L142.704 65.2084L139.927 69.9874L130.3 69.8063C129.603 70.04 128.846 70.0089 128.17 69.719C127.495 69.4291 126.949 68.9005 126.636 68.2334C126.323 67.5662 126.265 66.8069 126.472 66.0992C126.679 65.3916 127.137 64.7848 127.76 64.3939Z" fill="#FFB6B6"/>
<path d="M148.651 71.8747L138.042 71.6027L138.179 64.5541L143.195 62.9503L151.424 51.358C151.836 50.7775 152.36 50.286 152.964 49.9123C153.569 49.5386 154.241 49.2905 154.943 49.1826C155.644 49.0746 156.36 49.1091 157.049 49.2839C157.737 49.4587 158.383 49.7703 158.949 50.2002C159.515 50.6302 159.989 51.1698 160.344 51.7872C160.699 52.4046 160.927 53.0871 161.015 53.7945C161.103 54.5019 161.048 55.2198 160.855 55.9057C160.662 56.5917 160.333 57.2317 159.89 57.788L148.651 71.8747Z" fill="#3F3D56"/>
<path d="M154.793 43.3101C158.686 43.3101 161.842 40.14 161.842 36.2296C161.842 32.3192 158.686 29.1492 154.793 29.1492C150.9 29.1492 147.744 32.3192 147.744 36.2296C147.744 40.14 150.9 43.3101 154.793 43.3101Z" fill="#FFB6B6"/>
<path d="M145.875 30.3292C146.587 29.5965 147.511 29.1093 148.515 28.9375C149.495 28.726 150.569 28.6604 151.352 28.0436C152.242 27.3313 152.633 25.9784 153.725 25.6774C154.2 25.5816 154.692 25.6208 155.146 25.7907C156.891 26.3193 158.44 27.3565 159.597 28.7707C159.869 29.1759 160.217 29.5249 160.62 29.7988C160.862 29.9014 161.097 30.0168 161.326 30.1444C161.578 30.3437 161.776 30.6029 161.902 30.8984C162.689 32.4945 162.871 34.3241 162.412 36.0448C162.139 37.061 161.647 38.0027 161.356 39.0248C161.065 40.0469 159.721 41.9914 159.406 41.5086C159.092 41.0258 158.688 40.5759 158.516 40.0186C158.18 38.9225 158.483 37.8194 157.63 37.058C157.102 36.5872 156.146 36.2713 155.787 36.8792C155.645 37.1146 155.654 37.4126 155.532 37.657C155.292 38.1338 154.598 38.2291 154.138 37.955C153.694 37.6476 153.383 37.1837 153.265 36.6557C152.574 34.3075 151.396 32.8294 148.895 33.8337C147.964 34.2091 146.866 34.4624 145.97 33.8188C144.789 32.9724 145.029 31.2947 145.875 30.3292Z" fill="#2F2E41"/>
<path d="M130.046 94.0177H118.336C118.019 94.0173 117.715 93.8906 117.491 93.6654C117.267 93.4402 117.14 93.1349 117.14 92.8164V44.2283C117.14 43.9098 117.267 43.6045 117.491 43.3793C117.715 43.1541 118.019 43.0275 118.336 43.0271H130.046C130.363 43.0275 130.667 43.1541 130.891 43.3793C131.115 43.6045 131.241 43.9098 131.242 44.2283V92.8164C131.241 93.1349 131.115 93.4402 130.891 93.6654C130.667 93.8906 130.363 94.0173 130.046 94.0177Z" fill="#339900"/>
<path d="M127.463 68.5657C127.831 68.3311 128.246 68.1805 128.679 68.1245C129.111 68.0684 129.551 68.1083 129.967 68.2414C130.382 68.3744 130.764 68.5974 131.084 68.8945C131.405 69.1916 131.656 69.5557 131.822 69.9612L142.408 69.3803L139.63 74.1593L130.003 73.9782C129.307 74.2119 128.549 74.1808 127.874 73.8909C127.199 73.601 126.653 73.0724 126.34 72.4052C126.026 71.7381 125.968 70.9787 126.175 70.2711C126.382 69.5634 126.84 68.9567 127.463 68.5657Z" fill="#FFB6B6"/>
<path d="M148.354 76.0465L137.745 75.7746L137.882 68.7259L142.899 67.1221L151.127 55.5299C151.539 54.9494 152.063 54.4578 152.667 54.0842C153.272 53.7105 153.945 53.4624 154.646 53.3544C155.348 53.2465 156.064 53.281 156.752 53.4558C157.44 53.6306 158.086 53.9422 158.652 54.3721C159.218 54.8021 159.693 55.3417 160.048 55.9591C160.402 56.5764 160.63 57.259 160.718 57.9664C160.806 58.6738 160.751 59.3917 160.558 60.0776C160.365 60.7635 160.037 61.4036 159.593 61.9598L148.354 76.0465Z" fill="#3F3D56"/>
<path d="M194.703 147H81.6666C81.6275 147 81.5888 146.993 81.5528 146.978C81.5167 146.963 81.4839 146.941 81.4562 146.913C81.4286 146.885 81.4066 146.853 81.3917 146.816C81.3767 146.78 81.369 146.741 81.369 146.702C81.369 146.663 81.3767 146.624 81.3917 146.588C81.4066 146.552 81.4286 146.519 81.4562 146.491C81.4839 146.463 81.5167 146.441 81.5528 146.426C81.5888 146.412 81.6275 146.404 81.6666 146.404H194.703C194.742 146.404 194.781 146.412 194.817 146.426C194.853 146.441 194.886 146.463 194.914 146.491C194.941 146.519 194.963 146.552 194.978 146.588C194.993 146.624 195.001 146.663 195.001 146.702C195.001 146.741 194.993 146.78 194.978 146.816C194.963 146.853 194.941 146.885 194.914 146.913C194.886 146.941 194.853 146.963 194.817 146.978C194.781 146.993 194.742 147 194.703 147Z" fill="#CACACA"/>
</g>
<defs>
<clipPath id="clip0_68_596">
<rect width="195" height="147" fill="white"/>
</clipPath>
</defs>
</svg>
