<svg width="184" height="148" viewBox="0 0 184 148" fill="none" xmlns="http://www.w3.org/2000/svg">
<g clip-path="url(#clip0_68_566)">
<path d="M128.126 144.053L124.72 144.053L123.1 130.913H128.127L128.126 144.053Z" fill="#FFB6B6"/>
<path d="M128.035 142.941L124.399 141.461L124.295 141.418L122.287 142.941C121.153 142.941 120.066 143.391 119.265 144.193C118.463 144.995 118.013 146.082 118.012 147.216V147.355H128.994V142.941H128.035Z" fill="#2F2E41"/>
<path d="M158.9 139.624L155.852 141.144L148.542 130.107L153.041 127.864L158.9 139.624Z" fill="#FFB6B6"/>
<path d="M159.182 138.24L158.403 138.628L158.323 138.668L154.414 138.97L154.297 138.978L153.178 141.234C152.675 141.484 152.227 141.831 151.859 142.255C151.491 142.679 151.21 143.171 151.031 143.704C150.853 144.236 150.782 144.798 150.821 145.358C150.861 145.919 151.01 146.465 151.261 146.968L151.322 147.091L161.15 142.193L159.182 138.24Z" fill="#2F2E41"/>
<path d="M125.816 73.4277L144.597 74.0852L144.728 73.895C144.728 73.895 146.33 77.6337 146.33 80.8383C146.33 81.9037 145.589 88.8724 145.965 90.1909C146.012 90.3549 145.69 90.7567 145.796 91.5203C145.864 92.0157 146.243 91.6346 146.33 92.3214C146.392 92.8143 145.726 93.0865 145.796 93.6567C145.872 94.2796 146.788 96.2975 146.87 96.9904C147.748 104.368 148.918 115.056 148.918 115.056C148.918 115.056 153.613 127.635 154.606 127.839C156.273 128.182 157.399 131.214 156.475 131.845C156.035 132.145 150.349 134.165 150.349 134.165C150.037 134.222 149.059 133.731 149.682 132.572C149.797 132.358 149.113 132.901 148.999 132.646C148.879 132.374 149.116 131.293 148.977 130.991C147.735 128.282 145.827 124.529 144.019 122.601C141.347 119.753 139.656 116.126 139.19 112.249L135.043 89.2491L133.622 95.6988L132.446 96.8613L132.769 99.5716L132.713 102.202L129.776 113.151C129.776 113.151 129.336 133.599 130.043 134.248C130.426 134.6 132.052 138.932 128.975 139.322L123.385 138.891C123.385 138.891 122.632 137.303 123.008 136.738C123.385 136.173 123.362 136.327 122.903 135.403C122.443 134.478 122.632 132.911 122.632 132.911C121.899 125.547 121.61 118.146 121.766 110.748C122.047 98.5963 123.745 84.6365 123.745 84.352C123.759 84.0613 123.706 83.7712 123.588 83.5047V82.7377L124.31 80.02L125.816 73.4277Z" fill="#2F2E41"/>
<path d="M152.245 75.7245C156.341 75.7245 159.662 72.403 159.662 68.3058C159.662 64.2086 156.341 60.8872 152.245 60.8872C148.149 60.8872 144.828 64.2086 144.828 68.3058C144.828 72.403 148.149 75.7245 152.245 75.7245Z" fill="#339900"/>
<path d="M151.233 72.167C151.105 72.167 150.979 72.1371 150.864 72.0798C150.749 72.0225 150.65 71.9393 150.573 71.8368L148.55 69.1382C148.485 69.0515 148.437 68.9528 148.41 68.8479C148.383 68.7429 148.377 68.6337 148.393 68.5264C148.408 68.4191 148.444 68.3159 148.5 68.2226C148.555 68.1294 148.628 68.0479 148.715 67.9829C148.801 67.9179 148.9 67.8706 149.005 67.8437C149.11 67.8168 149.219 67.8109 149.326 67.8262C149.434 67.8415 149.537 67.8778 149.63 67.9331C149.723 67.9883 149.805 68.0613 149.87 68.148L151.193 69.9134L154.593 64.8122C154.654 64.7219 154.731 64.6444 154.821 64.584C154.911 64.5236 155.012 64.4815 155.118 64.4602C155.224 64.4389 155.334 64.4387 155.44 64.4597C155.547 64.4808 155.648 64.5225 155.738 64.5827C155.828 64.6428 155.906 64.7202 155.966 64.8103C156.026 64.9004 156.068 65.0015 156.089 65.1078C156.111 65.2142 156.111 65.3237 156.09 65.43C156.069 65.5364 156.027 65.6375 155.966 65.7277L151.92 71.7995C151.846 71.9093 151.748 71.9999 151.632 72.0638C151.517 72.1277 151.388 72.163 151.256 72.1667C151.248 72.1668 151.241 72.167 151.233 72.167Z" fill="white"/>
<path d="M155.912 76.1487C155.985 75.8453 155.99 75.5298 155.927 75.2243C155.864 74.9189 155.735 74.6309 155.549 74.3807C155.363 74.1305 155.124 73.9241 154.85 73.7762C154.575 73.6283 154.272 73.5423 153.96 73.5244L150.16 60.573L147.589 63.5573L151.679 75.6837C151.684 76.2087 151.881 76.7139 152.233 77.1033C152.585 77.4928 153.068 77.7396 153.589 77.7969C154.111 77.8542 154.636 77.7181 155.064 77.4143C155.492 77.1105 155.794 76.6602 155.912 76.1487Z" fill="#FFB8B8"/>
<path d="M153.231 69.8304L152.737 68.0198L153.303 66.9382L153.261 66.8127L153.09 66.3267L152.203 65.6163L152.521 64.711L151.4 61.5251L151.125 60.9723L144.688 48.0445L143.144 44.944L142.787 44.3832L141.673 42.6367L140.151 40.2519C139.909 39.8708 139.594 39.5416 139.224 39.2835C138.853 39.0253 138.435 38.8435 137.994 38.7485C137.851 38.7171 137.707 38.6948 137.562 38.6817L137.457 38.6737C137.198 38.6593 136.937 38.6746 136.68 38.7191H136.675C136.223 38.7975 135.792 38.9684 135.41 39.2211C135.108 39.4162 134.84 39.6578 134.614 39.9368C134.094 40.5817 133.824 41.3923 133.853 42.2201L133.901 43.5233L133.949 44.709L136.208 48.7949L136.355 49.0619L136.357 49.0699L143.307 61.648L145.403 65.4401L145.721 66.0169L147.131 66.9516L146.754 67.8916L146.864 69.355L148.062 70.2603L149.8 72.0255L149.87 72.1697L150.404 71.9L150.455 71.8733L150.575 71.8386L152.227 71.3392L153.231 71.0374L153.263 71.0267L153.538 70.9573L153.231 69.8304Z" fill="#E6E6E6"/>
<path d="M181.802 128.624C181.298 127.984 180.615 127.509 179.839 127.261C179.063 127.013 178.231 127.003 177.45 127.233L177.279 127.284L175.747 133.268C175.517 132.376 175.026 130.363 174.716 128.392L174.689 128.229L174.537 128.296C172.935 129.004 171.429 129.912 170.054 130.998C167.619 132.952 165.639 135.412 164.251 138.209C162.862 141.006 162.099 144.071 162.015 147.192L162.013 147.307L162.01 147.379L162.213 147.307L166.567 145.75C168.495 145.92 170.437 145.657 172.25 144.981C174.064 144.304 175.703 143.231 177.049 141.84C178.809 139.984 180.016 137.597 181.182 135.287C181.524 134.614 181.874 133.92 182.232 133.252C182.631 132.526 182.803 131.697 182.727 130.872C182.65 130.047 182.328 129.264 181.802 128.624Z" fill="#F2F2F2"/>
<path d="M70.0544 29.2794H69.5204V8.70508H108.142V9.23918H70.0544V29.2794Z" fill="#3F3D56"/>
<path d="M114.065 14.8373C118.161 14.8373 121.482 11.5158 121.482 7.41864C121.482 3.32144 118.161 0 114.065 0C109.969 0 106.648 3.32144 106.648 7.41864C106.648 11.5158 109.969 14.8373 114.065 14.8373Z" fill="#339900"/>
<path d="M113.053 11.2798C112.925 11.2798 112.799 11.2499 112.684 11.1926C112.57 11.1353 112.47 11.0521 112.393 10.9496L110.37 8.25099C110.305 8.1643 110.258 8.06565 110.231 7.96067C110.204 7.85569 110.198 7.74644 110.213 7.63917C110.228 7.53189 110.265 7.42868 110.32 7.33544C110.375 7.24219 110.448 7.16073 110.535 7.09572C110.622 7.0307 110.72 6.98339 110.825 6.9565C110.93 6.92961 111.039 6.92366 111.147 6.93899C111.254 6.95432 111.357 6.99063 111.45 7.04584C111.543 7.10106 111.625 7.1741 111.69 7.2608L113.014 9.02615L116.414 3.92498C116.474 3.83471 116.551 3.75715 116.641 3.69675C116.731 3.63636 116.832 3.5943 116.939 3.57298C117.045 3.55167 117.154 3.55152 117.261 3.57254C117.367 3.59356 117.468 3.63533 117.558 3.69548C117.649 3.75563 117.726 3.83297 117.786 3.92308C117.847 4.01319 117.889 4.11431 117.91 4.22065C117.931 4.32698 117.931 4.43646 117.91 4.54282C117.889 4.64918 117.847 4.75033 117.787 4.8405L113.74 10.9123C113.667 11.0221 113.568 11.1127 113.453 11.1766C113.337 11.2405 113.208 11.2758 113.076 11.2795C113.069 11.2796 113.061 11.2798 113.053 11.2798Z" fill="white"/>
<path d="M43.8893 79.2297H43.3553V99.804H81.9774V99.2699H43.8893V79.2297Z" fill="#3F3D56"/>
<path d="M87.9 107.236C91.9963 107.236 95.317 103.915 95.317 99.8178C95.317 95.7206 91.9963 92.3992 87.9 92.3992C83.8037 92.3992 80.483 95.7206 80.483 99.8178C80.483 103.915 83.8037 107.236 87.9 107.236Z" fill="#339900"/>
<path d="M86.8882 103.679C86.7601 103.679 86.6338 103.649 86.5193 103.592C86.4047 103.534 86.3051 103.451 86.2283 103.349L84.2048 100.65C84.1398 100.563 84.0925 100.465 84.0656 100.36C84.0387 100.255 84.0328 100.146 84.0481 100.038C84.0634 99.9311 84.0997 99.8279 84.1549 99.7346C84.2101 99.6414 84.2832 99.5599 84.3698 99.4949C84.4565 99.4299 84.5551 99.3826 84.6601 99.3557C84.765 99.3288 84.8743 99.3228 84.9815 99.3382C85.0888 99.3535 85.192 99.3898 85.2852 99.445C85.3784 99.5002 85.4598 99.5733 85.5248 99.66L86.8487 101.425L90.2487 96.3242C90.3088 96.2339 90.3861 96.1563 90.4761 96.0959C90.5661 96.0355 90.6672 95.9935 90.7735 95.9722C90.8798 95.9508 90.9892 95.9507 91.0956 95.9717C91.2019 95.9927 91.3031 96.0345 91.3933 96.0947C91.4835 96.1548 91.561 96.2322 91.6213 96.3223C91.6816 96.4124 91.7235 96.5135 91.7448 96.6198C91.766 96.7262 91.766 96.8356 91.7449 96.942C91.7238 97.0484 91.6819 97.1495 91.6217 97.2397L87.5748 103.311C87.5016 103.421 87.4031 103.512 87.2876 103.576C87.1722 103.64 87.0431 103.675 86.9112 103.679C86.9035 103.679 86.8959 103.679 86.8882 103.679Z" fill="white"/>
<path d="M146.597 79.9862C146.604 80.5485 146.514 81.1079 146.33 81.6392L146.289 81.6312C141.547 82.4515 137.317 82.5858 135.361 79.6744C132.808 76.4229 129.296 76.4597 125.379 77.8872L124.914 77.3851L124.124 76.5332L124.85 75.7107L124.124 74.1244L124.73 72.1669L125.504 72.0254L125.296 70.3403L124.97 69.3549L125.926 68.3054L126.738 65.6856L126.153 60.2031C125.353 52.6881 126.903 45.1099 130.59 38.5133L132.809 36.5211L133.73 35.6933L134.966 33.386L136.272 33.5382L139.807 33.9468L139.927 34.2352L140.795 36.3289L145.366 41.2399L145.16 43.3122L145.069 44.2255L145.003 44.8825L144.688 48.0443L143.403 60.9615L143.307 61.6479L142.274 69.0745C143.953 70.6982 145.438 73.8253 146.151 76.6828C146.231 77.0005 146.004 77.3237 146.063 77.6334C146.145 78.0714 146.506 78.488 146.546 78.8966C146.583 79.2585 146.6 79.6223 146.597 79.9862Z" fill="#E6E6E6"/>
<path d="M137.543 32.5591C140.934 32.5591 143.683 29.8096 143.683 26.418C143.683 23.0263 140.934 20.2769 137.543 20.2769C134.152 20.2769 131.403 23.0263 131.403 26.418C131.403 29.8096 134.152 32.5591 137.543 32.5591Z" fill="#FFB6B6"/>
<path d="M144.945 24.7427C144.581 23.6096 143.584 22.6508 142.401 22.5256C142.491 21.773 142.373 21.0102 142.059 20.3203C141.745 19.6304 141.248 19.0398 140.622 18.6129C139.996 18.1859 139.265 17.939 138.508 17.8989C137.751 17.8588 136.998 18.0271 136.33 18.3855C136.189 18.215 136.005 18.084 135.798 18.0052C135.591 17.9265 135.367 17.9025 135.147 17.9358C134.709 18.008 134.296 18.1891 133.946 18.4625C133.076 19.0988 132.395 19.9591 131.975 20.9519C131.555 21.9447 131.412 23.0328 131.562 24.1003C131.559 23.5588 131.799 24.6064 132.487 24.699C133.06 24.8143 133.605 25.0394 134.093 25.3618C134.581 25.6842 135.125 25.9122 135.696 26.034C136.274 26.1184 136.422 28.4321 136.01 29.9222C135.932 30.2047 135.892 30.5836 136.153 30.7181C136.473 30.8839 136.797 30.4672 137.155 30.4266C137.316 30.424 137.472 30.4841 137.589 30.594C137.707 30.7039 137.777 30.8552 137.785 31.0159C137.786 31.1771 137.747 31.3361 137.674 31.4796C137.6 31.6231 137.494 31.7469 137.363 31.8408C137.099 32.026 136.807 32.1673 136.499 32.2594L136.602 32.4064C136.693 32.5745 136.839 32.7057 137.016 32.7778C137.192 32.8498 137.389 32.8582 137.571 32.8013C137.981 33.2967 142.212 31.9213 142.419 31.0172C143.305 30.2186 144.041 29.2678 144.592 28.2097C145.142 27.1398 145.268 25.9015 144.945 24.7427Z" fill="#2F2E41"/>
<path d="M149.91 43.4459C149.824 44.1616 149.154 44.6957 148.449 44.8453C148.091 44.9143 147.723 44.9206 147.363 44.864C147.011 44.8117 146.663 44.734 146.321 44.6316C145.9 44.5115 145.482 44.3762 145.069 44.2257C143.89 43.8044 142.753 43.2724 141.673 42.6368C140.857 42.1602 140.075 41.6265 139.334 41.0398C138.95 40.7354 138.577 40.4176 138.216 40.0865L138.667 40.3001C138.264 39.758 137.861 39.2159 137.457 38.6738C137.068 38.1503 136.679 37.6269 136.291 37.1035C136.267 37.0715 136.248 37.0501 136.24 37.0394V37.0368C136.061 36.7991 135.885 36.5614 135.709 36.3237C135.177 35.6107 134.654 34.5639 135.265 33.9203C135.396 33.7949 135.554 33.7023 135.727 33.6498C135.9 33.5974 136.083 33.5866 136.261 33.6185C136.453 33.6434 136.638 33.7031 136.809 33.7948C137.276 34.0973 137.672 34.4972 137.97 34.9671C138.387 34.3609 139.196 34.1366 139.927 34.2354C139.967 34.2381 140.004 34.2434 140.042 34.2488C140.803 34.3796 141.131 33.9683 141.791 34.3716C142.098 34.5585 142.285 35.5199 142.592 35.7068C142.765 35.8137 143.409 35.9739 143.585 36.0834C143.932 36.297 143.844 37.0955 144.194 37.3091C144.453 37.4667 145.147 37.0421 145.406 37.1996C145.678 37.3679 146.057 38.4788 146.329 38.6444C146.871 38.9782 147.307 38.3693 147.849 38.7005C148.546 39.1304 149.288 39.6084 149.581 40.3722C149.84 41.0452 149.507 41.9665 148.863 42.1588C149.171 42.1955 149.452 42.3503 149.647 42.5905C149.842 42.8307 149.937 43.1375 149.91 43.4459Z" fill="#E6E6E6"/>
<path opacity="0.2" d="M145.069 44.2256L145.003 44.8825C144.246 44.8096 143.501 44.6418 142.787 44.3831C141.846 44.0672 141.029 43.4602 140.456 42.65C140.093 42.1052 139.713 41.5631 139.334 41.0397C138.704 40.1637 138.08 39.3466 137.562 38.6816C136.929 37.8778 136.454 37.2956 136.291 37.1034C136.267 37.0713 136.248 37.0499 136.24 37.0393L136.232 37.0312L136.24 37.0366C139.412 41.0526 142.409 43.3685 145.16 43.3123C145.16 43.3123 145.483 44.3751 145.069 44.2256Z" fill="black"/>
<path d="M116.038 12.0653C115.96 12.3672 115.949 12.6826 116.006 12.9892C116.063 13.2958 116.186 13.5862 116.367 13.84C116.548 14.0937 116.783 14.3047 117.055 14.4579C117.326 14.6111 117.628 14.7029 117.939 14.7269L121.488 27.7494L124.116 24.8155L120.261 12.6121C120.267 12.0871 120.08 11.5782 119.735 11.182C119.391 10.7858 118.913 10.5297 118.393 10.4623C117.872 10.3949 117.345 10.5209 116.911 10.8163C116.477 11.1117 116.166 11.5561 116.038 12.0653Z" fill="#FFB8B8"/>
<path d="M136.875 45.3659L136.851 44.1801L134.614 39.9367L134.531 39.7818L134.526 39.7738L132.809 36.5212L124.525 20.8117L123.635 20.4848L123.68 19.2088L123.635 17.8143L122.566 17.0976L122.111 16.2334L121.465 16.4177H121.462L121.443 16.423L118.619 17.2161H118.616L118.028 17.5473L117.494 19.1496L117.378 19.9082L117.494 21.286L118.829 21.553L118.387 22.9658L119.729 27.0302C121.409 34.1337 123.702 40.2652 127.661 43.7662L127.987 44.3003L130.564 48.517C130.915 49.0938 131.43 49.5536 132.042 49.8383C132.655 50.123 133.338 50.2198 134.005 50.1167H134.008C134.461 50.0463 134.895 49.8846 135.284 49.6413C135.643 49.42 135.956 49.1328 136.208 48.7948C136.668 48.1837 136.911 47.4366 136.899 46.6717L136.875 45.3659Z" fill="#E6E6E6"/>
<path d="M183.682 147.918L111.127 148C111.043 148 110.962 147.967 110.903 147.907C110.843 147.847 110.809 147.766 110.809 147.682C110.809 147.598 110.843 147.517 110.903 147.457C110.962 147.398 111.043 147.364 111.127 147.364L183.682 147.282C183.766 147.282 183.847 147.315 183.907 147.375C183.967 147.435 184 147.516 184 147.6C184 147.684 183.967 147.765 183.907 147.825C183.847 147.884 183.766 147.918 183.682 147.918Z" fill="#CACACA"/>
<path d="M22.3281 41.0478C22.3236 37.0335 23.857 33.1701 26.6128 30.2518L17.1551 17.2317C16.7658 16.6953 16.2655 16.2491 15.6882 15.9235C15.111 15.5979 14.4704 15.4006 13.81 15.3449C13.1497 15.2892 12.4851 15.3766 11.8615 15.6009C11.2379 15.8253 10.67 16.1814 10.1964 16.6451C6.95659 19.804 4.38452 23.5819 2.63294 27.7545C0.881357 31.9271 -0.0140037 36.4092 4.06245e-05 40.9346C6.70042e-05 42.6435 0.127444 44.3501 0.381106 46.0401C0.480619 46.7083 0.724649 47.3467 1.09618 47.9108C1.46772 48.4749 1.95781 48.9512 2.53229 49.3064C3.10028 49.658 3.73812 49.8815 4.40132 49.9612C5.06453 50.0409 5.73713 49.9749 6.37223 49.7679L22.7029 44.4605C22.4543 43.3399 22.3287 42.1956 22.3281 41.0478Z" fill="#F2F2F2"/>
<path d="M23.1966 46.2068L6.21867 51.7245C5.59034 51.9276 5.013 52.2635 4.52579 52.7093C4.03858 53.1552 3.65288 53.7006 3.39482 54.3085C3.13677 54.9165 3.01238 55.5729 3.0301 56.2331C3.04782 56.8934 3.20723 57.5421 3.49753 58.1354C5.91532 63.0416 9.47944 67.2929 13.8881 70.5294C18.2968 73.7659 23.4202 75.8922 28.8246 76.7283C29.4828 76.8295 30.1551 76.787 30.7954 76.6039C31.4356 76.4208 32.0287 76.1013 32.534 75.6674C33.0385 75.2346 33.4435 74.6978 33.721 74.0937C33.9985 73.4896 34.1421 72.8327 34.1418 72.1678V56.3071C31.6272 55.6545 29.3126 54.3912 27.4033 52.6293C25.494 50.8674 24.049 48.6613 23.1966 46.2068Z" fill="#E6E6E6"/>
<path d="M74.2535 56.1167C73.9668 55.4359 73.5369 54.8249 72.9931 54.3251C72.4492 53.8253 71.8041 53.4485 71.1016 53.2204L52.585 47.2026C51.5041 49.7452 49.7743 51.9591 47.5687 53.6225C45.3632 55.286 42.7593 56.3406 40.0181 56.6807V75.9775C40.0184 76.7182 40.1789 77.4501 40.4884 78.123C40.798 78.7959 41.2493 79.3939 41.8115 79.8761C42.3736 80.3583 43.0334 80.7132 43.7454 80.9165C44.4575 81.1199 45.2052 81.1669 45.9371 81.0543C51.9532 80.1235 57.6565 77.7565 62.5642 74.1537C67.4719 70.5509 71.4394 65.8185 74.131 60.3569C74.4546 59.7004 74.633 58.9818 74.6541 58.2502C74.6753 57.5185 74.5386 56.7909 74.2535 56.1167Z" fill="#3F3D56"/>
<path d="M69.6532 11.8552C69.126 11.3391 68.4938 10.9426 67.7997 10.6928C67.1055 10.443 66.3656 10.3458 65.6305 10.4078C64.8954 10.4698 64.1823 10.6895 63.5397 11.0519C62.8971 11.4144 62.3402 11.9111 61.9068 12.5083L49.2474 29.9363C50.7038 31.3965 51.8583 33.1293 52.6451 35.0358C53.4319 36.9424 53.8355 38.9852 53.833 41.0478C53.833 41.4315 53.8144 41.8106 53.7875 42.1874L73.9103 48.7273C74.6218 48.957 75.3749 49.0288 76.117 48.9377C76.8591 48.8466 77.5724 48.5947 78.2072 48.1997C78.8421 47.8047 79.3832 47.276 79.7929 46.6504C80.2026 46.0249 80.471 45.3175 80.5795 44.5776C80.8619 42.6962 81.0037 40.7964 81.0037 38.8939C81.0193 33.8563 80.0226 28.8669 78.0727 24.222C76.1229 19.5772 73.2597 15.3717 69.6532 11.8552Z" fill="#339900"/>
<path d="M38.0805 25.2919C40.7906 25.2888 43.4553 25.9887 45.8143 27.3232L53.541 16.6859C53.9349 16.1442 54.2066 15.5234 54.3373 14.8664C54.468 14.2095 54.4546 13.532 54.2981 12.8807C54.1465 12.2418 53.8582 11.6435 53.453 11.1269C53.0478 10.6103 52.5353 10.1879 51.951 9.88865C47.1805 7.46199 41.9057 6.19338 36.5538 6.18558C31.2018 6.17779 25.9233 7.43103 21.1458 9.84378C20.5434 10.1478 20.0142 10.5793 19.5949 11.1082C19.1757 11.6372 18.8764 12.2509 18.7179 12.907C18.5615 13.5538 18.5477 14.2268 18.6772 14.8794C18.8067 15.532 19.0766 16.1487 19.468 16.6867L28.2334 28.7538C31.0242 26.509 34.4992 25.2873 38.0805 25.2919Z" fill="#E6E6E6"/>
</g>
<defs>
<clipPath id="clip0_68_566">
<rect width="184" height="148" fill="white"/>
</clipPath>
</defs>
</svg>
