<svg width="87" height="87" viewBox="0 0 87 87" fill="none" xmlns="http://www.w3.org/2000/svg">
<path d="M40.3734 2.71875C39.7617 6.3211 37.5187 6.525 35.8195 3.12656C34.732 0.815628 34.6641 0.815628 32.2852 1.56329C29.8383 2.31094 29.7703 2.37891 30.1781 4.82578C30.518 6.86485 30.3141 7.54453 29.4305 8.08828C28.4789 8.63203 27.7312 8.29219 26.032 6.66094C23.925 4.62188 23.925 4.62188 21.8859 5.77734C19.9828 6.93282 19.9148 7.13672 20.5945 9.65157C21.5461 13.4578 20.5266 14.2734 17.1281 12.3703L14.4773 10.875L13.05 12.4383C11.2148 14.4094 11.2148 14.6133 12.982 17.0602C14.0695 18.6234 14.2055 19.3031 13.5938 20.0508C12.982 20.7984 12.3703 20.8664 9.92344 20.1188L6.93281 19.2352L5.91328 21.4102C4.89375 23.5172 4.89375 23.6531 6.93281 25.6242C9.51562 28.207 8.97188 29.2266 5.16563 29.2266C2.37891 29.2266 2.175 29.3625 1.76719 31.4016C1.42734 33.1688 1.56328 33.8484 2.51484 34.4602C6.25312 36.975 6.32109 37.1109 5.50547 38.6063C5.09766 39.4219 4.14609 40.1016 3.39844 40.1016C0.883594 40.1016 0 40.9172 0 43.2281C0 45.2672 0.203906 45.5391 2.71875 46.2188C4.21406 46.6266 5.4375 47.2383 5.4375 47.5781C5.4375 47.85 5.57344 48.5977 5.77734 49.0734C6.04922 49.6852 5.23359 50.4328 3.67031 51.1805C1.63125 52.2 1.29141 52.6758 1.63125 53.8992C1.83516 54.7148 2.03906 55.8023 2.03906 56.2102C2.03906 56.8219 3.12656 57.0938 5.02969 57.0938C8.97188 57.0938 9.51562 58.5211 6.72891 61.0359C4.62187 62.9391 4.62187 62.9391 5.70937 65.182C6.66094 66.9492 7.13672 67.2891 8.36016 66.9492C9.17578 66.6773 10.3992 66.3375 11.0789 66.1336C11.7586 65.9977 12.7781 66.2016 13.3219 66.6094C14.1375 67.357 14.0695 67.7648 12.8461 69.8039L11.3508 72.1828L13.118 73.882L14.8172 75.6492L17.1961 74.1539C19.3031 72.8625 19.643 72.8625 20.3906 73.7461C21.0703 74.5617 21.1383 75.3773 20.5266 77.2125C19.8469 79.5234 19.9148 79.6594 21.9539 80.9508L24.1289 82.2422L25.8961 80.1352C27.4594 78.232 27.7992 78.0961 29.1586 78.8438C30.45 79.5234 30.6539 79.9992 30.3141 81.9023C29.9062 83.9414 30.0422 84.2133 32.0133 84.893C35.0039 85.9125 35.0719 85.9125 36.0234 83.6016C36.4992 82.4461 37.1109 81.3586 37.3828 81.2227C38.4703 80.543 40.1016 81.7664 40.1016 83.2617C40.1016 86.2523 40.7812 87 43.5 87C46.2188 87 46.8984 86.2523 46.8984 83.2617C46.8984 81.7664 48.5297 80.543 49.6172 81.2227C49.8891 81.3586 50.5008 82.4461 50.9766 83.6016C51.9281 85.9125 51.9961 85.9125 54.9867 84.893C56.9578 84.2133 57.0938 83.9414 56.6859 81.9023C56.3461 79.9992 56.55 79.5234 57.8414 78.8438C59.2008 78.0961 59.5406 78.232 61.1039 80.1352L62.8711 82.2422L65.0461 80.9508C67.0852 79.6594 67.1531 79.5234 66.4734 77.2125C65.8617 75.3773 65.9297 74.5617 66.6094 73.7461C67.357 72.8625 67.6969 72.8625 69.8039 74.1539L72.1828 75.6492L73.882 73.882L75.6492 72.1828L74.1539 69.8039C72.9305 67.7648 72.8625 67.357 73.6781 66.6094C74.2219 66.2016 75.2414 65.9977 75.9211 66.1336C76.6008 66.3375 77.8242 66.6773 78.6398 66.9492C79.8633 67.2891 80.3391 66.9492 81.2906 65.182C82.3781 62.9391 82.3781 62.9391 80.2711 61.0359C77.4844 58.5211 78.0281 57.0938 81.9703 57.0938C83.8734 57.0938 84.9609 56.8219 84.9609 56.2102C84.9609 55.8023 85.1648 54.7148 85.3688 53.8992C85.7086 52.6758 85.3688 52.2 83.3297 51.1805C81.7664 50.4328 80.9508 49.6852 81.2227 49.0734C81.4266 48.5977 81.5625 47.85 81.5625 47.5781C81.5625 47.2383 82.7859 46.6266 84.2812 46.2188C86.7961 45.5391 87 45.2672 87 43.2281C87 40.9172 86.1164 40.1016 83.6016 40.1016C82.8539 40.1016 81.9023 39.4219 81.4945 38.6063C80.8148 37.3828 80.8828 36.975 81.9703 36.2273C85.5727 33.8484 85.7086 33.7125 85.2328 31.4016C84.825 29.3625 84.6211 29.2266 81.8344 29.2266C78.0281 29.2266 77.4844 28.207 80.0672 25.6242C82.1062 23.6531 82.1062 23.5172 81.0867 21.4102L80.0672 19.2352L77.0766 20.1188C74.6297 20.8664 74.018 20.7984 73.4062 20.0508C72.7945 19.3031 72.9305 18.6234 74.018 17.0602C75.7852 14.6133 75.7852 14.4094 73.95 12.4383L72.5227 10.875L69.8719 12.3703C66.4734 14.2734 65.4539 13.4578 66.4055 9.65157C67.0852 7.13672 67.0172 6.93282 65.1141 5.77734C63.075 4.62188 63.075 4.62188 60.968 6.66094C59.2687 8.29219 58.5211 8.63203 57.5695 8.08828C56.6859 7.54453 56.482 6.86485 56.8219 4.82578C57.2297 2.37891 57.1617 2.31094 54.7148 1.56329C52.3359 0.815628 52.268 0.815628 51.1805 3.12656C49.4813 6.525 47.2383 6.3211 46.6266 2.71875C46.2188 0.0679703 46.1508 0 43.5 0C40.8492 0 40.7812 0.0679703 40.3734 2.71875ZM50.7727 15.3609C54.375 17.6039 56.9578 21.4781 57.2297 25.2164L57.4336 27.5273L46.4227 27.7313C34.4602 27.9352 34.4602 27.9352 36.1594 31.6055C37.043 33.6445 39.8977 35.3438 42.3445 35.3438C46.5586 35.3438 49.5492 40.9172 45.8109 41.8688C41.1211 43.0242 33.9164 39.9656 30.8578 35.4117C28.8187 32.2852 28.1391 27.1875 29.2266 23.2453C30.1781 19.7109 34.5961 14.9531 38.0625 13.7977C42.0047 12.4383 47.1023 13.118 50.7727 15.3609ZM24.8766 31.9453L27.5273 32.2852L25.3523 33.8484C23.4492 35.2078 23.2453 35.6156 23.7891 37.1109C24.8766 39.8977 24.6047 40.3055 22.4297 38.7422L20.3906 37.3148L18.5555 38.6742C16.3805 40.4414 15.9047 40.1016 16.8562 37.4508C17.5359 35.5477 17.4 35.2078 15.4289 33.6445L13.2539 31.9453H16.1766C17.7398 31.9453 19.0312 31.6734 19.0312 31.3336C19.0312 30.9938 19.3711 29.8383 19.7789 28.7508L20.5266 26.8477L21.4102 29.2266C22.0898 31.2656 22.5656 31.6734 24.8766 31.9453ZM57.0938 31.4695C57.0938 32.4891 54.8508 36.8391 54.2391 36.975C53.6953 37.043 50.2969 32.1492 50.2969 31.2656C50.2969 30.8578 51.8602 30.5859 53.6953 30.5859C56.0062 30.5859 57.0938 30.8578 57.0938 31.4695ZM22.4977 53.0156C23.857 53.4234 25.4883 54.307 26.168 55.0547C27.3914 56.4141 27.3914 56.4141 29.1586 54.7828C30.1102 53.8312 31.8094 52.8797 32.8969 52.6078C34.732 52.2 34.868 52.268 34.3922 53.7633C34.0523 54.6469 33.7125 56.482 33.5086 57.7734C33.3047 59.0648 32.0133 62.4633 30.6539 65.25C29.2266 68.0367 27.7992 71.3672 27.3234 72.5906L26.5758 74.8336L23.7891 72.9984C21.9539 71.775 21.0703 70.7555 21.3422 70.0758C21.4781 69.4641 22.1578 67.6289 22.7695 65.9977C23.7211 63.3469 23.7211 62.8711 22.8375 61.5117C20.8664 58.4531 16.1766 58.4531 14.8172 61.5117C13.9336 63.5508 13.3219 63.2109 11.5547 59.8805C10.3992 57.5016 10.3313 57.1617 11.3508 55.7344C13.3898 52.8117 17.8078 51.7242 22.4977 53.0156ZM54.6469 53.6953C56.8898 55.0547 57.1617 55.4625 60.1523 62.1914C62.1914 66.9492 64.2305 69.3281 66.1336 69.3281C67.493 69.3281 67.493 69.3281 66.0656 70.8914C65.318 71.707 63.6867 72.9305 62.5312 73.6102L60.4242 74.9016L57.9094 72.2508C56.55 70.8234 54.8508 68.0367 54.1711 66.2016C52.5398 61.5797 51.1805 59.8125 49.3453 59.8125C47.1703 59.8125 46.8984 60.832 46.8984 69.0562V76.125H43.568H40.2375L39.8977 68.7844C39.6937 64.7742 39.3539 60.4922 39.082 59.2688C38.4703 56.618 40.2375 54.1031 42.2766 54.7828C42.9562 54.9867 43.5 54.8508 43.5 54.5109C43.5 54.1031 44.3156 53.4914 45.4031 53.1516C48.4617 51.9961 52.3359 52.2 54.6469 53.6953Z" fill="black" fill-opacity="0.6"/>
<path d="M38.6742 21.0704L37.043 22.3618H43.1602H49.2773L47.6461 21.0704C46.6266 20.1868 45.0633 19.711 43.1602 19.711C41.257 19.711 39.6937 20.1868 38.6742 21.0704Z" fill="black" fill-opacity="0.6"/>
</svg>
