<svg width="224" height="48" viewBox="0 0 224 48" fill="none" xmlns="http://www.w3.org/2000/svg">
<path d="M15.2386 0.311825C6.40517 1.68952 -0.159145 9.30736 0.00293703 18.1408C0.0839779 26.0828 4.13602 31.8367 11.8349 35.0784C16.7784 37.1854 20.1011 37.1854 25.6119 35.1594C38.5784 30.297 42.0632 14.3319 32.0951 5.09324C27.6379 0.879112 21.965 -0.741707 15.2386 0.311825ZM25.2877 10.523C31.5278 15.7096 29.3397 25.5966 21.4788 27.7847C17.913 28.8382 13.6988 27.5416 11.2676 24.5431C7.29662 19.8427 7.53974 15.5475 11.997 11.0903C14.3472 8.74008 15.2386 8.41591 18.7234 8.41591C21.965 8.41591 23.3427 8.90216 25.2877 10.523Z" fill="black" fill-opacity="0.6"/>
<path d="M42.2252 2.82409C40.5233 3.79658 40.2802 7.60551 41.739 9.06424C42.9546 10.2799 46.6825 10.2799 47.8981 9.06424C49.2758 7.68655 49.1137 4.68803 47.5739 3.2293C46.1152 1.77056 44.2512 1.60848 42.2252 2.82409Z" fill="black" fill-opacity="0.6"/>
<path d="M162.49 3.22919C158.924 5.66042 161.274 10.3608 165.894 9.87455C167.758 9.71247 168.568 9.06414 169.216 7.28124C169.865 5.33626 169.703 4.76897 168.082 3.47232C165.813 1.60838 164.84 1.52734 162.49 3.22919Z" fill="black" fill-opacity="0.6"/>
<path d="M51.3018 19.3565V35.9698H54.9487H58.5955V19.3565V2.74308H54.9487H51.3018V19.3565Z" fill="black" fill-opacity="0.6"/>
<path d="M134.774 19.3565V35.9698H138.421H142.068V19.3565V2.74308H138.421H134.774V19.3565Z" fill="black" fill-opacity="0.6"/>
<path d="M65.8892 8.25386C65.8892 9.87468 62.7286 13.2784 61.1888 13.2784C60.6215 13.2784 60.2163 14.1698 60.2163 15.2234C60.2163 16.7632 60.7026 17.2494 62.4855 17.4925L64.6736 17.7356L64.9167 25.4345C65.1598 34.8353 66.0513 35.9698 72.8587 35.9698H77.2349V33.1334C77.2349 30.9453 76.9107 30.297 75.7762 30.297C73.2639 30.297 72.3724 28.5141 72.3724 23.3275V18.2219L75.0468 17.9788C77.2349 17.8167 77.7211 17.3304 77.8832 15.4665C78.1263 13.4405 77.9643 13.2784 75.2899 13.2784C72.4535 13.2784 72.3724 13.1974 72.3724 10.0368V6.79513H69.1308C66.5375 6.79513 65.8892 7.11929 65.8892 8.25386Z" fill="black" fill-opacity="0.6"/>
<path d="M85.0959 14.1698C80.9628 16.3579 78.8557 20.0047 78.8557 24.9482C78.8557 33.7007 87.7702 39.3735 95.307 35.4836C97.0089 34.5111 97.9003 34.43 98.1434 35.0784C98.3055 35.5646 100.088 35.9698 102.033 35.9698H105.599V24.6241V13.2783H101.952C99.278 13.2783 98.3055 13.6025 98.3055 14.494C98.3055 16.1148 97.7382 16.0337 95.307 14.0888C92.7137 12.0627 89.0669 12.0627 85.0959 14.1698ZM95.307 18.9512C97.9814 21.0583 98.7918 24.6241 97.171 27.7036C94.1724 33.6196 86.9598 31.5126 86.9598 24.7862C86.9598 21.5445 87.9323 19.6806 90.6066 18.3029C92.7947 17.0873 92.9568 17.0873 95.307 18.9512Z" fill="black" fill-opacity="0.6"/>
<path d="M118.971 13.7646C117.431 14.5751 116.459 14.6561 116.297 14.1698C116.135 13.6836 114.352 13.2784 112.407 13.2784H108.841V24.6241V35.9698H112.488H116.135V28.0278C116.135 21.0583 116.378 19.8427 117.755 18.5461C119.133 17.3304 119.7 17.2494 121.402 17.9788C123.347 18.8702 123.428 19.1133 123.428 27.4606V35.9698H127.48H131.532V27.5416C131.532 17.7356 130.884 15.4665 127.561 13.6836C124.482 12.1438 122.051 12.1438 118.971 13.7646Z" fill="black" fill-opacity="0.6"/>
<path d="M182.993 13.8457C181.372 14.7371 180.562 14.8182 180.319 14.1698C180.157 13.6836 178.374 13.2784 176.429 13.2784H172.863V24.6241V35.9698H176.51H180.157V28.271C180.157 21.6256 180.4 20.329 181.778 18.9513C182.669 18.0598 183.885 17.3304 184.452 17.3304C186.883 17.3304 187.451 19.3565 187.451 27.6226V35.9698H191.503H195.555V26.9743C195.555 17.1684 195.068 15.5475 191.503 13.6836C188.504 12.1438 186.073 12.1438 182.993 13.8457Z" fill="black" fill-opacity="0.6"/>
<path d="M203.416 14.1697C195.149 18.5459 195.636 32.0798 204.145 35.6456C207.792 37.1854 210.061 37.1043 213.627 35.2404L216.625 33.7006V36.0508C216.625 37.3474 215.896 39.1303 215.004 40.0218C213.059 41.9668 209.169 42.1289 207.711 40.427C207.062 39.6166 205.198 39.2114 202.362 39.2114C198.553 39.2114 198.067 39.3735 198.553 40.5891C198.796 41.3995 199.931 43.0203 201.065 44.2359C205.28 48.8552 217.355 48.8552 221.569 44.398C223.433 42.372 223.514 41.8047 223.757 27.7846L224 13.2783H220.353C218.408 13.2783 216.625 13.6835 216.463 14.1697C216.22 14.8181 215.329 14.737 213.627 13.7645C210.223 12.0627 207.224 12.1437 203.416 14.1697ZM215.004 20.4099C219.624 26.2448 213.059 34.0248 207.062 29.8106C204.712 28.1898 204.469 21.5445 206.738 19.5995C209.737 16.9251 212.573 17.2493 215.004 20.4099Z" fill="black" fill-opacity="0.6"/>
<path d="M40.7665 24.6241V35.9698H44.4134H48.0602V24.6241V13.2784H44.4134H40.7665V24.6241Z" fill="black" fill-opacity="0.6"/>
<path d="M146.606 18.0598L142.878 22.8412L146.525 28.7572C148.551 31.9989 150.496 34.9974 150.901 35.4026C151.225 35.7267 153.413 35.9699 155.683 35.8078L159.816 35.5647L155.845 29.2435C153.575 25.8398 151.793 22.6792 151.793 22.355C151.793 22.0308 152.522 20.8963 153.494 19.7617C154.386 18.6271 155.845 16.7632 156.736 15.4665L158.357 13.2784H154.305C150.334 13.2784 150.172 13.3595 146.606 18.0598Z" fill="black" fill-opacity="0.6"/>
<path d="M161.517 24.6241V35.9698H165.164H168.811V24.6241V13.2784H165.164H161.517V24.6241Z" fill="black" fill-opacity="0.6"/>
</svg>
