<svg width="125" height="125" viewBox="0 0 125 125" fill="none" xmlns="http://www.w3.org/2000/svg">
<g clip-path="url(#clip0_269_3)">
<path opacity="0.979" fill-rule="evenodd" clip-rule="evenodd" d="M124.875 3.375C124.875 38.0418 124.875 72.7082 124.875 107.375C91.4583 107.375 58.0418 107.375 24.625 107.375C24.625 105.458 24.625 103.542 24.625 101.625C53.2918 101.625 81.9583 101.625 110.625 101.625C110.625 69.875 110.625 38.125 110.625 6.375C102.792 6.375 94.9583 6.375 87.125 6.375C87.125 5.375 87.125 4.375 87.125 3.375C99.7083 3.375 112.292 3.375 124.875 3.375Z" fill="black" fill-opacity="0.6"/>
<path opacity="0.984" fill-rule="evenodd" clip-rule="evenodd" d="M-0.125 15.625C33.9582 15.625 68.0418 15.625 102.125 15.625C102.125 17.4583 102.125 19.2917 102.125 21.125C72.7083 21.125 43.2917 21.125 13.875 21.125C13.875 53.2918 13.875 85.4582 13.875 117.625C21.7083 117.625 29.5417 117.625 37.375 117.625C37.375 118.708 37.375 119.792 37.375 120.875C24.875 120.875 12.375 120.875 -0.125 120.875C-0.125 85.7918 -0.125 50.7082 -0.125 15.625Z" fill="#030303" fill-opacity="0.6"/>
<path opacity="0.885" fill-rule="evenodd" clip-rule="evenodd" d="M88.125 30.875C89.9583 30.875 91.7917 30.875 93.625 30.875C93.625 32.9583 93.625 35.0418 93.625 37.125C91.7917 37.125 89.9583 37.125 88.125 37.125C88.125 35.0418 88.125 32.9583 88.125 30.875Z" fill="black" fill-opacity="0.79"/>
<path opacity="0.957" fill-rule="evenodd" clip-rule="evenodd" d="M42.875 43.375C51.819 42.7413 57.1108 46.8248 58.75 55.625C59.7625 61.4288 58.7625 66.8455 55.75 71.875C50.9515 77.1515 45.2433 78.4433 38.625 75.75C37.6355 75.1915 36.7605 74.4833 36 73.625C35.875 79.7078 35.8333 85.791 35.875 91.875C34.125 91.875 32.375 91.875 30.625 91.875C30.625 75.9583 30.625 60.0418 30.625 44.125C31.961 44.0835 33.2943 44.1253 34.625 44.25C35.0953 45.3378 35.4703 46.4628 35.75 47.625C37.7008 45.4635 40.0758 44.0468 42.875 43.375ZM42.375 48.125C48.276 47.678 51.8178 50.3445 53 56.125C53.8858 60.5075 53.3025 64.674 51.25 68.625C48.5905 72.0735 45.1323 73.1985 40.875 72C39.025 71.3045 37.4 70.2628 36 68.875C35.8333 63.375 35.8333 57.875 36 52.375C37.6135 50.1738 39.7385 48.757 42.375 48.125Z" fill="black" fill-opacity="0.6"/>
<path opacity="0.939" fill-rule="evenodd" clip-rule="evenodd" d="M70.875 43.375C74.8242 43.0265 78.616 43.6097 82.25 45.125C82.4167 46.7082 82.4167 48.2917 82.25 49.875C78.3402 48.0442 74.2985 47.6692 70.125 48.75C67.8327 50.126 67.1245 52.0845 68 54.625C68.92 55.8167 70.1282 56.6085 71.625 57C74.1672 57.5105 76.6672 58.1772 79.125 59C83.2022 61.4107 84.6605 64.9525 83.5 69.625C82.3385 73.2857 79.8802 75.5775 76.125 76.5C71.2467 77.6162 66.4967 77.2412 61.875 75.375C61.5417 73.7917 61.5417 72.2082 61.875 70.625C65.722 72.3722 69.722 72.8305 73.875 72C77.4402 70.91 78.6485 68.6185 77.5 65.125C77.0417 64.6667 76.5832 64.2082 76.125 63.75C72.431 62.5765 68.7645 61.3265 65.125 60C62.3602 57.7917 61.3185 54.9167 62 51.375C62.3825 48.7455 63.6742 46.7037 65.875 45.25C67.4695 44.3447 69.1362 43.7197 70.875 43.375Z" fill="black" fill-opacity="0.6"/>
<path opacity="0.942" fill-rule="evenodd" clip-rule="evenodd" d="M88.375 44.125C90.2083 44.125 92.0417 44.125 93.875 44.125C93.875 54.875 93.875 65.625 93.875 76.375C92.0417 76.375 90.2083 76.375 88.375 76.375C88.375 65.625 88.375 54.875 88.375 44.125Z" fill="black" fill-opacity="0.6"/>
</g>
<defs>
<clipPath id="clip0_269_3">
<rect width="125" height="125" fill="white"/>
</clipPath>
</defs>
</svg>
