<svg width="174" height="79" viewBox="0 0 174 79" fill="none" xmlns="http://www.w3.org/2000/svg">
<path d="M88.1263 0.908805C84.645 1.4273 79.0155 2.83466 75.6083 3.87166C69.3863 5.87158 58.4978 10.5381 58.4978 11.2047C58.4978 11.4269 60.2755 10.7603 62.4236 9.87143C86.5708 -0.868905 119.384 0.464378 123.532 12.2417C125.236 17.2786 119.533 24.6857 110.718 28.7596C106.866 30.5373 93.4594 34.9075 87.1634 36.3889C82.9413 37.4259 85.9782 35.5742 93.2372 32.6854C97.3852 31.1299 100.718 29.6485 100.718 29.4262C100.718 29.204 98.4222 29.13 95.6075 29.2781C90.5707 29.5744 90.5707 29.5744 86.5708 33.5742L82.645 37.5741L87.1634 37.1297C89.6818 36.9074 91.9039 37.0556 92.1262 37.4259C92.3484 37.7963 92.2002 39.3518 91.7558 40.8332C90.8669 44.0924 89.0152 44.9812 83.1635 44.9812C76.0527 44.9812 72.8676 41.8702 73.0158 34.9075C73.1639 30.0929 75.5342 24.8338 78.7933 22.3895C83.7561 18.6118 91.978 18.76 93.6816 22.5376C94.3483 24.1672 94.7927 24.2413 103.237 24.2413H112.051L111.607 21.2043C110.718 14.3157 105.237 12.0195 89.6077 12.0195C80.3488 12.0195 78.2008 12.2417 74.0528 13.7231C66.8678 16.1675 62.3495 19.9451 59.2385 26.019C56.8682 30.6855 56.646 31.6484 56.646 37.5C56.646 42.9813 56.8682 44.2405 58.3497 46.3145C62.3495 51.8698 71.9047 53.9438 87.6078 52.4624C93.015 52.018 99.3851 51.2032 101.755 50.6847L106.2 49.7958L107.089 45.7219C107.533 43.4998 108.496 39.0555 109.163 35.9445L110.422 30.241L114.273 28.093C125.532 21.7228 131.014 15.5749 130.051 10.6121C129.31 6.98265 125.458 3.64944 119.977 1.87173C113.755 -0.128192 97.3852 -0.646691 88.1263 0.908805Z" fill="black" fill-opacity="0.6"/>
<path d="M55.4609 13.2047L53.6832 14.6862L55.7571 13.4269C56.8682 12.7603 57.7571 12.0937 57.7571 11.9455C57.7571 11.3529 57.1645 11.6492 55.4609 13.2047Z" fill="black" fill-opacity="0.6"/>
<path d="M5.24054 63.2769C3.90726 63.9436 2.12955 65.5731 1.38884 66.7583C-0.462945 69.7952 -0.462945 74.758 1.38884 76.3875C3.16655 78.0171 9.90703 78.6837 15.4624 77.7949C19.7585 77.1282 19.7585 77.2023 20.9437 71.0544L21.4622 68.6841H16.3512C11.907 68.6841 11.2403 68.8323 10.87 70.1655C10.5737 71.3507 10.87 71.647 12.2773 71.647C13.5365 71.647 14.055 72.0914 14.055 73.0543C14.055 75.6468 9.68482 76.1653 7.38861 73.8691C5.6109 72.0914 5.98126 69.2767 8.35154 66.6101C9.90703 64.9065 13.6106 64.388 14.4254 65.7213C14.9439 66.6101 22.2029 66.7583 22.2029 65.8694C22.2029 65.4991 21.7584 64.6102 21.1659 63.7954C19.6844 61.7955 8.94411 61.3511 5.24054 63.2769Z" fill="black" fill-opacity="0.6"/>
<path d="M27.0175 62.9065C26.8694 63.425 26.0546 66.9804 25.3139 70.684L23.8324 77.5726H27.0916C30.1285 77.5726 30.2766 77.4986 30.7951 74.9801C31.3136 71.8691 32.0544 71.3506 34.4987 71.9432C35.9801 72.3136 36.2764 72.9061 36.2764 74.9801C36.2764 77.5726 36.2764 77.5726 39.6096 77.5726H42.9428V74.6098C42.9428 72.6099 42.5725 71.4247 41.8318 71.2025C40.2763 70.6099 40.4244 69.8692 42.4243 69.0544C43.5354 68.5359 44.128 67.573 44.2761 65.8694C44.4983 63.8694 44.202 63.3509 42.5725 62.7584C39.6837 61.6473 27.3879 61.7954 27.0175 62.9065ZM37.6838 66.0175C38.7948 67.3508 36.869 69.4248 34.4246 69.4248C32.2025 69.4248 31.8321 68.7581 32.6469 66.6101C33.3876 64.7583 36.3505 64.3879 37.6838 66.0175Z" fill="black" fill-opacity="0.6"/>
<path d="M49.2389 62.9065C49.0907 63.425 48.35 66.9804 47.5352 70.684L46.0538 77.5726H49.2389H52.4239L53.6091 72.1654C56.0534 61.0547 56.1275 62.0177 52.6462 62.0177C50.7944 62.0177 49.4611 62.388 49.2389 62.9065Z" fill="black" fill-opacity="0.6"/>
<path d="M58.9422 66.9804C58.3496 69.7951 57.6089 73.2765 57.3867 74.7579L56.8682 77.5726H59.5348C61.831 77.5726 62.2013 77.2763 62.6458 75.4986C62.868 74.3876 63.5346 72.0173 63.9791 70.1655C65.016 66.536 65.1642 66.6842 67.016 73.2765L68.2011 77.5726H72.9417H77.6082L78.7933 72.5358C79.3859 69.7951 80.1266 66.3138 80.3488 64.7583L80.8673 62.0177H78.2748C75.4601 62.0177 75.2379 62.2399 74.349 67.573C73.4602 72.9061 72.8676 72.8321 71.164 67.2767L69.5344 62.0177H64.8679H60.1273L58.9422 66.9804Z" fill="black" fill-opacity="0.6"/>
<path d="M84.1264 68.0174C83.3857 71.4247 82.645 74.9801 82.4228 75.869C82.0525 77.5726 82.1265 77.5726 89.6818 77.5726C98.5703 77.5726 101.533 76.3875 103.385 72.0173C104.866 68.4619 104.718 66.8323 102.718 64.5361C101.089 62.6102 100.496 62.5362 93.2372 62.1658L85.4597 61.8695L84.1264 68.0174ZM97.0148 67.2767C98.7185 70.4618 95.3112 74.6098 90.941 74.6098C89.5337 74.6098 89.4596 74.3135 89.9781 71.2025C90.7188 66.0916 91.0151 65.7212 93.7557 65.7212C95.5334 65.7212 96.4963 66.1657 97.0148 67.2767Z" fill="black" fill-opacity="0.6"/>
<path d="M109.237 62.9065C109.088 63.425 108.274 66.9804 107.533 70.684L106.052 77.5726H109.311C112.348 77.5726 112.496 77.4986 113.014 74.9801C113.533 71.8691 114.273 71.3506 116.718 71.9432C118.199 72.3136 118.496 72.9061 118.496 74.9801C118.496 77.5726 118.496 77.5726 121.829 77.5726H125.162V74.6098C125.162 72.6099 124.792 71.4247 124.051 71.2025C122.495 70.6099 122.644 69.8692 124.643 69.0544C125.755 68.5359 126.347 67.573 126.495 65.8694C126.717 63.8694 126.421 63.3509 124.792 62.7584C121.903 61.6473 109.607 61.7954 109.237 62.9065ZM119.903 66.0175C121.014 67.3508 119.088 69.4248 116.644 69.4248C114.422 69.4248 114.051 68.7581 114.866 66.6101C115.607 64.7583 118.57 64.3879 119.903 66.0175Z" fill="black" fill-opacity="0.6"/>
<path d="M133.606 63.4251C130.125 65.4991 128.865 67.7953 128.865 71.7951C128.865 74.758 129.162 75.4987 130.791 76.5357C135.31 79.5726 144.865 78.2393 148.124 74.0913C149.828 71.9433 150.717 68.0175 149.976 65.7954C149.235 63.4251 145.754 62.0177 140.569 62.0177C137.31 62.0177 135.236 62.4622 133.606 63.4251ZM142.791 65.8694C144.42 67.499 143.828 70.9063 141.532 73.2025C138.939 75.795 138.273 75.8691 136.199 73.7951C135.087 72.684 134.791 71.7211 135.162 70.3137C136.199 66.0916 140.495 63.5732 142.791 65.8694Z" fill="black" fill-opacity="0.6"/>
<path d="M155.161 62.9065C155.013 63.425 154.272 66.9804 153.457 70.684L151.976 77.5726H159.383C167.753 77.5726 170.79 76.6097 172.79 73.2024C174.271 70.684 174.419 66.536 173.086 64.6842C171.827 62.9806 167.531 62.0917 160.864 62.0177C157.235 62.0177 155.383 62.3139 155.161 62.9065ZM166.494 66.6101C169.086 69.2026 165.679 74.6098 161.383 74.6098C159.383 74.6098 159.087 74.3876 159.457 72.9061C159.679 72.0173 160.124 70.0174 160.346 68.4619C160.864 65.9434 161.087 65.7212 163.235 65.7212C164.568 65.7212 165.975 66.0916 166.494 66.6101Z" fill="black" fill-opacity="0.6"/>
</svg>
