<svg width="483" height="201" viewBox="0 0 483 201" fill="none" xmlns="http://www.w3.org/2000/svg">
<path fill-rule="evenodd" clip-rule="evenodd" d="M150.591 100.5C149.051 100.579 147.663 101.041 146.427 101.886C135.047 95.0492 123.481 88.5803 111.728 82.4794C111.728 82.0173 111.728 81.5552 111.728 81.0932C119.731 75.4672 128.059 70.1535 136.711 65.1518C140.595 62.499 144.758 61.1128 149.203 60.9932C160.488 67.4177 171.591 74.1178 182.513 81.0932C172.115 87.9058 161.473 94.3747 150.591 100.5Z" fill="black" fill-opacity="0.6"/>
<path opacity="0.437" fill-rule="evenodd" clip-rule="evenodd" d="M281.056 71.3896C281.056 76.0103 281.056 80.6311 281.056 85.2517C277.354 85.2517 273.654 85.2517 269.953 85.2517C272.877 83.9096 276.116 83.4474 279.668 83.8655C279.238 79.4115 279.7 75.2529 281.056 71.3896Z" fill="#9F9E9E"/>
<path fill-rule="evenodd" clip-rule="evenodd" d="M324.082 70.0034C332.608 70.7328 334.458 74.6604 329.634 81.7862C324.5 82.9276 321.26 80.8483 319.918 75.5482C320.851 73.2478 322.239 71.3996 324.082 70.0034Z" fill="black" fill-opacity="0.6"/>
<path opacity="0.985" fill-rule="evenodd" clip-rule="evenodd" d="M347.677 82.4793C346.357 84.4459 345.895 86.7561 346.289 89.4103C348.603 89.4103 350.915 89.4103 353.228 89.4103C353.228 92.1827 353.228 94.9551 353.228 97.7275C350.915 97.7275 348.603 97.7275 346.289 97.7275C346.289 104.659 346.289 111.59 346.289 118.521C343.513 118.521 340.737 118.521 337.961 118.521C337.961 106.045 337.961 93.5689 337.961 81.093C337.813 77.7617 339.201 75.2204 342.125 73.4689C352.1 66.5689 356.264 69.1103 354.616 81.093C352.129 80.9073 349.817 81.3693 347.677 82.4793Z" fill="black" fill-opacity="0.6"/>
<path opacity="0.995" fill-rule="evenodd" clip-rule="evenodd" d="M281.056 71.3896C284.294 71.3896 287.533 71.3896 290.772 71.3896C291.227 87.3481 290.765 103.058 289.384 118.521C289.615 103.265 289.384 88.0172 288.69 72.7759C288.874 88.1411 287.717 103.158 285.22 117.828C286.044 118.471 286.97 118.702 287.996 118.521C266.953 125.016 257.932 117.16 260.931 94.9552C261.438 89.2777 264.445 86.0431 269.953 85.2517C273.654 85.2517 277.354 85.2517 281.056 85.2517C281.056 80.6311 281.056 76.0103 281.056 71.3896ZM274.116 92.1828C275.966 92.1828 277.818 92.1828 279.668 92.1828C279.668 99.1138 279.668 106.045 279.668 112.976C276.584 113.422 274.039 112.498 272.034 110.203C270.616 103.787 271.31 97.7798 274.116 92.1828Z" fill="black" fill-opacity="0.6"/>
<path fill-rule="evenodd" clip-rule="evenodd" d="M289.384 118.521C288.921 118.521 288.458 118.521 287.996 118.521C286.97 118.702 286.044 118.471 285.22 117.828C287.717 103.158 288.874 88.1412 288.69 72.7759C289.384 88.0172 289.615 103.265 289.384 118.521Z" fill="black" fill-opacity="0.6"/>
<path opacity="0.556" fill-rule="evenodd" clip-rule="evenodd" d="M111.728 81.0931C111.728 81.5552 111.728 82.0173 111.728 82.4793C111.302 96.4556 111.764 110.318 113.116 124.066C111.273 117.429 110.348 110.267 110.341 102.579C110.341 95.1708 110.804 88.0088 111.728 81.0931Z" fill="#F38684"/>
<path fill-rule="evenodd" clip-rule="evenodd" d="M111.728 82.4792C123.481 88.5802 135.047 95.0491 146.427 101.886C147.315 115.828 146.389 129.228 143.651 142.086C132.966 136.757 122.788 130.75 113.116 124.065C111.764 110.318 111.302 96.4555 111.728 82.4792Z" fill="black" fill-opacity="0.6"/>
<path fill-rule="evenodd" clip-rule="evenodd" d="M207.496 83.8655C213.966 82.901 219.75 84.2872 224.845 88.0242C226.245 90.138 226.939 92.4484 226.927 94.9552C224.569 95.1221 222.256 95.5841 219.987 96.3414C217.673 95.4172 215.361 94.4932 213.047 93.569C211.09 94.0788 209.703 95.234 208.884 97.0345C210.062 101.341 210.526 105.5 210.272 109.51C213.608 111.721 216.616 111.028 219.293 107.431C229.728 108.108 230.884 111.574 222.763 117.828C213.59 123.085 205.956 121.467 199.862 112.976C198.936 105.583 198.936 98.1896 199.862 90.7966C202.263 88.1601 204.807 85.8498 207.496 83.8655Z" fill="black" fill-opacity="0.6"/>
<path opacity="0.999" fill-rule="evenodd" clip-rule="evenodd" d="M257.461 92.1828C257.461 96.8034 257.461 101.424 257.461 106.045C251.447 106.045 245.432 106.045 239.418 106.045C239.089 107.834 239.551 109.221 240.806 110.203C244.347 112.211 247.586 111.749 250.522 108.817C252.835 110.435 255.148 112.052 257.461 113.669C248.097 123.897 239.075 123.666 230.397 112.976C229.471 105.583 229.471 98.1896 230.397 90.7966C236.778 83.6645 244.412 82.0473 253.297 85.9449C255.575 87.5099 256.963 89.5892 257.461 92.1828ZM240.806 93.569C244.676 92.9825 247.451 94.3687 249.134 97.7276C246.502 99.0661 243.726 99.5282 240.806 99.1138C240.806 97.2656 240.806 95.4172 240.806 93.569Z" fill="black" fill-opacity="0.6"/>
<path opacity="0.993" fill-rule="evenodd" clip-rule="evenodd" d="M300.487 83.8656C304.676 83.6374 308.84 83.8683 312.978 84.5587C318.24 87.6782 318.24 91.1437 312.978 94.9552C310.815 94.1601 308.733 93.236 306.733 92.1828C305.772 92.911 305.078 93.835 304.651 94.9552C307.443 97.182 310.681 98.7992 314.366 99.8069C320.534 104.953 321.228 110.729 316.448 117.135C307.804 123.199 300.171 122.275 293.547 114.362C294.332 111.722 295.72 109.411 297.711 107.431C299.944 109.356 302.488 110.742 305.345 111.59C307.121 111.432 308.278 110.508 308.815 108.817C302.717 107.464 297.86 104.229 294.241 99.1138C292.543 92.3575 294.624 87.2747 300.487 83.8656Z" fill="black" fill-opacity="0.6"/>
<path opacity="0.31" fill-rule="evenodd" clip-rule="evenodd" d="M321.306 83.8655C325.008 83.8655 328.708 83.8655 332.409 83.8655C332.409 95.8793 332.409 107.893 332.409 119.907C328.708 119.907 325.008 119.907 321.306 119.907C321.306 107.893 321.306 95.8793 321.306 83.8655Z" fill="#B3B2B2"/>
<path opacity="0.961" fill-rule="evenodd" clip-rule="evenodd" d="M322.694 85.2517C325.47 85.2517 328.246 85.2517 331.022 85.2517C331.022 96.3414 331.022 107.431 331.022 118.521C328.246 118.521 325.47 118.521 322.694 118.521C322.694 107.431 322.694 96.3414 322.694 85.2517Z" fill="black" fill-opacity="0.6"/>
<path opacity="0.485" fill-rule="evenodd" clip-rule="evenodd" d="M337.961 81.0931C337.961 93.569 337.961 106.045 337.961 118.521C340.737 118.521 343.513 118.521 346.289 118.521C346.289 111.59 346.289 104.659 346.289 97.7276C348.602 97.7276 350.915 97.7276 353.228 97.7276C353.228 94.9552 353.228 92.1828 353.228 89.4104C350.915 89.4104 348.602 89.4104 346.289 89.4104C345.895 86.7562 346.357 84.446 347.677 82.4793C347.677 84.3276 347.677 86.1759 347.677 88.0242C349.99 88.0242 352.303 88.0242 354.616 88.0242C354.616 91.7208 354.616 95.4172 354.616 99.1138C352.303 99.1138 349.99 99.1138 347.677 99.1138C347.677 106.045 347.677 112.976 347.677 119.907C343.975 119.907 340.275 119.907 336.573 119.907C336.119 106.717 336.582 93.7793 337.961 81.0931Z" fill="#B0AFAF"/>
<path opacity="0.998" fill-rule="evenodd" clip-rule="evenodd" d="M150.591 100.5C150.128 101.424 149.665 102.348 149.203 103.272C147.352 116.21 147.352 129.148 149.203 142.086C147.352 143.934 145.501 143.934 143.651 142.086C146.389 129.228 147.315 115.828 146.427 101.886C147.663 101.041 149.051 100.579 150.591 100.5Z" fill="#6A7D52"/>
<path fill-rule="evenodd" clip-rule="evenodd" d="M149.203 103.272C160.685 109.01 171.788 115.478 182.513 122.679C171.788 129.88 160.685 136.349 149.203 142.086C147.352 129.148 147.352 116.21 149.203 103.272Z" fill="black" fill-opacity="0.6"/>
<path opacity="0.117" fill-rule="evenodd" clip-rule="evenodd" d="M257.461 92.1827C258.824 96.9816 259.286 102.064 258.849 107.431C252.195 106.604 246.182 107.528 240.806 110.203C239.551 109.221 239.089 107.834 239.418 106.045C245.432 106.045 251.447 106.045 257.461 106.045C257.461 101.424 257.461 96.8034 257.461 92.1827Z" fill="black" fill-opacity="0.6"/>
</svg>
