<svg width="234" height="62" viewBox="0 0 234 62" fill="none" xmlns="http://www.w3.org/2000/svg">
<path d="M35.6701 0.0406062C32.7573 0.234309 29.8662 0.729327 27.3982 1.47544C26.2289 1.82698 24.7438 2.36504 24.2631 2.60179C20.6186 4.42403 18.2727 7.98241 18.2727 11.6986C18.2727 12.3013 18.287 12.373 18.5597 12.9182C19.2699 14.3459 20.5541 15.3862 22.3978 16.039C23.3735 16.3834 24.5788 16.656 26.523 16.9788C28.9335 17.3806 30.2823 17.646 30.7845 17.8254C31.3153 18.0119 31.7386 18.2845 31.8462 18.5141C32.0184 18.8872 31.6095 19.3678 30.7773 19.7552C30.3755 19.9418 30.3181 19.9489 28.8546 19.9705C26.3293 20.0135 24.5716 19.7552 21.8813 18.9374C20.7837 18.6074 18.6027 17.7393 17.2827 17.108C16.7087 16.8353 16.2281 16.6201 16.2209 16.6345C16.2065 16.6488 15.3528 18.6432 14.3197 21.0609L12.4473 25.4659L12.6123 25.6094C12.8992 25.8389 14.0184 26.3411 15.0371 26.6927C18.8323 27.984 24.4353 28.9812 30.2894 29.3973C31.8749 29.5049 36.3014 29.5049 37.6788 29.3973C45.5489 28.7516 50.291 26.585 52.2352 22.7253C52.7805 21.6492 53.0746 20.2359 53.0746 18.7222C53.0746 17.2801 52.9096 16.4982 52.4146 15.6373C51.9339 14.7907 50.8721 13.8939 49.753 13.3846C48.6768 12.9039 46.3883 12.2295 43.7769 11.6269C41.9116 11.1964 41.1296 10.6369 41.5529 10.0271C41.9475 9.47464 43.124 9.25942 45.4269 9.31681C48.519 9.39573 51.403 10.2064 55.4134 12.1291C56.016 12.4161 56.5254 12.6313 56.5397 12.6098C56.6043 12.5021 59.8829 4.6823 59.8829 4.63208C59.8829 4.58186 59.8112 4.54599 58.118 3.88596C53.0603 1.92024 47.572 0.628888 42.1986 0.148219C40.7207 0.0119095 37.0475 -0.0454839 35.6701 0.0406062Z" fill="black" fill-opacity="0.6"/>
<path d="M63.6206 2.10674C61.0594 8.39849 59.6102 12.043 57.623 17.2227C56.4392 20.2933 54.2583 26.0756 53.7418 27.4961L53.505 28.1633H62.6306H71.7561L72.8896 25.3798C74.1953 22.1872 75.171 19.9704 75.2714 19.9561C75.3504 19.9489 77.0937 22.259 78.8872 24.7628C79.5401 25.6667 80.3723 26.8002 80.7382 27.2809L81.4125 28.1633H92.4895H103.566L103.007 27.2092C102.691 26.6926 100.89 23.6508 98.9893 20.4583L95.5457 14.6544L95.8111 14.4607C96.9877 13.6069 109.908 4.84727 109.937 4.87597C109.959 4.89749 111.358 8.54914 113.043 12.9971L116.121 21.0824L114.894 24.526C114.227 26.42 113.66 28.0127 113.639 28.0629C113.61 28.149 115.088 28.1633 122.772 28.1633H131.947L133.095 25.0641L134.243 21.9577L146.281 11.4834L158.327 1.00909L148.728 0.987565L139.136 0.973217L135.011 5.07684C132.033 8.03978 130.878 9.15177 130.843 9.07286C130.814 9.01546 130.369 7.1717 129.86 4.96923L128.941 0.973217H111.106H93.2714L92.3747 1.51845C91.0188 2.35066 88.6728 3.91463 85.8175 5.8947C82.2519 8.37696 79.2746 10.3499 79.2172 10.2853C79.2101 10.2709 80.0136 8.19761 81.018 5.6723C82.0223 3.14699 82.8402 1.05931 82.8402 1.02344C82.8402 0.994739 78.6218 0.973217 73.4636 0.973217H64.0797L63.6206 2.10674Z" fill="black" fill-opacity="0.6"/>
<path d="M138.964 21.9004C138.921 22.0224 131.144 41.9451 131.072 42.1316C131.043 42.2033 132.385 42.2249 137.622 42.2249H144.215L144.588 41.2635C144.796 40.7398 145.413 39.3121 145.966 38.0925C146.511 36.8729 147.013 35.7466 147.078 35.5959C147.142 35.4381 147.207 35.3305 147.221 35.3448C147.35 35.474 148.348 37.6334 149.094 39.3911C149.596 40.5748 150.084 41.694 150.177 41.8805L150.349 42.2249H157.803H165.257L165.379 41.9164C166.01 40.3524 173.12 22.0654 173.149 21.9363L173.177 21.7785L166.57 21.7928L159.955 21.8143L158.291 25.7171C157.157 28.3787 156.612 29.584 156.569 29.5194C156.533 29.462 155.737 27.7043 154.804 25.6166L153.097 21.8143L146.052 21.7928C139.394 21.7785 139.007 21.7856 138.964 21.9004Z" fill="black" fill-opacity="0.6"/>
<path d="M177.145 21.9004C176.972 22.3452 169.54 41.737 169.461 41.9522L169.368 42.2249H183.3H197.232L198.488 39.0539C199.177 37.3177 199.75 35.847 199.765 35.7968C199.786 35.7107 198.753 35.6964 193.509 35.6964C188.387 35.6964 187.224 35.682 187.224 35.6031C187.224 35.5529 187.382 35.1224 187.569 34.6489L187.913 33.7952L194.19 33.7737L200.461 33.7593L201.336 31.4779C201.817 30.2296 202.233 29.1535 202.254 29.0889C202.29 28.9885 201.745 28.9742 196.156 28.9742C192.784 28.9742 190.001 28.9526 189.979 28.9311C189.951 28.9096 190.065 28.5222 190.223 28.0774L190.51 27.2667L196.845 27.2308L203.18 27.195L204.206 24.5764C204.765 23.1344 205.224 21.9148 205.224 21.8646C205.232 21.8 202.383 21.7785 191.213 21.7785C177.927 21.7785 177.195 21.7856 177.145 21.9004Z" fill="black" fill-opacity="0.6"/>
<path d="M207.434 21.8646C207.219 22.3883 204.945 28.185 204.945 28.2065C204.945 28.2209 206.222 28.2352 207.778 28.2352C209.83 28.2352 210.612 28.2567 210.612 28.3141C210.612 28.3787 205.906 41.3783 205.626 42.0957C205.576 42.2177 205.942 42.2249 212.664 42.2249H219.759L222.414 35.8901C223.87 32.4106 225.19 29.2611 225.341 28.9024L225.621 28.2352L228.497 28.2209L231.374 28.1993L232.687 25.0786C233.405 23.364 234 21.9148 234 21.8646C234 21.8 231.303 21.7785 220.735 21.7785C210.189 21.7785 207.463 21.8 207.434 21.8646Z" fill="black" fill-opacity="0.6"/>
<path d="M6.22721 45.9697C6.18417 46.0845 0.452002 60.5046 2.89834e-05 61.6453C-0.0286677 61.717 21.2428 61.7385 106.206 61.7385H212.449L215.584 53.8972C217.306 49.5927 218.733 46.0056 218.762 45.9338C218.805 45.819 213.719 45.8119 112.548 45.8119H6.29178L6.22721 45.9697ZM199.091 49.9729C200.368 50.1594 200.626 50.5755 200.231 51.8166L200.109 52.1969H198.682C197.57 52.1969 197.261 52.1754 197.29 52.1036C197.304 52.0606 197.347 51.9458 197.369 51.8525L197.426 51.6875L195.92 51.709C194.434 51.7306 194.406 51.7306 194.226 51.9027C194.004 52.118 193.99 52.2758 194.191 52.4551C194.327 52.5771 194.513 52.5986 196.113 52.6417C198.007 52.6919 198.466 52.7636 199.04 53.1008C199.564 53.4093 199.664 53.8182 199.464 54.7868C199.148 56.2503 198.129 56.9892 195.941 57.3408C194.922 57.5058 191.651 57.5058 190.869 57.3408C190.245 57.2116 189.793 57.0036 189.635 56.774C189.47 56.5373 189.499 56.0781 189.707 55.5042L189.893 54.9948H191.364H192.835L192.792 55.167C192.77 55.2602 192.727 55.3894 192.705 55.454C192.67 55.5544 192.806 55.5687 194.018 55.5687C195.446 55.5687 195.798 55.5113 195.869 55.2746C195.984 54.9231 195.625 54.8083 194.277 54.7509C193.114 54.7078 192.325 54.5644 191.723 54.2989C191.278 54.098 190.847 53.6819 190.768 53.3734C190.69 53.0578 190.79 52.448 190.991 52.0247C191.479 50.9844 192.627 50.2096 193.982 49.9801C194.513 49.894 198.488 49.8868 199.091 49.9729ZM211.724 49.9801C212.98 50.1594 213.231 50.5755 212.851 51.8166L212.736 52.1969H211.315C210.533 52.1969 209.895 52.1897 209.895 52.1754C209.895 52.1682 209.924 52.0534 209.959 51.9243L210.031 51.6947H208.625C207.484 51.6947 207.183 51.7162 206.982 51.8095C206.666 51.9601 206.588 52.2256 206.803 52.4336C206.946 52.5843 207.039 52.5915 208.733 52.6417C210.634 52.6919 211.093 52.7636 211.667 53.1008C212.191 53.4093 212.291 53.8182 212.09 54.7868C211.774 56.2503 210.756 56.9892 208.568 57.3408C207.621 57.4986 204.442 57.5129 203.653 57.3695C202.204 57.1112 201.903 56.6807 202.348 55.5329L202.548 55.0307L203.998 55.0092C205.576 54.9876 205.533 54.9805 205.375 55.3894L205.303 55.5759L206.774 55.5544C208.166 55.5329 208.252 55.5257 208.395 55.375C208.776 54.9948 208.345 54.8154 206.946 54.7581C205.253 54.6863 204.206 54.3922 203.675 53.8469C203.115 53.273 203.338 52.1036 204.163 51.2284C204.794 50.5612 205.497 50.1881 206.487 50.0088C207.104 49.894 210.985 49.8724 211.724 49.9801ZM34.4432 50.1164C35.8135 50.4679 36.6385 51.3073 36.6385 52.3691C36.6385 52.8139 36.3516 53.7824 36.0144 54.4567C35.5337 55.4181 34.7948 56.0925 33.5895 56.6807C32.2623 57.3336 31.9897 57.3838 29.6078 57.4197C27.9219 57.4412 27.4771 57.4268 27.0754 57.3336C26.0638 57.0968 25.3177 56.5803 24.9733 55.8844C24.8011 55.5329 24.7868 55.4324 24.8155 54.9374C24.8657 54.22 25.3105 53.0147 25.7697 52.3691C26.5158 51.3288 28.008 50.4536 29.6078 50.1092C30.5405 49.9155 33.6612 49.9155 34.4432 50.1164ZM47.9235 50.1092C48.5118 50.2025 48.8848 50.3818 49.179 50.719C49.7744 51.3934 49.4588 52.8426 48.519 53.7752C48.1459 54.1411 47.615 54.4926 47.4213 54.4926C47.3711 54.4926 47.328 54.5213 47.328 54.5644C47.328 54.6002 47.3567 54.6361 47.3998 54.6361C47.4357 54.6361 47.5504 54.7652 47.6581 54.9159C47.9379 55.3463 47.9092 55.7768 47.5504 56.5588C47.3998 56.9031 47.2563 57.2475 47.242 57.3264C47.2204 57.4627 47.1559 57.4699 45.5489 57.4914L43.8844 57.5058V57.2905C43.8844 57.1686 43.9634 56.8816 44.0638 56.6449C44.279 56.1355 44.2862 55.9203 44.1068 55.7553C43.9921 55.6548 43.8055 55.6405 42.5931 55.6548L41.2085 55.6763L40.7995 56.5731L40.3978 57.4699L38.7262 57.4914C37.1479 57.5058 37.0618 57.4986 37.0977 57.3766C37.1192 57.3049 37.7649 55.6333 38.5325 53.6676L39.9315 50.0805L41.3161 50.0375C43.2818 49.9729 47.3424 50.0231 47.9235 50.1092ZM176.298 50.2025C176.8 50.3459 177.166 50.6401 177.338 51.0347C177.79 52.0462 176.951 53.7824 175.717 54.385L175.308 54.5859L175.48 54.7724C175.918 55.2387 175.932 55.6835 175.538 56.5659C175.387 56.9031 175.236 57.2547 175.215 57.3408C175.165 57.5058 175.157 57.5058 173.515 57.5058H171.872V57.3049C171.872 57.1901 171.951 56.9031 172.051 56.6592C172.266 56.1211 172.273 55.9705 172.087 55.784C171.951 55.6477 171.865 55.6405 170.566 55.6548L169.196 55.6763L168.787 56.5731L168.385 57.4699L166.721 57.4914C165.802 57.4986 165.056 57.4914 165.056 57.4771C165.056 57.4555 167.703 50.6401 167.904 50.1307C167.969 49.9801 175.774 50.0446 176.298 50.2025ZM11.328 52.4336L11.3496 54.7581L13.2507 52.4336L15.1519 50.1164L16.8019 50.1307L18.452 50.1522L18.5381 52.3978C18.5811 53.6389 18.6314 54.6648 18.6529 54.6791C18.6672 54.7007 19.4636 53.6748 20.4249 52.4121L22.1682 50.1164H23.8398C24.7653 50.1164 25.5186 50.1307 25.5186 50.1522C25.5186 50.2455 22.1395 54.7652 20.8697 56.3722L19.9729 57.5058H17.6126H15.2595V57.2834C15.2595 57.1614 15.3241 56.4009 15.403 55.5903C15.4891 54.7796 15.5465 54.0765 15.5321 54.0263C15.5178 53.9761 14.7717 54.7437 13.8749 55.7266L12.2392 57.5058L10.1802 57.4914L8.12119 57.4699L8.07815 55.8557C8.04945 54.9661 8.00641 53.316 7.98488 52.1754L7.93466 50.1164H9.62059H11.3137L11.328 52.4336ZM55.9801 50.1738C55.9658 50.2025 55.5281 51.3718 55.0116 52.7708C54.5022 54.1698 54.0574 55.375 54.0359 55.4396C53.9857 55.5616 54.122 55.5687 56.2168 55.5687C58.0032 55.5687 58.448 55.5903 58.448 55.662C58.448 55.7122 58.2902 56.1427 58.1037 56.6162L57.7593 57.4699L53.8278 57.4914L49.8964 57.5058L49.9323 57.3479C49.961 57.2547 50.5851 55.5903 51.3241 53.6461L52.6728 50.1164H54.3444C55.2627 50.1164 56.0016 50.1451 55.9801 50.1738ZM70.4145 50.2742C71.1248 50.5612 71.6485 51.0921 71.9139 51.7808C71.9857 51.9817 72.0287 52.3332 72.0359 52.7708C72.0431 53.8541 71.6844 54.7078 70.8522 55.6046C69.8765 56.6449 68.5851 57.2403 66.8777 57.434C66.1029 57.5201 59.6676 57.5345 59.6676 57.4412C59.6676 57.4125 60.2631 55.7911 60.9948 53.8398C61.7266 51.8884 62.3364 50.2527 62.3579 50.2025C62.3866 50.1307 63.1327 50.1164 66.2463 50.1307C69.6684 50.1522 70.1419 50.1666 70.4145 50.2742ZM77.0363 50.7046C77.0435 51.0347 77.065 52.0749 77.0937 53.0147L77.1367 54.7294L79.0307 52.4193L80.9319 50.1164H82.5604H84.1889L84.2248 50.4177C84.2535 50.5899 84.2894 51.5512 84.3181 52.5556C84.3468 53.56 84.3898 54.4567 84.4113 54.55C84.4472 54.6935 84.6983 54.3922 86.1762 52.4193L87.898 50.1235H89.6054C90.9542 50.1164 91.3057 50.1379 91.2627 50.2025C91.2268 50.2527 90.4735 51.2786 89.5839 52.4838C88.1204 54.4639 87.5178 55.2602 86.1834 56.9462L85.7457 57.4986H83.3998C82.1084 57.5058 81.0395 57.4842 81.0251 57.4484C81.0036 57.4197 81.0682 56.6377 81.1614 55.7122C81.2547 54.7868 81.3265 54.0048 81.3121 53.9689C81.3049 53.9402 80.5588 54.7222 79.6549 55.7122L78.012 57.5058H75.953H73.894L73.851 56.157C73.8223 55.4181 73.7792 53.7608 73.7577 52.4623L73.7075 50.1164H75.3647H77.0291L77.0363 50.7046ZM107.096 50.3746C108.179 50.8912 108.689 51.9171 108.524 53.2587C108.251 55.4253 106.171 57.1184 103.409 57.4268C102.519 57.5273 96.1842 57.5345 96.1842 57.434C96.1842 57.3838 98.2718 51.7593 98.8314 50.3101L98.9103 50.1092L102.763 50.1307L106.623 50.1522L107.096 50.3746ZM147.2 51.1925C147.472 51.7664 147.702 52.2614 147.716 52.2973C147.731 52.3332 148.412 51.8597 149.237 51.2427L150.729 50.1164H152.623C153.757 50.1164 154.51 50.1451 154.496 50.1809C154.489 50.2168 153.463 51.0921 152.229 52.1251L149.99 54.0048L150.127 54.2343C150.414 54.7078 151.856 57.3408 151.856 57.391C151.856 57.4125 150.995 57.4268 149.947 57.4197L148.039 57.3982L147.365 56.2862C146.992 55.6763 146.662 55.167 146.633 55.1598C146.604 55.1455 145.916 55.6548 145.098 56.2862L143.605 57.434L141.525 57.4197L139.437 57.3982L141.984 55.5329L144.524 53.6748L143.634 51.9458C143.146 50.9916 142.745 50.1881 142.745 50.1594C142.745 50.1379 143.634 50.1235 144.725 50.1307L146.705 50.1522L147.2 51.1925ZM163.155 50.2598C164.303 50.4177 164.626 50.5899 164.934 51.1853C165.702 52.7062 164.109 55.0737 162.043 55.4898C161.62 55.5759 159.224 55.7122 158.061 55.7122H157.344L156.935 56.5731L156.533 57.434H154.876C153.965 57.434 153.219 57.4268 153.219 57.4125C153.219 57.4053 153.879 55.784 154.682 53.8111C156.074 50.389 156.153 50.224 156.347 50.1738C156.67 50.0948 162.509 50.1666 163.155 50.2598ZM96.1985 50.5253C96.1268 50.719 95.5241 52.3475 94.8569 54.1483L93.6373 57.434H91.9729H90.3085L90.5453 56.8386C90.6672 56.5157 91.3057 54.8872 91.9514 53.2228L93.1351 50.1881H94.7278H96.3276L96.1985 50.5253ZM119.737 50.9557C119.558 51.3862 119.393 51.7879 119.378 51.8525C119.342 51.9673 119.149 51.9817 116.896 51.996L114.457 52.0175L114.292 52.4982L114.127 52.986H116.458C117.735 52.986 118.783 53.0004 118.783 53.0219C118.783 53.0434 118.639 53.3663 118.467 53.7393L118.144 54.4209H115.863H113.582L113.395 54.9589L113.208 55.497H115.676C117.025 55.497 118.137 55.5257 118.137 55.5544C118.137 55.5831 117.965 56.0135 117.75 56.5086L117.369 57.3982L113.087 57.4197C110.554 57.4268 108.811 57.4053 108.811 57.3695C108.811 57.2977 111.436 50.3603 111.508 50.2527C111.53 50.2168 113.402 50.1881 115.806 50.1881H120.067L119.737 50.9557ZM140.305 50.2168C140.305 50.2312 140.147 50.6257 139.954 51.0921L139.602 51.9458L137.163 51.9673L134.724 51.9817L134.573 52.4264C134.487 52.6704 134.423 52.8928 134.423 52.9286C134.423 52.9573 135.47 52.9932 136.74 53.0004L139.064 53.0219L138.741 53.7178L138.419 54.4209H136.144H133.87L133.705 54.8728C133.612 55.1168 133.526 55.3607 133.511 55.4037C133.483 55.4755 133.999 55.497 135.965 55.497C137.364 55.497 138.44 55.5257 138.426 55.5616C138.419 55.5974 138.225 56.0279 138.01 56.5301L137.622 57.434H133.325C129.917 57.434 129.035 57.4125 129.063 57.3408C129.078 57.2977 129.68 55.7194 130.391 53.8469C131.101 51.9745 131.711 50.3818 131.732 50.3101C131.782 50.1953 132.055 50.1881 136.044 50.1881C138.39 50.1881 140.305 50.2025 140.305 50.2168ZM189.305 50.2168C189.305 50.2312 189.147 50.6257 188.953 51.0921L188.602 51.9458L186.163 51.9673L183.723 51.9817L183.573 52.4264C183.487 52.6704 183.422 52.8928 183.422 52.9286C183.422 52.9573 184.47 52.9932 185.739 53.0004L188.064 53.0219L187.741 53.7178L187.418 54.4209H185.144H182.863L182.676 54.9302C182.576 55.2029 182.489 55.4468 182.489 55.4683C182.489 55.4826 183.609 55.497 184.972 55.497C186.371 55.497 187.44 55.5257 187.425 55.5616C187.418 55.5974 187.224 56.0279 187.009 56.5301L186.622 57.434H182.332C179.971 57.434 178.041 57.4197 178.041 57.4125C178.041 57.3982 178.658 55.7768 179.405 53.8111C180.158 51.8453 180.768 50.224 180.768 50.2096C180.768 50.2025 182.69 50.1881 185.036 50.1881C187.382 50.1881 189.305 50.2025 189.305 50.2168Z" fill="black" fill-opacity="0.6"/>
<path d="M30.7342 51.9817C29.9522 52.1826 29.2491 52.7996 28.8832 53.6102C28.4599 54.5501 28.546 55.0953 29.1487 55.3679C29.4285 55.4899 29.5935 55.5114 30.11 55.4827C30.9135 55.4468 31.509 55.1742 32.0255 54.6146C32.3842 54.22 32.7286 53.5026 32.8003 53.0076C32.8505 52.6848 32.6855 52.3117 32.3986 52.1037C32.1762 51.9458 31.1861 51.8741 30.7342 51.9817Z" fill="black" fill-opacity="0.6"/>
<path d="M42.5716 51.9602C42.5213 52.0391 41.8757 53.5027 41.8757 53.5314C41.8757 53.5457 42.507 53.5601 43.2746 53.5601C44.774 53.5601 45.018 53.517 45.3767 53.1798C45.6708 52.9072 45.7712 52.6418 45.678 52.4122C45.5202 52.032 45.2117 51.9459 43.8414 51.9243C43.1598 51.91 42.5931 51.9243 42.5716 51.9602Z" fill="black" fill-opacity="0.6"/>
<path d="M170.43 52.2399C170.344 52.4336 170.179 52.7995 170.071 53.0506C169.956 53.3017 169.87 53.5241 169.884 53.5313C169.899 53.5456 170.537 53.56 171.319 53.5671C172.632 53.5743 172.747 53.5671 173.055 53.4165C173.579 53.1654 173.837 52.6847 173.629 52.3691C173.414 52.039 173.091 51.9601 171.778 51.9243L170.58 51.8956L170.43 52.2399Z" fill="black" fill-opacity="0.6"/>
<path d="M64.5748 52.0606C64.5174 52.161 63.3982 55.4253 63.3982 55.5042C63.3982 55.5903 66.3611 55.5903 66.8418 55.497C68.2623 55.2244 69.2093 54.0837 68.8864 53.0147C68.7788 52.6345 68.5421 52.3691 68.1331 52.1538C67.9107 52.039 67.6812 52.0175 66.2463 52.0104C65.328 52.0032 64.5963 52.0247 64.5748 52.0606Z" fill="black" fill-opacity="0.6"/>
<path d="M101.055 52.1539C101.02 52.2328 100.733 53.0291 100.424 53.9187L99.8574 55.5329L101.407 55.5544C102.254 55.5616 103.129 55.5401 103.344 55.497C104.75 55.2388 105.69 54.1268 105.41 53.0506C105.303 52.6417 105.095 52.3906 104.686 52.1754C104.42 52.0319 104.277 52.0247 102.763 52.0104C101.149 51.996 101.12 52.0032 101.055 52.1539Z" fill="black" fill-opacity="0.6"/>
<path d="M158.714 52.2041C158.657 52.3404 158.492 52.7063 158.356 53.0219L158.104 53.5959L159.41 53.6174C160.888 53.6389 161.132 53.5959 161.541 53.23C162 52.8139 161.986 52.3978 161.491 52.161C161.268 52.0463 160.996 52.0176 160.013 51.996L158.815 51.9673L158.714 52.2041Z" fill="black" fill-opacity="0.6"/>
</svg>
