<svg width="85" height="110" viewBox="0 0 85 110" fill="none" xmlns="http://www.w3.org/2000/svg">
<g clip-path="url(#clip0_257_540)">
<path fill-rule="evenodd" clip-rule="evenodd" d="M37.3237 -0.270996C37.8686 -0.270996 38.4135 -0.270996 38.9583 -0.270996C40.3312 0.684438 41.6025 1.76818 42.7724 2.98024C42.4092 2.98024 42.2276 3.16086 42.2276 3.52211C40.9844 2.92162 39.8039 2.19912 38.6859 1.35462C37.9697 6.57707 37.7881 11.8151 38.141 17.0689C39.8239 18.8131 41.3678 20.6194 42.7724 22.4876C42.3417 22.976 41.7968 23.3372 41.1378 23.5714C40.3267 21.4026 38.9645 19.5963 37.0513 18.1527C36.8697 14.1789 36.688 10.2052 36.5064 6.23147C35.601 4.56415 34.2388 3.48041 32.4199 2.98024C32.6015 2.61899 32.7831 2.25774 32.9647 1.89649C34.4723 2.19493 35.7436 2.91742 36.7789 4.06398C37.3128 2.66245 37.4945 1.21746 37.3237 -0.270996Z" fill="black" fill-opacity="0.6"/>
<path fill-rule="evenodd" clip-rule="evenodd" d="M47.6763 -0.270996C48.2212 -0.270996 48.766 -0.270996 49.3109 -0.270996C49.2212 1.36458 49.312 2.99019 49.5833 4.60585C50.3636 3.55528 51.3626 2.83278 52.5801 2.43836C52.9434 2.79961 53.3066 3.16086 53.6699 3.52211C51.8916 4.2956 50.5294 5.55998 49.5833 7.31521C49.4017 11.1083 49.2201 14.9014 49.0385 18.6945C47.7306 19.9025 46.55 21.1669 45.4968 22.4876C45.5903 21.9503 45.4086 21.589 44.9519 21.4039C45.6785 19.9758 46.6774 18.7114 47.9487 17.6108C48.4021 12.3633 48.3113 7.12528 47.6763 1.89649C46.572 2.44556 45.4823 2.98743 44.4071 3.52211C44.2209 3.06788 43.8576 2.88726 43.3173 2.98024C44.9244 2.10496 46.3774 1.02122 47.6763 -0.270996Z" fill="black" fill-opacity="0.6"/>
<path fill-rule="evenodd" clip-rule="evenodd" d="M54.2147 1.89655C54.014 3.54012 54.3772 4.98511 55.3045 6.23153C54.4216 10.9417 53.8767 15.4573 53.6699 19.7783C53.6699 14.3596 53.6699 8.94089 53.6699 3.52217C53.3066 3.16092 52.9434 2.79967 52.5801 2.43842C52.9664 1.94859 53.5113 1.76796 54.2147 1.89655Z" fill="black" fill-opacity="0.6"/>
<path fill-rule="evenodd" clip-rule="evenodd" d="M31.875 1.89661C32.2383 1.89661 32.6015 1.89661 32.9647 1.89661C32.7831 2.25786 32.6015 2.6191 32.4199 2.98035C32.2519 8.62416 32.4335 14.2235 32.9647 19.7784C32.9321 20.0727 32.7505 20.2533 32.4199 20.3203C32.0566 15.5387 31.6933 10.8425 31.3301 6.23158C30.3722 6.02735 29.4642 5.66614 28.6058 5.14784C28.0617 10.7356 27.8801 16.3349 28.0609 21.9459C29.8771 21.9459 31.6934 21.9459 33.5096 21.9459C33.9313 22.2965 34.4762 22.4772 35.1442 22.4877C36.2987 22.4563 37.0252 22.095 37.3237 21.404C38.6044 22.1415 39.8758 22.864 41.1378 23.5715C41.7968 23.3373 42.3417 22.9761 42.7724 22.4877C42.9421 16.1222 42.7605 9.8004 42.2276 3.52222C42.2276 3.16097 42.4092 2.98035 42.7724 2.98035C42.954 2.98035 43.1357 2.98035 43.3173 2.98035C43.8576 2.88738 44.2209 3.068 44.4071 3.52222C43.6828 6.57161 43.3195 9.82284 43.3173 13.2759C43.4989 16.5271 43.6806 19.7784 43.8622 23.0296C44.1928 22.9626 44.3744 22.782 44.4071 22.4877C44.3136 21.9504 44.4952 21.5892 44.9519 21.404C45.4086 21.5892 45.5903 21.9504 45.4968 22.4877C45.4255 22.9626 45.6071 23.3239 46.0417 23.5715C46.8746 22.8872 47.7828 22.3453 48.766 21.9459C48.7849 22.4356 49.0573 22.7968 49.5833 23.0296C50.0749 22.8978 50.5289 22.7172 50.9455 22.4877C51.3088 22.4877 51.672 22.4877 52.0353 22.4877C54.2148 22.4877 56.3942 22.4877 58.5737 22.4877C58.7432 16.3027 58.5612 10.1615 58.0289 4.06409C58.0615 3.76981 58.243 3.58919 58.5737 3.52222C58.9666 4.70674 59.3295 5.88077 59.6635 7.04439C61.1357 7.49956 62.5883 7.9511 64.0224 8.39907C64.3766 15.6773 64.7395 22.9022 65.1122 30.0739C71.6507 30.0739 78.1891 30.0739 84.7276 30.0739C84.7276 36.2151 84.7276 42.3564 84.7276 48.4976C81.3178 75.531 67.8774 95.9417 44.4071 109.729C43.4989 109.729 42.5908 109.729 41.6827 109.729C22.1953 98.372 9.57242 81.7544 3.81411 59.8769C1.97026 52.4799 0.608082 45.0743 -0.27243 37.6602C-0.27243 35.1314 -0.27243 32.6027 -0.27243 30.0739C6.8109 30.0739 13.8942 30.0739 20.9776 30.0739C21.35 22.9022 21.7133 15.6773 22.0673 8.39907C23.6805 7.95289 25.3151 7.59168 26.9712 7.31533C26.9712 6.05098 26.9712 4.78659 26.9712 3.52222C28.1714 3.57834 29.2611 3.93959 30.2404 4.60597C30.6065 5.02179 31.0606 5.38304 31.6026 5.68971C31.8732 4.43808 31.964 3.17371 31.875 1.89661ZM32.4199 2.98035C34.2388 3.48053 35.601 4.56427 36.5064 6.23158C36.688 10.2053 36.8697 14.1791 37.0513 18.1528C38.9646 19.5964 40.3267 21.4027 41.1378 23.5715C39.8758 22.864 38.6044 22.1415 37.3237 21.404C36.0751 20.4465 34.6221 19.9046 32.9647 19.7784C32.4335 14.2235 32.2519 8.62416 32.4199 2.98035ZM53.6699 3.52222C53.6699 8.94094 53.6699 14.3597 53.6699 19.7784C51.7266 19.9367 50.092 20.6592 48.766 21.9459C47.7828 22.3453 46.8746 22.8872 46.0417 23.5715C45.6071 23.3239 45.4255 22.9626 45.4968 22.4877C46.55 21.167 47.7306 19.9026 49.0385 18.6946C49.2201 14.9015 49.4017 11.1084 49.5833 7.31533C50.5295 5.56009 51.8916 4.29571 53.6699 3.52222ZM31.3301 6.23158C31.3301 11.1084 31.3301 15.9853 31.3301 20.8621C32.8666 20.7253 34.3196 20.9962 35.6891 21.6749C34.9845 21.9404 34.2579 22.0308 33.5096 21.9459C31.6934 21.9459 29.8771 21.9459 28.0609 21.9459C27.8801 16.3349 28.0617 10.7356 28.6058 5.14784C29.4642 5.66614 30.3722 6.02735 31.3301 6.23158ZM52.0353 22.4877C51.672 22.4877 51.3088 22.4877 50.9455 22.4877C51.8117 21.2301 53.0831 20.6882 54.7596 20.8621C54.594 15.9398 54.7754 11.063 55.3045 6.23158C56.2144 6.09546 57.0317 5.73425 57.7564 5.14784C58.0289 10.7443 58.1193 16.3436 58.0289 21.9459C55.9197 21.7752 53.9216 21.9558 52.0353 22.4877ZM26.4263 10.0247C26.967 14.2599 27.1486 18.5949 26.9712 23.0296C29.7016 22.9397 32.4259 23.03 35.1442 23.3005C36.6027 23.4357 37.8741 23.9776 38.9583 24.9262C34.2221 25.8617 29.4999 26.8551 24.7917 27.9065C24.2475 22.1377 24.0659 16.3578 24.2468 10.5666C25.1181 10.7117 25.8446 10.5311 26.4263 10.0247ZM48.766 25.1971C48.5844 24.8358 48.4028 24.4746 48.2212 24.1134C51.6454 23.1037 55.0964 22.9231 58.5737 23.5715C58.9372 19.0559 59.3 14.5403 59.6635 10.0247C60.5195 10.4633 61.4278 10.6439 62.3878 10.5666C62.4788 16.3494 62.3878 22.1293 62.1154 27.9065C57.7286 26.763 53.279 25.8599 48.766 25.1971ZM42.2276 24.1134C43.9163 23.8924 45.1876 24.5246 46.0417 26.0099C44.0443 28.5983 42.2281 28.508 40.593 25.739C41.0505 25.0698 41.5954 24.5279 42.2276 24.1134ZM30.7853 30.0739C30.7853 29.8933 30.7853 29.7127 30.7853 29.5321C33.2785 29.1343 35.7305 28.5925 38.141 27.9065C38.6977 28.3692 39.1518 28.9111 39.5032 29.5321C36.6197 30.0711 33.7137 30.2518 30.7853 30.0739ZM56.3942 29.5321C56.3942 29.7127 56.3942 29.8933 56.3942 30.0739C53.2855 30.2521 50.1978 30.0715 47.1314 29.5321C47.5191 28.6944 48.1549 28.1525 49.0385 27.9065C51.4914 28.4845 53.9433 29.0263 56.3942 29.5321ZM73.2853 41.4533C73.6487 41.8145 74.0116 42.1757 74.375 42.537C73.9222 44.8743 73.4683 47.2224 73.0128 49.5813C72.3415 48.0639 71.9781 46.4383 71.9231 44.7045C65.6309 40.7579 59.1829 40.4869 52.5801 43.8917C47.2066 48.355 45.1179 54.0446 46.3141 60.9606C46.8099 63.7518 47.8997 66.2807 49.5833 68.5469C52.415 63.275 54.958 57.8563 57.2115 52.2907C57.6142 51.7086 58.1591 51.3473 58.8462 51.207C61.2943 51.9122 63.7462 51.9122 66.2019 51.207C66.5654 51.3876 66.9282 51.5682 67.2917 51.7488C66.2439 52.1865 65.1541 52.4575 64.0224 52.5616C63.3381 52.7875 62.9747 53.2391 62.9327 53.9163C62.3906 60.8647 62.2086 67.9091 62.3878 75.0493C63.4313 75.2032 64.339 75.0228 65.1122 74.5074C68.3967 74.5486 71.4845 73.8263 74.375 72.34C74.3064 74.017 73.398 75.0103 71.6507 75.3203C68.6375 76.3352 65.5497 76.967 62.3878 77.2168C62.2974 79.5718 62.3884 81.9197 62.6603 84.2611C63.714 85.91 65.2577 86.8134 67.2917 86.9705C62.7622 87.6018 58.2212 87.6923 53.6699 87.2414C53.4883 87.061 53.3066 86.88 53.125 86.6996C54.2148 86.5191 55.3045 86.3381 56.3942 86.1577C57.0301 85.8867 57.484 85.4354 57.7564 84.803C58.0283 82.0996 58.1193 79.3903 58.0289 76.6749C54.7929 76.2376 51.7052 75.3349 48.766 73.9656C47.048 78.8186 44.9594 83.5144 42.5 88.0542C40.444 83.7827 38.2646 79.6281 35.9615 75.5912C34.441 76.0821 32.8972 76.4436 31.3301 76.6749C29.8771 76.6749 28.4242 76.6749 26.9712 76.6749C26.7995 78.7725 26.9812 80.7596 27.516 82.6355C27.4287 83.5562 27.5196 84.4595 27.7885 85.3449C29.1267 85.9268 30.4889 86.4687 31.875 86.9705C28.0609 87.6928 24.2468 87.6928 20.4327 86.9705C22.0199 86.6004 23.382 85.8775 24.5192 84.803C24.7431 82.0834 25.0155 79.374 25.3365 76.6749C20.5158 76.4939 16.9741 74.3265 14.7115 70.1725C14.0327 60.8008 13.6695 51.4083 13.6218 41.9951C12.096 41.6563 10.5522 41.295 8.99039 40.9114C13.8942 40.1889 18.7981 40.1889 23.7019 40.9114C22.0169 41.1813 20.4731 41.7232 19.0705 42.537C18.7073 51.0263 18.7073 59.5155 19.0705 68.005C19.4424 70.8119 20.9863 72.4375 23.7019 72.8818C24.0882 73.3717 24.6331 73.5521 25.3365 73.4237C25.5149 67.9069 25.3333 62.4882 24.7917 57.1675C24.8806 55.8904 24.7898 54.6262 24.5192 53.3744C23.2361 52.6656 21.8739 52.1237 20.4327 51.7488C23.4988 51.7976 26.5864 51.7073 29.6955 51.4779C32.4171 57.8844 35.5047 64.116 38.9583 70.1725C39.7596 69.6951 40.2136 68.9728 40.3205 68.005C41.4914 59.3079 41.4007 50.6379 40.0481 41.9951C38.5896 41.684 37.1366 41.3228 35.6891 40.9114C39.6848 40.1889 43.6806 40.1889 47.6763 40.9114C46.2993 41.2981 44.9371 41.6593 43.5897 41.9951C42.7478 44.4588 42.5662 46.9876 43.0449 49.5813C47.6671 42.8925 54.1148 39.6413 62.3878 39.8276C66.0423 40.2817 69.6749 40.8236 73.2853 41.4533Z" fill="black" fill-opacity="0.6"/>
<path opacity="0.208" fill-rule="evenodd" clip-rule="evenodd" d="M31.875 1.89661C31.964 3.17371 31.8731 4.43808 31.6026 5.68971C31.0606 5.38304 30.6065 5.02179 30.2404 4.60597C31.0727 3.90041 31.6176 2.99728 31.875 1.89661Z" fill="#859FD2"/>
<path opacity="0.539" fill-rule="evenodd" clip-rule="evenodd" d="M44.4071 3.52222C43.6881 9.89718 43.6881 16.219 44.4071 22.4877C44.3744 22.782 44.1928 22.9626 43.8622 23.0296C43.6806 19.7784 43.4989 16.5271 43.3173 13.2759C43.3195 9.82283 43.6828 6.5716 44.4071 3.52222Z" fill="#6E9BCC"/>
<path opacity="0.551" fill-rule="evenodd" clip-rule="evenodd" d="M22.0673 8.39905C21.7133 15.6773 21.35 22.9022 20.9776 30.0739C20.6244 22.6456 20.9877 15.4207 22.0673 8.39905Z" fill="#6899CC"/>
<path opacity="0.545" fill-rule="evenodd" clip-rule="evenodd" d="M64.0224 8.39905C65.1018 15.4207 65.4653 22.6456 65.1122 30.0739C64.7395 22.9022 64.3766 15.6773 64.0224 8.39905Z" fill="#6A9ACC"/>
<path fill-rule="evenodd" clip-rule="evenodd" d="M55.3045 6.23157C54.7754 11.063 54.594 15.9398 54.7596 20.8621C53.0831 20.6882 51.8117 21.23 50.9455 22.4877C50.5289 22.7172 50.0749 22.8978 49.5833 23.0296C49.0573 22.7968 48.7849 22.4355 48.766 21.9459C50.092 20.6592 51.7266 19.9367 53.6699 19.7784C53.8767 15.4573 54.4216 10.9417 55.3045 6.23157Z" fill="black" fill-opacity="0.6"/>
<path opacity="0.427" fill-rule="evenodd" clip-rule="evenodd" d="M48.2212 24.1133C48.4028 24.4745 48.5844 24.8358 48.766 25.197C46.939 25.2809 46.7574 24.9196 48.2212 24.1133Z" fill="black" fill-opacity="0.6"/>
<path opacity="0.549" fill-rule="evenodd" clip-rule="evenodd" d="M30.7853 29.532C30.7853 29.7126 30.7853 29.8933 30.7853 30.0739C30.0058 30.031 29.2793 30.2116 28.6058 30.6157C28.1655 30.4491 27.8022 30.1781 27.516 29.8029C28.5909 29.5344 29.6806 29.4442 30.7853 29.532Z" fill="black" fill-opacity="0.6"/>
<path opacity="0.543" fill-rule="evenodd" clip-rule="evenodd" d="M56.3942 30.0739C56.3942 29.8933 56.3942 29.7126 56.3942 29.532C57.4987 29.4442 58.5884 29.5344 59.6635 29.8029C59.3774 30.1781 59.014 30.4491 58.5737 30.6157C57.9003 30.2116 57.1734 30.031 56.3942 30.0739Z" fill="black" fill-opacity="0.6"/>
<path opacity="0.447" fill-rule="evenodd" clip-rule="evenodd" d="M73.2852 41.4533C73.9255 41.3346 74.4703 41.5152 74.9199 41.9951C74.8523 42.3239 74.6709 42.5045 74.375 42.537C74.0116 42.1757 73.6487 41.8145 73.2852 41.4533Z" fill="#A0A9CC"/>
<path fill-rule="evenodd" clip-rule="evenodd" d="M57.484 56.6256C58.0256 62.3082 58.2076 68.0884 58.0288 73.9655C55.0925 73.752 52.9132 72.3973 51.4904 69.9015C53.1316 65.2853 55.1296 60.8598 57.484 56.6256Z" fill="black" fill-opacity="0.6"/>
<path opacity="0.438" fill-rule="evenodd" clip-rule="evenodd" d="M24.7917 57.1675C25.3333 62.4881 25.5149 67.9068 25.3365 73.4236C24.6331 73.5521 24.0882 73.3716 23.7019 72.8818C24.7771 67.8559 25.1404 62.6176 24.7917 57.1675Z" fill="black" fill-opacity="0.6"/>
<path opacity="0.459" fill-rule="evenodd" clip-rule="evenodd" d="M62.9327 53.9163C62.9327 60.7802 62.9327 67.6435 62.9327 74.5074C63.659 74.5074 64.3859 74.5074 65.1122 74.5074C64.339 75.0227 63.4313 75.2032 62.3878 75.0493C62.2086 67.909 62.3905 60.8647 62.9327 53.9163Z" fill="#9EA0CD"/>
<path fill-rule="evenodd" clip-rule="evenodd" d="M28.0609 58.2512C30.2635 63.1015 32.6246 67.8884 35.1442 72.6108C33.3048 73.6398 31.307 74.0912 29.1506 73.9655C28.7643 73.4757 28.2195 73.2952 27.516 73.4236C27.3379 68.2677 27.5195 63.2104 28.0609 58.2512Z" fill="black" fill-opacity="0.6"/>
<path fill-rule="evenodd" clip-rule="evenodd" d="M42.2276 66.9211C43.9889 68.8583 45.8051 70.8454 47.6763 72.8817C46.4528 75.4968 45.0906 78.0252 43.5897 80.4679C42.3565 77.9623 41.176 75.4334 40.0481 72.8817C41.4213 71.1331 42.1478 69.1466 42.2276 66.9211Z" fill="black" fill-opacity="0.6"/>
</g>
<defs>
<clipPath id="clip0_257_540">
<rect width="85" height="110" fill="white"/>
</clipPath>
</defs>
</svg>
