<svg width="265" height="51" viewBox="0 0 265 51" fill="none" xmlns="http://www.w3.org/2000/svg">
<path d="M10.408 0.142292L0.061097 0.284679L0.345876 18.7004C0.535728 29.0473 0.488265 39.774 0.203486 43.2388C-0.0338291 46.6086 -0.0812922 49.5988 0.156023 49.7887C0.345876 50.026 1.29514 47.8902 2.2444 45.0424C4.57009 38.2551 9.03162 29.2372 11.7845 25.6774C13.0185 24.1111 15.3442 20.7887 16.958 18.3207C18.6192 15.8526 20.2804 13.5269 20.7075 13.1472C21.1822 12.8149 22.2738 11.2961 23.1756 9.7773C25.5488 5.83786 30.8646 1.70857 33.5226 1.70857C35.0889 1.70857 35.0889 1.85096 33.6175 5.2683C32.0987 8.63818 29.0136 13.2421 23.4604 20.3141C15.629 30.3763 12.5439 35.9769 9.83849 45.3271C8.55699 49.6937 8.50953 50.1209 9.12654 50.1209C9.36386 50.1209 9.6961 49.3615 9.88595 48.3648C10.6928 44.0931 20.4702 27.1962 24.9792 22.3076C30.5324 16.3272 35.8957 15.6153 41.8286 20.1242C43.8221 21.6431 46.6698 25.535 46.6698 26.7691C46.6698 29.6643 45.3409 29.9491 42.3507 27.6709C39.2181 25.2977 38.4113 24.9655 35.6109 24.9655C32.5258 24.9655 29.7255 25.8673 27.4473 27.6234C23.5079 30.6136 19.8532 38.7298 18.4293 47.6528C18.1445 49.4564 18.192 49.6937 18.9039 49.5514C19.4735 49.4564 19.9481 48.5546 20.4228 46.7985C21.2296 43.6659 25.0741 33.8885 26.3556 31.7052C26.8777 30.8509 27.9219 29.8542 28.7288 29.427C30.0103 28.7625 30.2476 28.7625 31.624 29.5694C32.6208 30.1864 33.7124 31.5629 34.7566 33.6512C36.0856 36.2617 36.4178 37.4483 36.5602 40.4859C36.7975 45.0898 35.8957 46.8934 32.9055 47.7952C29.5357 48.792 29.4407 48.0325 31.8139 40.0587C32.0987 39.1095 29.4407 36.1668 28.4915 36.4515C27.2574 36.8787 26.1658 40.1537 25.9285 44.5677L25.6437 49.0293L36.5127 49.3615C42.4931 49.5039 47.9988 49.7887 48.7582 49.9785L50.1346 50.2633L49.7075 42.7167C49.5176 38.5874 49.3752 27.3386 49.4227 17.7036L49.5176 0.284679H42.5406C38.6486 0.284679 32.1936 0.189754 28.1592 0.142292C24.1249 0.0473633 16.1511 0.0473633 10.408 0.142292Z" fill="black" fill-opacity="0.6"/>
<path d="M57.1117 19.1276V38.2552H59.2476H61.3834L61.4783 23.4468L61.6207 8.59081L72.0151 22.1178C84.6878 38.5875 84.403 38.2552 86.3964 38.2552H87.9627V19.1276V0.0474586L85.8269 0.189846L83.6911 0.3797V14.9034C83.6911 29.1898 83.6911 29.4271 82.7893 28.5253C82.3146 28.0032 77.1886 21.4533 71.3981 14.0016C61.0512 0.522087 60.9088 0.3797 59.0102 0.189846L57.1117 -3.8147e-06V19.1276Z" fill="black" fill-opacity="0.6"/>
<path d="M110.555 0.52206C110.46 0.759377 107.043 9.25526 102.961 19.3649C98.8792 29.4745 95.5568 37.828 95.5568 37.9704C95.5568 38.3976 99.4963 38.3027 100.161 37.8755C100.446 37.6856 101.537 35.4074 102.581 32.797L104.48 28.0506L113.261 27.9083L122.041 27.8133L123.845 32.4172C124.794 34.9803 125.933 37.3534 126.313 37.6382C126.93 38.1603 131.202 38.54 131.154 38.1128C131.154 38.0654 127.737 29.5695 123.608 19.27L116.061 0.52206L113.403 0.284744C111.837 0.142357 110.698 0.237282 110.555 0.52206ZM120.238 23.5891C120.238 23.8264 117.105 24.0163 113.071 24.0163C107.518 24.0163 105.951 23.8739 106.141 23.3993C106.663 22.2601 112.596 6.69226 112.881 5.743C113.071 5.07851 114.21 7.49913 116.725 13.9541C118.671 19.0327 120.238 23.3518 120.238 23.5891Z" fill="black" fill-opacity="0.6"/>
<path d="M138.463 0.522003C138.321 0.806782 138.321 9.35013 138.369 19.5072L138.511 38.0178L140.552 38.1602L142.545 38.3026V22.972C142.593 9.06536 142.64 7.73639 143.305 8.59072C143.732 9.11282 146.722 14.3338 149.997 20.2192C153.272 26.1046 156.262 31.2781 156.689 31.7052C157.449 32.607 159.015 32.7969 159.917 32.1799C160.202 31.99 163.429 26.4368 167.036 19.8395L173.634 7.83132L173.776 23.067L173.871 38.2551H176.007H178.143V19.1275V0.0473709L175.627 0.189762L173.064 0.379612L166.609 12.0555C163.049 18.5105 159.822 24.4909 159.395 25.3452C158.683 26.7216 157.733 27.0539 157.733 25.8673C157.733 25.4876 145.678 3.79696 144.112 1.37634C143.589 0.616928 142.878 0.33215 141.026 0.189762C139.697 0.142296 138.558 0.237225 138.463 0.522003Z" fill="black" fill-opacity="0.6"/>
<path d="M221.334 2.04082V4.08173H227.504H233.674V21.2159V38.3026L236.048 38.1602L238.468 38.0178L238.563 21.1684L238.658 4.31905L244.971 4.17666L251.283 4.03427L251.141 2.13575L250.998 0.237225L236.142 0.142296L221.334 0.0473709V2.04082Z" fill="black" fill-opacity="0.6"/>
<path d="M200.782 0.616951C200.45 1.18651 185.737 37.7331 185.737 38.0179C185.737 38.3976 189.724 38.2552 190.341 37.8755C190.625 37.6856 191.717 35.4074 192.761 32.7969L194.66 28.0506H203.488H212.363L214.214 32.7495C215.259 35.3599 216.35 37.6382 216.683 37.828C217.252 38.2077 221.334 38.445 221.334 38.1128C221.334 38.0179 217.917 29.522 213.787 19.2225L206.241 0.522026L203.63 0.379639C202.206 0.28471 200.925 0.427101 200.782 0.616951ZM207.427 15.2356L210.702 23.7789L207 23.9213C204.912 24.0162 201.684 24.0162 199.786 23.9213L196.321 23.7789L199.548 15.2356C201.305 10.5367 202.918 6.26506 203.061 5.74297L203.393 4.7937L203.773 5.74297C204.01 6.26506 205.671 10.5367 207.427 15.2356Z" fill="black" fill-opacity="0.6"/>
<path d="M259.779 19.2699V38.2551H262.39H265V19.2699V0.28466H262.39H259.779V19.2699Z" fill="black" fill-opacity="0.6"/>
<path d="M57.444 43.8083C56.9219 44.2829 57.0643 49.5513 57.5864 49.8836C57.8711 50.0734 58.061 48.9343 58.061 46.8459C58.061 43.4761 58.0135 43.1913 57.444 43.8083Z" fill="black" fill-opacity="0.6"/>
<path d="M61.0037 46.8935C61.0512 49.8836 61.0986 49.9786 61.241 47.8427C61.3359 46.5138 61.6207 45.3747 61.9055 45.3747C62.1428 45.3747 62.3327 45.517 62.3327 45.7069C62.3327 45.9442 63.187 47.0359 64.2312 48.2224L66.0823 50.3583L66.0348 46.7985C65.9873 43.9033 65.9399 43.7134 65.7975 45.7069C65.7025 47.0833 65.4178 48.2224 65.2279 48.2224C65.0381 48.2224 64.1837 47.2732 63.3294 46.0866C61.0986 42.954 60.9088 43.0015 61.0037 46.8935Z" fill="black" fill-opacity="0.6"/>
<path d="M69.0724 46.8935C69.1199 49.8837 69.1673 50.026 69.3097 47.8427C69.4047 46.5138 69.642 45.3747 69.8318 45.3747C70.0217 45.3747 70.9235 46.4663 71.8253 47.7478C72.7271 49.0293 73.6289 50.121 73.8662 50.121C74.056 50.121 74.1984 48.6022 74.1984 46.7986C74.1984 44.7102 74.0086 43.4761 73.6763 43.4761C73.3441 43.4761 73.2017 44.3305 73.3441 45.8493C73.3916 47.1783 73.3441 48.2224 73.1542 48.2224C73.0119 48.2224 72.0626 47.1308 71.1133 45.8493C70.1641 44.5203 69.2623 43.4761 69.1673 43.4761C69.0724 43.4761 69.025 45.0424 69.0724 46.8935Z" fill="black" fill-opacity="0.6"/>
<path d="M77.6158 44.2355C76.1444 45.2322 76.1444 48.3648 77.6158 49.3615C79.894 50.9753 82.7418 49.5514 82.7418 46.7985C82.7418 44.0457 79.894 42.6218 77.6158 44.2355ZM81.0806 44.6152C82.8842 45.8967 81.745 49.6463 79.5617 49.6463C78.6125 49.6463 77.0462 47.8902 77.0462 46.7985C77.0462 45.7069 78.6125 43.9507 79.5617 43.9507C79.894 43.9507 80.6059 44.2355 81.0806 44.6152Z" fill="black" fill-opacity="0.6"/>
<path d="M84.1657 43.666C84.1657 43.7609 84.8302 45.3272 85.637 47.1308L87.1559 50.3583L88.4848 47.5105C89.1968 45.9442 89.8138 44.3305 89.8612 43.9508C89.8612 42.8591 89.1018 43.9982 88.2 46.4188C87.7254 47.6529 87.2033 48.5547 87.0135 48.4598C86.8236 48.3174 86.2541 47.1782 85.7794 45.8493C85.3048 44.5678 84.7352 43.4761 84.5454 43.4761C84.3555 43.4761 84.1657 43.5711 84.1657 43.666Z" fill="black" fill-opacity="0.6"/>
<path d="M92.092 46.6562C90.858 49.7413 90.6681 51.2127 91.7598 49.2192C92.5192 47.7953 95.2246 47.8428 95.9365 49.2667C96.2213 49.8837 96.4586 50.121 96.4586 49.8362C96.5061 49.0294 94.2753 43.761 93.8007 43.6186C93.5634 43.5237 92.8039 44.9001 92.092 46.6562ZM94.5126 46.0867C95.272 47.7479 95.272 47.7479 93.8956 47.7479C92.6141 47.7479 92.5666 47.6055 92.9938 45.9443C93.3735 44.5678 93.8481 44.6153 94.5126 46.0867Z" fill="black" fill-opacity="0.6"/>
<path d="M98.4046 43.9033C99.4963 44.1881 99.6387 44.5203 99.876 47.2732L100.161 50.3583L100.208 47.1782C100.303 44.3305 100.398 43.9982 101.395 43.8084C101.964 43.7134 101.252 43.6185 99.8285 43.5711C98.0724 43.5711 97.5977 43.666 98.4046 43.9033Z" fill="black" fill-opacity="0.6"/>
<path d="M104.575 46.7986C104.575 48.6971 104.765 50.121 105.049 50.121C105.334 50.121 105.524 48.6971 105.524 46.7986C105.524 44.9 105.334 43.4761 105.049 43.4761C104.765 43.4761 104.575 44.9 104.575 46.7986Z" fill="black" fill-opacity="0.6"/>
<path d="M108.846 44.4254C107.565 45.7069 107.612 47.9377 108.941 49.1717C111.125 51.1651 114.067 49.8362 114.067 46.7985C114.067 45.4221 113.783 44.7576 113.023 44.2355C111.552 43.1913 109.986 43.2863 108.846 44.4254ZM112.549 44.7102C113.878 45.612 113.925 47.4156 112.644 48.6971C111.504 49.8362 110.603 49.8836 109.606 48.8869C108.419 47.7478 108.467 45.4696 109.701 44.5203C110.698 43.7609 111.267 43.8084 112.549 44.7102Z" fill="black" fill-opacity="0.6"/>
<path d="M116.82 43.8084C116.346 44.6627 116.393 49.5514 116.868 49.8836C117.2 50.0735 117.39 49.3141 117.39 47.6529L117.437 45.1373L118.434 46.3239C118.956 46.9884 119.905 48.1275 120.522 48.9344L121.662 50.3583L121.567 46.7985C121.519 43.2863 121.519 43.2863 121.234 45.8493L120.95 48.4123L119.336 46.3239C117.058 43.3337 117.058 43.3337 116.82 43.8084Z" fill="black" fill-opacity="0.6"/>
<path d="M125.126 43.8083C124.794 43.9032 124.509 44.5677 124.509 45.1847C124.509 46.0865 124.889 46.5137 125.933 46.8459C126.835 47.1781 127.357 47.7002 127.357 48.2698C127.357 49.4564 126.265 49.8835 125.031 49.1716C124.414 48.8868 124.035 48.8394 124.035 49.1241C124.035 49.7886 125.743 50.2632 126.835 49.8835C128.828 49.2665 128.544 47.1307 126.313 46.3713C124.462 45.7068 124.652 44.1405 126.55 44.2829C127.262 44.3304 127.737 44.188 127.594 43.9032C127.31 43.4286 126.123 43.3811 125.126 43.8083Z" fill="black" fill-opacity="0.6"/>
<path d="M133.67 46.7986C133.67 48.7446 133.765 49.5514 133.86 48.5547C133.954 47.6054 133.954 45.9917 133.86 44.995C133.765 44.0457 133.67 44.8526 133.67 46.7986Z" fill="black" fill-opacity="0.6"/>
<path d="M136.945 46.7986C136.992 49.6938 137.04 49.8837 137.182 47.8427C137.277 46.5138 137.514 45.3747 137.704 45.3747C137.941 45.3747 138.891 46.4189 139.887 47.7478C140.884 49.0293 141.786 50.121 141.881 50.121C141.976 50.121 142.023 48.5547 141.976 46.6562C141.928 43.7135 141.881 43.5711 141.738 45.7069C141.643 47.0833 141.359 48.2224 141.074 48.2224C140.837 48.2224 140.647 48.0801 140.647 47.8427C140.647 47.6529 139.792 46.5612 138.748 45.3747L136.897 43.2388L136.945 46.7986Z" fill="black" fill-opacity="0.6"/>
<path d="M147.861 46.6562L147.766 50.121L149.57 50.026C151.278 49.9786 151.278 49.9786 149.807 49.7887L148.288 49.5989L148.098 46.4189L147.956 43.2388L147.861 46.6562Z" fill="black" fill-opacity="0.6"/>
<path d="M153.462 46.7986V50.121L155.503 50.026L157.496 49.9786L155.693 49.7887C154.031 49.5989 153.889 49.4565 154.031 48.3174C154.126 47.3206 154.411 47.0359 155.265 47.0833C155.835 47.0833 156.31 46.9409 156.31 46.7036C156.31 46.5138 155.74 46.3239 155.076 46.3239C154.079 46.3239 153.889 46.1341 154.031 45.2323C154.126 44.4729 154.601 44.0932 155.835 43.9033L157.496 43.6185L155.503 43.5236L153.462 43.4761V46.7986Z" fill="black" fill-opacity="0.6"/>
<path d="M160.202 44.4255C157.544 46.941 160.629 51.1652 164.094 49.8363C164.568 49.6464 164.853 48.9819 164.853 48.1751C164.853 47.0834 164.663 46.7986 163.809 46.7986C162.812 46.8461 162.812 46.8936 163.571 47.3207C165.09 48.2225 164.283 49.6464 162.242 49.6464C161.151 49.6464 160.107 48.2225 160.107 46.7986C160.107 44.7577 161.293 43.8085 163.382 44.1882C164.616 44.378 164.9 44.3306 164.378 43.9983C163.239 43.1914 161.293 43.3813 160.202 44.4255Z" fill="black" fill-opacity="0.6"/>
<path d="M167.985 46.6088C166.751 49.6464 166.562 51.2601 167.701 49.2192C168.413 47.8428 170.786 47.8428 171.498 49.2192C171.83 49.7413 172.115 50.121 172.257 50.0261C172.542 49.6939 170.026 43.4762 169.599 43.4762C169.409 43.4762 168.65 44.9001 167.985 46.6088ZM170.501 46.324C170.976 47.7004 170.928 47.7479 169.599 47.7479C168.27 47.7479 168.223 47.7004 168.697 46.324C168.982 45.5171 169.409 44.9001 169.599 44.9001C169.789 44.9001 170.216 45.5171 170.501 46.324Z" fill="black" fill-opacity="0.6"/>
<path d="M174.915 46.6562L174.82 50.121L176.624 50.026C178.332 49.9786 178.332 49.9786 176.861 49.7887L175.342 49.5989L175.152 46.4189L175.01 43.2388L174.915 46.6562Z" fill="black" fill-opacity="0.6"/>
<path d="M182.889 46.7986V50.121L184.93 50.026C186.638 49.9786 186.733 49.9311 185.404 49.7887C184.028 49.5989 183.838 49.409 183.838 48.1275C183.838 46.846 183.981 46.7036 185.025 46.8935C185.689 47.0359 186.211 46.9409 186.211 46.7511C186.211 46.5138 185.689 46.3239 185.025 46.3239C184.075 46.3239 183.838 46.0866 183.838 45.1848C183.838 44.2355 184.123 43.9982 185.404 43.8084C186.733 43.666 186.638 43.6185 184.93 43.5711L182.889 43.4761V46.7986Z" fill="black" fill-opacity="0.6"/>
<path d="M189.629 46.8935L189.676 50.3583L189.961 47.7478L190.246 45.1373L191.48 47.2257L192.714 49.3141L193.805 47.3681C194.422 46.2765 195.087 45.3747 195.277 45.3747C195.419 45.3747 195.467 46.3239 195.372 47.463C195.229 48.6971 195.324 49.6463 195.656 49.8362C196.036 50.0735 196.179 49.1717 196.179 46.846C196.179 44.9 195.989 43.4761 195.704 43.4761C195.419 43.4761 194.755 44.4254 194.185 45.612C193.616 46.7985 192.999 47.7478 192.809 47.7478C192.619 47.7478 191.907 46.7985 191.242 45.612C190.53 44.4254 189.866 43.4761 189.771 43.4761C189.629 43.4761 189.581 45.0424 189.629 46.8935Z" fill="black" fill-opacity="0.6"/>
<path d="M199.074 46.8935C199.121 48.792 199.264 49.7887 199.359 49.0293C199.501 48.1275 199.833 47.7478 200.498 47.7478C201.447 47.7478 203.298 46.1816 203.298 45.4221C203.298 44.5203 201.779 43.4762 200.403 43.4762H199.026L199.074 46.8935ZM201.779 44.378C202.871 45.0424 202.254 46.5613 200.782 46.7036C199.643 46.846 199.501 46.7036 199.501 45.4221C199.501 43.9033 200.403 43.4762 201.779 44.378Z" fill="black" fill-opacity="0.6"/>
<path d="M206.241 44.2355C205.481 44.7576 205.197 45.4221 205.197 46.7985C205.197 49.8362 208.139 51.1651 210.323 49.1717C213.313 46.3714 209.611 41.8624 206.241 44.2355ZM209.706 44.6152C211.462 45.8967 210.323 49.6463 208.187 49.6463C207.237 49.6463 205.671 47.8902 205.671 46.7985C205.671 45.7069 207.237 43.9508 208.187 43.9508C208.519 43.9508 209.183 44.2355 209.706 44.6152Z" fill="black" fill-opacity="0.6"/>
<path d="M213.265 43.7609C213.265 44.6152 214.784 49.409 215.164 49.8362C215.401 50.026 215.971 49.1242 216.445 47.7952C216.92 46.4663 217.395 45.3746 217.537 45.3746C217.679 45.3746 218.154 46.4663 218.629 47.7478C219.103 49.0768 219.673 50.026 219.863 49.9311C220.385 49.5988 221.951 43.9507 221.619 43.6185C221.524 43.4761 221.097 44.4254 220.717 45.6594C220.337 46.9409 219.863 47.9851 219.625 47.9851C219.435 47.9851 218.913 46.9884 218.534 45.7069C218.154 44.4728 217.679 43.4761 217.537 43.4761C217.347 43.4761 216.92 44.4254 216.588 45.6119C215.781 48.5072 215.306 48.6496 214.642 46.229C214.072 44.2355 213.265 42.8116 213.265 43.7609Z" fill="black" fill-opacity="0.6"/>
<path d="M224.182 46.7986V50.121L226.223 50.0735L228.216 49.9786L226.555 49.6938C225.178 49.4565 224.894 49.2192 224.894 48.2224C224.894 47.3206 225.178 46.9884 226.318 46.7511L227.741 46.4189L226.175 46.3714C224.799 46.3239 224.609 46.1815 224.751 45.2323C224.846 44.4729 225.321 44.0932 226.555 43.9033L228.216 43.6185L226.223 43.5236L224.182 43.4761V46.7986Z" fill="black" fill-opacity="0.6"/>
<path d="M230.684 43.8084C230.162 44.283 230.304 50.121 230.827 50.121C231.111 50.121 231.301 49.4565 231.301 48.6971C231.301 46.846 232.203 46.846 233.437 48.6971C233.959 49.4565 234.576 50.121 234.766 50.121C235.003 50.121 234.671 49.4565 234.102 48.6496C233.152 47.2732 233.105 47.1308 233.817 46.7036C234.908 46.1341 234.813 44.5678 233.722 43.9508C232.678 43.4287 231.159 43.3338 230.684 43.8084ZM233.674 44.6627C234.434 45.5645 233.532 46.7986 232.203 46.7986C231.539 46.7986 231.301 46.4663 231.301 45.3747C231.301 44.283 231.539 43.9508 232.203 43.9508C232.678 43.9508 233.342 44.283 233.674 44.6627Z" fill="black" fill-opacity="0.6"/>
<path d="M237.566 46.8935L237.614 50.3583L237.899 47.7478L238.183 45.1373L239.465 47.2257L240.699 49.2666L241.838 47.3206C242.408 46.2765 243.072 45.3747 243.262 45.3747C243.452 45.3747 243.689 46.5138 243.784 47.8427C243.926 50.026 243.974 49.8836 244.021 46.8935C244.069 45.0424 243.926 43.4761 243.689 43.4761C243.499 43.4761 242.787 44.4254 242.17 45.612C241.553 46.7985 240.889 47.7478 240.699 47.7478C240.509 47.7478 239.892 46.8935 239.37 45.8967C237.851 42.8591 237.471 43.049 237.566 46.8935Z" fill="black" fill-opacity="0.6"/>
<path d="M246.964 46.7986V50.121L249.005 50.026L250.998 49.9786L249.195 49.7887C247.534 49.5989 247.391 49.4565 247.534 48.3174C247.629 47.3206 247.913 47.0359 248.768 47.0833C249.337 47.0833 249.812 46.9409 249.812 46.7036C249.812 46.5138 249.242 46.3239 248.578 46.3239C247.581 46.3239 247.391 46.1341 247.534 45.2323C247.629 44.4729 248.103 44.0932 249.337 43.9033L250.998 43.6185L249.005 43.5236L246.964 43.4761V46.7986Z" fill="black" fill-opacity="0.6"/>
<path d="M253.229 46.8935C253.277 49.8836 253.324 49.9786 253.466 47.8427C253.561 46.5138 253.846 45.3747 254.131 45.3747C254.368 45.3747 254.558 45.517 254.558 45.7069C254.558 45.9442 255.412 47.0359 256.457 48.2224L258.308 50.3583L258.26 46.7985C258.213 43.9033 258.165 43.7134 258.023 45.7069C257.928 47.0833 257.643 48.2224 257.453 48.2224C257.264 48.2224 256.409 47.2732 255.555 46.0866C253.324 42.954 253.134 43.0015 253.229 46.8935Z" fill="black" fill-opacity="0.6"/>
<path d="M261.203 43.9033C262.295 44.1881 262.437 44.5203 262.674 47.2732L262.912 50.3583L263.149 47.2732C263.339 44.5203 263.434 44.1881 264.525 43.9033C265.285 43.666 264.763 43.5711 262.864 43.5711C260.966 43.5711 260.444 43.666 261.203 43.9033Z" fill="black" fill-opacity="0.6"/>
</svg>
